<svg xmlns="http://www.w3.org/2000/svg" width="16mm" height="16mm" viewBox="0 0 16 16"><path style="line-height:normal;font-variant-ligatures:normal;font-variant-position:normal;font-variant-caps:normal;font-variant-numeric:normal;font-variant-alternates:normal;font-feature-settings:normal;text-indent:0;text-align:start;text-decoration-line:none;text-decoration-style:solid;text-decoration-color:#000;text-transform:none;text-orientation:mixed;white-space:normal;shape-padding:0;isolation:auto;mix-blend-mode:normal;solid-color:#000;solid-opacity:1" d="M7.851 1.724a.398.398 0 00-.341.154.716.716 0 00-.115.33c-.034.23-.027.483-.057.629-.042.039-.916.844-1.582 2.162-.678 1.341-1.105 3.183-.1 5.116l-.072 2.072a.132.132 0 00.055.11s.303.22.822.414a1.475 1.475 0 01-.16.04c-.258.051-.7.081-1.416-.017-1.509-.209-2.764.591-2.764.591l-.261.166.634.157-.353.629.338-.128s1.258-.468 2.836-.175c1.102.218 1.789-.015 2.193-.319.298-.224.332-.38.386-.503.028.142.01.296.295.523.404.321 1.173.55 2.641.312 1.739-.282 2.004-.147 2.756.067l.326.093-.355-.58.583-.171-.236-.159s-1.138-.747-2.884-.408c-.838.163-1.314.127-1.567.06a.75.75 0 01-.179-.069c.319-.09.65-.215.992-.393a.132.132 0 00.072-.117v-2.158c.01-.025.049-.133.106-.337a.132.132 0 00.035-.038s.568-.818.722-2.092c.152-1.258-.122-2.975-1.69-4.78.008-.04.041-.218.046-.446a1.26 1.26 0 00-.037-.372.418.418 0 00-.085-.161.277.277 0 00-.181-.094.348.348 0 00-.287.117.606.606 0 00-.117.265c-.039.171-.047.361-.061.532-.029.018-.066.047-.15.072-.112.033-.221.039-.322-.057a.133.133 0 00-.025-.018c-.042-.18-.062-.376-.093-.55a.96.96 0 00-.088-.295.327.327 0 00-.26-.174zm-.013.263c.02.001.018-.002.039.038.02.039.044.116.06.213.034.193.054.46.135.71a.132.132 0 00.043.063c1.81 1.427 2.296 3.187 2.336 4.603a7.208 7.208 0 01-.295 2.25 6.137 6.137 0 00-2.28-.38h-.001c-.756.017-1.463.17-2.03.422-.9-1.813-.497-3.513.147-4.787a8.288 8.288 0 011.56-2.137.132.132 0 00.003-.002.132.132 0 00.038-.066c.002-.01 0-.02.002-.03h.002a.132.132 0 000-.012.132.132 0 000-.002c.039-.202.033-.44.06-.622a.525.525 0 01.068-.213c.027-.038.04-.051.113-.047zm1.394.108c.004 0-.002-.003.004.004s.02.028.03.062c.02.069.027.181.025.293a3.471 3.471 0 01-.045.454.132.132 0 00.031.11c1.573 1.778 1.807 3.425 1.66 4.636a5.108 5.108 0 01-.297 1.202c.052-.368.088-.787.075-1.25-.04-1.378-.517-3.086-2.118-4.512a.73.73 0 00.118-.022c.161-.048.277-.135.277-.135a.132.132 0 00.052-.094c.02-.2.029-.42.063-.57a.406.406 0 01.062-.154c.02-.024.022-.028.063-.024zm-1.9 2.258v1.851H6.275v1.06h1.057v1.85H8.39v-1.85h1.06v-1.06H8.39V4.353zm.266.263h.529V6.47h1.059V7h-1.06v1.85h-.528V7h-1.06v-.53h1.06zm.282 5.136a5.941 5.941 0 011.992.29c.069.023.136.05.203.075a.132.132 0 00-.001.019v.346a6.125 6.125 0 00-2.281-.381 5.476 5.476 0 00-1.886.362l.01-.3C6.45 9.92 7.14 9.77 7.88 9.752zm-.074.628a5.993 5.993 0 012.268.397v.658a6.133 6.133 0 00-2.25-.37c-.72.017-1.398.157-1.95.389l.024-.699c.523-.227 1.191-.363 1.908-.375zm.02.954a5.868 5.868 0 012.248.383v.495c-2.4 1.198-4.144-.045-4.222-.103l.012-.363c.532-.245 1.222-.396 1.963-.412zm-1.02 1.488c.273.078.586.14.934.162a1.27 1.27 0 01-.39.459c-.343.257-.937.478-1.985.27h-.002c-1.357-.251-2.303.003-2.666.115l.198-.354-.303-.074a3.675 3.675 0 012.256-.404c.737.102 1.21.073 1.505.015.148-.029.25-.066.319-.098.068-.031.111-.066.111-.066a.132.132 0 00.023-.025zm2.151.074c0 .001.04.06.106.107.066.049.17.102.324.143.308.081.82.11 1.683-.057 1.295-.252 2.036.064 2.373.236l-.293.088.235.38c-.622-.178-1.008-.325-2.598-.067-1.427.231-2.11-.001-2.433-.258-.234-.186-.293-.377-.31-.472.286 0 .593-.033.913-.1z" color="#000" font-weight="400" font-family="sans-serif" overflow="visible"/></svg>