<svg xmlns="http://www.w3.org/2000/svg" width="16mm" height="16mm" viewBox="0 0 16 16"><path style="line-height:normal;font-variant-ligatures:normal;font-variant-position:normal;font-variant-caps:normal;font-variant-numeric:normal;font-variant-alternates:normal;font-feature-settings:normal;text-indent:0;text-align:start;text-decoration-line:none;text-decoration-style:solid;text-decoration-color:#000;text-transform:none;text-orientation:mixed;white-space:normal;shape-padding:0;isolation:auto;mix-blend-mode:normal;solid-color:#000;solid-opacity:1" d="M.019 0L0 .019v.213L.232 0H.019zm1.323 0L0 1.342v.212L1.554 0h-.212zm1.322 0L0 2.664v.213L2.877 0h-.213zm1.323 0L0 3.987V4.2L4.2 0h-.213zM5.31 0L0 5.31v.213L5.523 0H5.31zm1.323 0L0 6.633v.213L6.846 0h-.213zm1.323 0L0 7.956v.213L8.169 0h-.213zM9.28 0L8.023 1.256c.05.018.093.046.135.078L9.492 0h-.213zm1.323 0L9.267 1.335H9.295a.803.803 0 01.157.028L10.815 0h-.213zm1.323 0L9.994 1.931l.006.017v.002c.015.052.026.103.035.153L12.138 0h-.213zm1.323 0l-3.046 3.046c.03.04.063.08.092.12L13.461 0h-.213zm1.323 0l-3.832 3.832c.027.045.051.09.077.135L14.784 0h-.213zm1.323 0l-4.705 4.704.065.148L16 .106V0h-.106zM16 1.216l-4.467 4.467c.015.057.03.114.043.17L16 1.43v-.213zm-8.149.508a.398.398 0 00-.341.154.716.716 0 00-.116.33c-.033.23-.026.483-.056.629-.042.039-.916.844-1.582 2.162-.678 1.341-1.105 3.183-.101 5.116l-.071 2.072a.132.132 0 00.054.11s.303.22.823.414a1.475 1.475 0 01-.16.04c-.258.051-.701.081-1.417-.017-1.508-.209-2.763.591-2.763.591l-.262.166.635.157-.354.629.338-.127s1.259-.47 2.836-.176c1.103.218 1.79-.015 2.194-.319.298-.224.332-.38.386-.503.028.142.01.296.295.523.404.321 1.173.55 2.64.312 1.74-.282 2.004-.147 2.757.067l.326.093-.356-.58.584-.171-.236-.159s-1.138-.747-2.885-.408c-.837.163-1.313.127-1.566.06a.75.75 0 01-.18-.069c.32-.09.65-.215.993-.393a.132.132 0 00.072-.117v-2.158c.01-.026.049-.133.106-.337a.132.132 0 00.034-.038s.569-.818.723-2.092c.152-1.258-.123-2.975-1.69-4.78.008-.04.04-.218.046-.446a1.26 1.26 0 00-.038-.372.417.417 0 00-.083-.162.277.277 0 00-.182-.094.348.348 0 00-.287.118.606.606 0 00-.117.265c-.039.17-.047.361-.061.532-.029.018-.066.047-.15.072-.112.033-.221.039-.323-.057a.133.133 0 00-.024-.018c-.042-.18-.062-.376-.093-.55a.961.961 0 00-.088-.295.327.327 0 00-.26-.174zm-.013.263c.02.001.017-.002.039.038.02.039.044.116.06.213.034.193.054.46.135.71a.132.132 0 00.043.063c1.81 1.427 2.295 3.187 2.336 4.604a7.208 7.208 0 01-.296 2.249 6.137 6.137 0 00-2.28-.38c-.756.017-1.463.17-2.03.422-.9-1.813-.497-3.513.147-4.787a8.288 8.288 0 011.56-2.137.132.132 0 00.003-.002.132.132 0 00.038-.066c.002-.01 0-.02.002-.03h.002a.132.132 0 000-.012.132.132 0 000-.002c.04-.203.033-.44.06-.623a.525.525 0 01.068-.212c.027-.038.041-.051.113-.048zm1.394.108c.004 0-.002-.003.004.004s.02.029.03.063c.02.068.027.18.025.293a3.475 3.475 0 01-.045.453.132.132 0 00.031.11c1.573 1.778 1.807 3.425 1.66 4.636a5.108 5.108 0 01-.297 1.202c.052-.367.088-.787.075-1.25-.04-1.377-.517-3.086-2.118-4.512a.73.73 0 00.118-.022.969.969 0 00.277-.135.132.132 0 00.052-.094c.02-.2.029-.42.063-.57a.406.406 0 01.062-.154c.02-.024.022-.027.063-.024zm-2.362.314L0 9.279v.213L6.572 2.92c.126-.14.223-.238.285-.299.003-.049.006-.122.013-.212zm9.13.13l-4.28 4.28c.005.069.008.137.01.204L16 2.753v-.214zm0 1.323L11.613 8.25c-.021.1-.046.191-.071.283L16 4.075v-.213zm-8.668.49V6.205H6.275v1.06h1.057v1.85H8.39v-1.85H9.45v-1.06H8.39V4.353H7.332zm.265.264h.53V6.47h1.058V7H8.127v1.85h-.53V7H6.54v-.53h1.058V4.616zm8.403.57l-5.162 5.162v.213L16 5.398v-.213zm-11.072.488L0 10.602v.213l4.827-4.827c.031-.106.065-.211.1-.314zM16 6.508l-5.162 5.163v.213L16 6.72v-.213zM4.58 7.346L0 11.925v.213l4.57-4.57c.001-.074.004-.149.009-.222zM16 7.83l-4.424 4.424c.075-.005.148-.006.22-.008L16 8.044v-.213zm-11.363.78L0 13.248v.213l4.666-4.666c-.012-.062-.02-.123-.03-.184zM16 9.154l-3.178 3.178c.062.012.114.027.172.04L16 9.368v-.213zM4.91 9.66L0 14.57v.214l1.364-1.365a.488.488 0 01.228-.35l.26-.164.063-.036L4.97 9.813a5.792 5.792 0 01-.06-.153zm2.97.092a5.941 5.941 0 011.992.29c.068.023.136.05.203.075a.132.132 0 00-.001.019v.346a6.125 6.125 0 00-2.281-.381 5.476 5.476 0 00-1.886.362l.01-.3C6.45 9.92 7.14 9.77 7.88 9.752zm-.074.628a5.993 5.993 0 012.268.397v.658a6.133 6.133 0 00-2.25-.37c-.72.017-1.398.157-1.95.389l.023-.699c.523-.227 1.192-.363 1.909-.375zm8.194.097l-2.168 2.168c.063.028.1.044.146.067L16 10.69v-.213zm-10.867.284l-1.5 1.5c.08-.013.162-.024.246-.033l1.247-1.247.007-.22zm2.693.573a5.868 5.868 0 012.248.383v.495c-2.4 1.198-4.144-.045-4.223-.103l.013-.363c.531-.245 1.222-.396 1.962-.412zM16 11.8l-1.4 1.4a.494.494 0 01.035.177L16 12.013V11.8zm-10.915.331l-.108.108c.056.004.072-.005.138.002-.002-.025-.032-.038-.031-.063v-.008l.001-.039zm1.72.691c.274.078.587.14.935.162a1.27 1.27 0 01-.39.459c-.343.257-.938.478-1.985.27h-.002c-1.357-.251-2.303.003-2.665.115l.197-.354-.303-.074a3.675 3.675 0 012.256-.404c.737.102 1.211.073 1.506.015.147-.029.25-.066.318-.098a.573.573 0 00.112-.066.132.132 0 00.022-.025zm2.152.074c0 .001.04.06.105.107.067.049.17.102.325.143.308.081.82.11 1.683-.057 1.295-.252 2.036.064 2.373.236l-.293.088.235.38c-.622-.178-1.008-.325-2.598-.067-1.428.231-2.11-.001-2.434-.258-.233-.186-.292-.377-.309-.472.286 0 .593-.033.913-.1zm7.043.227L13.123 16h.213L16 13.336v-.213zM1.646 14.248L0 15.894V16h.106l1.565-1.565a.48.48 0 01-.025-.187zm6.58.034L6.508 16h.213l1.648-1.648c-.051-.021-.096-.046-.143-.07zm4.032.037c-.031 0-.073.005-.107.007L10.477 16h.213l1.68-1.68c-.038 0-.07-.003-.112-.001zm-8.046.058c-.019 0-.034.003-.053.003L2.54 16h.213l1.617-1.617c-.052-.001-.107-.006-.157-.006zM16 14.446L14.446 16h.213L16 14.66v-.213zm-9.056.008a3.024 3.024 0 01-.269.056L5.185 16h.213l1.546-1.546zm3.939.03c-.086.014-.164.022-.245.032L9.154 16h.213l1.516-1.516zm-5.51.005L3.863 16h.212l1.483-1.483c-.06-.007-.123-.018-.185-.028zm7.933.005L11.8 16h.213l1.457-1.458-.023-.006a11.038 11.038 0 01-.141-.042zM2.88 14.55c-.144.039-.227.068-.227.068l-.086.033L1.217 16h.212l1.45-1.45zm6.391.01L7.831 16h.213l1.423-1.423c-.068-.004-.131-.01-.196-.017zm6.73 1.21l-.232.231h.212l.02-.019v-.212z" color="#000" font-weight="400" font-family="sans-serif" overflow="visible"/></svg>