<svg xmlns="http://www.w3.org/2000/svg" width="16mm" height="16mm" viewBox="0 0 16 16"><path style="line-height:normal;font-variant-ligatures:normal;font-variant-position:normal;font-variant-caps:normal;font-variant-numeric:normal;font-variant-alternates:normal;font-feature-settings:normal;text-indent:0;text-align:start;text-decoration-line:none;text-decoration-style:solid;text-decoration-color:#000;text-transform:none;text-orientation:mixed;white-space:normal;shape-padding:0;isolation:auto;mix-blend-mode:normal;solid-color:#000;solid-opacity:1" d="M.019 0L0 .019v.213L.232 0H.019zm1.323 0L0 1.342v.212L1.554 0h-.212zm1.322 0L0 2.664v.213L2.877 0h-.213zm1.323 0L0 3.987V4.2L4.2 0h-.213zM5.31 0L0 5.31v.213L5.523 0H5.31zm1.323 0L0 6.633v.213L6.846 0h-.213zm1.323 0L0 7.956v.213l2.695-2.695c.14-.194.314-.374.53-.53L8.168 0h-.213zM9.28 0l-4.32 4.32c.062-.005.124-.014.185-.016h.044L9.492 0h-.213zm1.323 0L7.839 2.763c.009 0 .019-.005.028-.005h.19L10.814 0h-.213zm1.323 0L8.684 3.241c.002.015.007.033.008.047.002.017-.002.025 0 .041.03.006.06.011.095.022L12.137 0h-.212zm1.323 0L9.13 4.117a.558.558 0 01-.133.322l.014.01L13.46 0h-.213zm1.323 0l-4.348 4.348c.08-.015.161-.023.244-.031L14.784 0h-.213zm1.323 0L11.5 4.394c.055.013.11.03.166.046L16 .106V0h-.106zM16 1.216l-3.536 3.537c.046.025.091.05.135.077L16 1.43v-.214zm0 1.323l-2.798 2.799c.033.039.061.08.091.121L16 2.752V2.54zm-8.133.72v.593h-.498v.264h.498v.473c-.29.02-.508.121-.635.285-.146.186-.18.42-.172.642.002.051.006.1.012.15a2.571 2.571 0 00-.92-.687 2.269 2.269 0 00-.988-.176 3.392 3.392 0 00-1.217.301c-.692.305-1.028.767-1.102 1.27-.073.502.1 1.028.35 1.508.485.934 1.247 1.666 1.289 1.707.004.022.068.41.053.896-.016.5-.13 1.06-.444 1.338l.037.22s1.559.665 3.87.698c2.31-.033 3.869-.697 3.869-.697l.037-.22c-.313-.278-.427-.84-.443-1.339-.016-.486.049-.874.053-.896.042-.041.803-.773 1.288-1.707.25-.48.423-1.006.35-1.508-.073-.503-.41-.965-1.102-1.27a3.392 3.392 0 00-1.216-.3 2.269 2.269 0 00-.989.175c-.365.156-.668.4-.92.687.006-.05.01-.099.013-.15.007-.221-.026-.456-.172-.642-.128-.164-.345-.266-.635-.285v-.473h.498v-.264h-.498V3.26h-.266zm-.563.038l-.05.052c.018-.004.033-.005.051-.008.002-.016 0-.028 0-.044zm-.41.411l-.74.74c.052.018.105.036.156.057l.558-.558v-.095a.5.5 0 01.026-.144zM16 3.862L13.633 6.23c.004.024.012.047.016.071.005.04.007.077.01.115L16 4.076v-.214zm-8 .982c.235 0 .41.093.559.191.09.115.123.287.117.473-.013.373-.181.772-.181.772-.22.379-.379.77-.494 1.121l-.497-1.12.001-.001s-.168-.4-.18-.772c-.007-.186.026-.358.116-.473.23-.152.326-.193.559-.19zm-2.83.221c.33-.013.62.047.876.156.514.22.906.649 1.197 1.133.556.922.733 2.456.749 2.604-1.954.01-3.333.407-3.361.415-.17-.172-.795-.83-1.202-1.613-.235-.453-.383-.933-.322-1.349.06-.416.312-.785.945-1.065.419-.181.789-.267 1.118-.28zm5.56.014c.43-.002.851.111 1.217.267.634.28.885.649.946 1.065.06.416-.087.896-.323 1.35-.407.783-1.031 1.44-1.201 1.612-.029-.009-1.408-.404-3.362-.415.016-.148.194-1.682.75-2.604.29-.484.683-.913 1.196-1.133.256-.099.519-.141.777-.142zm5.27.106l-2.6 2.6a5.158 5.158 0 01-.152.327c-.015.03-.032.056-.047.085L16 5.398v-.213zm0 1.323l-4.03 4.03c.004.065.01.13.02.193L16 6.721v-.213zm-13.65.42L0 9.28v.213l2.38-2.38a2.643 2.643 0 01-.03-.184zM16 7.831l-3.724 3.724.055.158 3.67-3.669v-.213zm-13.332.103L0 10.602v.213l2.736-2.736c-.024-.047-.045-.097-.068-.145zm.482.841L0 11.925v.213L3.238 8.9a6.834 6.834 0 01-.088-.125zM16 9.154L9.154 16h.213L16 9.367v-.213zm-8 .064c1.768.008 3.05.342 3.246.395a4.87 4.87 0 00-.048.646c-.273-.104-1.398-.487-3.197-.486-1.798 0-2.927.382-3.2.486a4.852 4.852 0 00-.047-.646C4.949 9.56 6.23 9.226 8 9.218zm-4.268.298L0 13.248v.213l3.833-3.833c-.033-.035-.063-.07-.1-.112zm4.27.517c1.945.001 3.123.475 3.2.508.01.167.035.338.08.506-.165-.031-.781-.143-1.885-.21a23.836 23.836 0 00-2.793 0c-1.104.067-1.72.179-1.885.21.045-.168.07-.339.079-.506.078-.033 1.257-.508 3.203-.508zm7.998.444L10.477 16h.213L16 10.69v-.213zm-11.97.064L0 14.571v.213l4.004-4.005c.013-.077.02-.157.025-.238zm3.961.52c2.06.001 3.384.272 3.388.273.063.151.142.295.237.426-.18-.039-.96-.197-2.17-.283-.43-.03-.91-.05-1.45-.05-.538 0-1.013.02-1.442.05-1.21.086-1.99.244-2.17.283.094-.131.174-.275.236-.426.004 0 1.31-.273 3.371-.273zm.006.64c1.612 0 2.785.17 3.287.259-.559.187-1.734.505-3.284.526-1.551-.02-2.726-.34-3.284-.526.501-.09 1.669-.258 3.28-.258zM16 11.8L11.8 16h.213L16 12.013V11.8zm-12.306.4L0 15.893V16h.106l3.682-3.682-.094-.119zm.818.505L1.216 16h.213l3.247-3.247-.164-.048zm6.767.06c-.093.027-.186.053-.294.08L7.831 16h.213l3.235-3.235zm-5.713.208L2.54 16h.213l2.992-2.991-.178-.036zm4.038.144c-.076.01-.16.017-.24.027L6.508 16h.213l2.883-2.883zm6.396.006L13.123 16h.213L16 13.336v-.213zm-9.29.03L3.862 16h.213l2.826-2.826-.19-.022zm1.452.083l-.155.005h-.015l-.046-.001L5.186 16h.212l2.764-2.764zM16 14.446L14.446 16h.213L16 14.66v-.213zm0 1.323L15.77 16h.212l.02-.019v-.212z" color="#000" font-weight="400" font-family="sans-serif" overflow="visible"/></svg>