<svg xmlns="http://www.w3.org/2000/svg" width="16mm" height="16mm" viewBox="0 0 16 16"><path style="line-height:normal;font-variant-ligatures:normal;font-variant-position:normal;font-variant-caps:normal;font-variant-numeric:normal;font-variant-alternates:normal;font-feature-settings:normal;text-indent:0;text-align:start;text-decoration-line:none;text-decoration-style:solid;text-decoration-color:#000;text-transform:none;text-orientation:mixed;white-space:normal;shape-padding:0;isolation:auto;mix-blend-mode:normal;solid-color:#000;solid-opacity:1" d="M7.867 3.259v.593h-.498v.264h.498v.473c-.29.02-.507.121-.635.285-.146.186-.18.42-.172.642.002.051.006.1.012.15a2.571 2.571 0 00-.92-.687 2.269 2.269 0 00-.988-.176 3.392 3.392 0 00-1.217.301c-.692.305-1.028.767-1.101 1.27-.074.502.1 1.028.35 1.508.485.934 1.246 1.666 1.288 1.707.004.022.069.41.053.896-.016.5-.13 1.06-.443 1.338l.037.22s1.558.665 3.869.698c2.31-.033 3.87-.697 3.87-.697l.036-.221c-.313-.277-.427-.838-.443-1.338-.016-.486.05-.874.053-.896.042-.041.803-.773 1.289-1.707.249-.48.423-1.006.35-1.508-.074-.503-.41-.965-1.102-1.27a3.392 3.392 0 00-1.217-.3 2.269 2.269 0 00-.988.175c-.365.156-.668.4-.92.687.005-.05.01-.099.012-.15.008-.221-.026-.456-.172-.642-.128-.164-.345-.266-.635-.285v-.473h.498v-.264h-.498V3.26zM8 4.844c.235 0 .41.093.559.191.09.115.124.287.117.473a2.545 2.545 0 01-.181.772c-.22.379-.378.77-.494 1.121l-.496-1.12V6.28s-.168-.4-.181-.772c-.007-.186.027-.358.117-.473.23-.152.325-.193.56-.19zm-2.83.221c.33-.013.62.047.876.156.514.22.906.649 1.198 1.133.555.922.732 2.456.748 2.604-1.954.01-3.332.407-3.361.415-.17-.172-.795-.83-1.202-1.613-.235-.453-.383-.933-.322-1.349.06-.416.312-.785.946-1.065.418-.181.788-.267 1.117-.28zm5.56.014c.431-.002.852.111 1.217.267.634.28.885.649.946 1.065.06.416-.087.896-.322 1.35-.407.783-1.032 1.44-1.202 1.612-.029-.009-1.408-.404-3.362-.415.016-.148.194-1.682.75-2.604.29-.484.683-.913 1.197-1.133.256-.099.518-.141.776-.142zM8 9.218c1.768.008 3.05.342 3.246.395a4.87 4.87 0 00-.047.646c-.273-.104-1.4-.487-3.198-.486-1.798 0-2.927.382-3.2.486a4.852 4.852 0 00-.047-.646C4.95 9.56 6.232 9.226 8 9.218zm0 .815c1.947.001 3.125.475 3.203.508.008.167.033.338.079.506-.165-.031-.782-.143-1.885-.21a23.836 23.836 0 00-2.794 0c-1.103.067-1.72.179-1.885.21.046-.168.07-.339.08-.506.077-.033 1.257-.508 3.203-.508zm-.009 1.028c2.061.001 3.384.272 3.388.273.063.151.142.295.237.426-.18-.039-.96-.197-2.17-.283-.429-.03-.91-.05-1.45-.05-.538 0-1.013.02-1.442.05-1.21.086-1.99.244-2.17.283.095-.131.174-.275.237-.426.004 0 1.31-.273 3.37-.273zm.006.64c1.613 0 2.786.17 3.287.259-.558.187-1.733.505-3.284.526-1.551-.02-2.726-.34-3.284-.526.501-.09 1.669-.259 3.281-.259z" color="#000" font-weight="400" font-family="sans-serif" overflow="visible"/></svg>