<svg xmlns="http://www.w3.org/2000/svg" width="16mm" height="16mm" viewBox="0 0 16 16"><path style="line-height:normal;font-variant-ligatures:normal;font-variant-position:normal;font-variant-caps:normal;font-variant-numeric:normal;font-variant-alternates:normal;font-feature-settings:normal;text-indent:0;text-align:start;text-decoration-line:none;text-decoration-style:solid;text-decoration-color:#000;text-transform:none;text-orientation:mixed;white-space:normal;shape-padding:0;isolation:auto;mix-blend-mode:normal;solid-color:#000;solid-opacity:1" d="M7.867 3.259v.593h-.498v.264h.498v.473c-.29.02-.507.121-.635.285-.146.186-.18.42-.172.642.002.051.006.1.012.15a2.571 2.571 0 00-.92-.687 2.269 2.269 0 00-.988-.176 3.393 3.393 0 00-1.217.301c-.692.305-1.028.767-1.101 1.27-.074.502.1 1.028.35 1.508.485.934 1.246 1.666 1.288 1.707.004.022.068.41.053.896-.016.5-.13 1.06-.443 1.338l.037.22s1.558.665 3.869.698c2.31-.033 3.87-.697 3.87-.697l.036-.221c-.313-.277-.427-.838-.443-1.338-.016-.486.05-.874.053-.896.042-.041.803-.773 1.289-1.707.249-.48.423-1.006.35-1.508-.074-.503-.41-.965-1.102-1.27a3.392 3.392 0 00-1.217-.3 2.269 2.269 0 00-.988.175c-.365.156-.669.4-.92.687.006-.05.01-.099.012-.15.008-.221-.026-.456-.172-.642-.128-.164-.345-.266-.635-.285v-.473h.498v-.264h-.498V3.26zM8 4.844c.235 0 .41.093.559.191.09.115.124.287.117.473-.013.373-.181.772-.181.772-.22.379-.378.77-.494 1.121l-.496-1.12V6.28s-.168-.4-.181-.772c-.006-.186.027-.358.117-.473.23-.152.325-.193.56-.19zm.03.21c-.908 0-.04 1.744-.04 1.744.208-.608.814-1.745.04-1.745zm-2.86.011c.33-.013.62.047.876.156.514.22.906.649 1.198 1.133.555.922.732 2.456.748 2.604-1.954.01-3.332.407-3.361.415-.17-.172-.795-.83-1.202-1.613-.235-.453-.383-.933-.322-1.349.06-.416.312-.785.946-1.065.418-.181.788-.267 1.117-.28zm5.56.014a3.1 3.1 0 011.217.267c.634.28.885.649.946 1.065.06.416-.087.896-.322 1.35-.407.783-1.032 1.44-1.202 1.612-.028-.008-1.408-.404-3.362-.415.016-.149.194-1.682.75-2.604.29-.484.683-.913 1.197-1.133.256-.099.518-.141.776-.142zm.045.347c-.492-.003-1.047.102-1.56.867-.264.355-.753 1.512-.796 2.373.986.082 1.85.194 2.824.362.376-.448.798-1 1.053-1.575.136-.314.218-.653.195-.895-.036-.377-.275-.64-.441-.774-.35-.282-.815-.356-1.275-.358zM5.24 5.44c-.46.002-.924.077-1.274.359-.167.133-.406.397-.441.774-.023.241.058.58.194.895.256.574.678 1.127 1.054 1.575.973-.168 1.838-.28 2.824-.362-.043-.86-.532-2.018-.796-2.374-.513-.764-1.069-.87-1.56-.867zM8 9.218H8c1.768.008 3.05.342 3.246.395a4.87 4.87 0 00-.047.646c-.273-.104-1.4-.487-3.198-.486-1.798 0-2.927.382-3.2.486a4.765 4.765 0 00-.047-.646C4.95 9.56 6.232 9.226 8 9.218zm-.007 1.843c2.06.002 3.384.272 3.388.273.062.151.142.295.236.426-.18-.039-.96-.197-2.17-.283-.429-.03-.91-.05-1.449-.05s-1.014.02-1.442.05c-1.21.086-1.99.244-2.17.283.094-.131.173-.275.236-.426.004 0 1.31-.273 3.37-.273z" color="#000" font-weight="400" font-family="sans-serif" overflow="visible"/></svg>