<svg xmlns="http://www.w3.org/2000/svg" width="16mm" height="16mm" viewBox="0 0 16 16"><path style="line-height:normal;font-variant-ligatures:normal;font-variant-position:normal;font-variant-caps:normal;font-variant-numeric:normal;font-variant-alternates:normal;font-feature-settings:normal;text-indent:0;text-align:start;text-decoration-line:none;text-decoration-style:solid;text-decoration-color:#000;text-transform:none;text-orientation:mixed;white-space:normal;shape-padding:0;isolation:auto;mix-blend-mode:normal;solid-color:#000;solid-opacity:1" d="M5.052 2.865l.006.291s.008 1.239-.332 1.942l-.001.008-.003.006c-.252.693-.835 1.745-1.353 2.615-.519.87-.973 1.562-.973 1.562l-.013.024-.007.025c-.152.87.04 1.337.305 1.566a.847.847 0 00.548.207c.036.014.388.149.776.155.204.003.42-.031.592-.163.149-.113.211-.331.227-.581.838-.556 1.646-1.656 1.678-1.7.42.097.783.083 1.061-.047l.015.053s.071.264-.016.666-.332.931-1 1.44c-.708.538-1.03 1.05-1.172 1.435-.141.385-.098.658-.098.658l.02.108 8.365-.016-.004-.137c-.124-4.381-1.616-6.656-3.09-7.82-1.362-1.076-2.66-1.196-2.856-1.209-.15-.475-.339-.732-.526-.867a.662.662 0 00-.344-.13.5.5 0 00-.166.017l-.086.03-.002.093-.022.836a1.72 1.72 0 00-.313-.042l-.016-.013zm3.339 2.793l.016.131s.12.908-.059 1.75c-.06.285-.157.565-.31.801.014-.014.024-.023.038-.039.26-.289.595-.772.891-1.55l.047-.124.248.094-.047.125c-.306.805-.662 1.32-.943 1.633-.246.274-.395.35-.442.377l-.222-.415c.246-.212.4-.567.482-.957.166-.779.055-1.662.055-1.662l-.018-.13zm-2.386.379c.06-.002.122 0 .187.007l.132.013-.027.264-.131-.014a1.23 1.23 0 00-.158-.007.334.334 0 01.052.055c.108.451-.228.627-.588.74-.442.037-.446-.18-.446-.18l.001-.01-.05.092-.053.121-.242-.106.052-.12s.103-.241.334-.464c.203-.195.516-.382.937-.392zm-2.57 3.167c.094-.002.18.235.183.39.004.138-.074.46-.154.473-.077-.004-.24-.345-.248-.484.01-.211.028-.354.219-.379zm.676.599l.258.06-.03.13s-.125.602-.533.986a5.148 5.148 0 01-.337-.073c.425-.258.612-.974.612-.974z" color="#000" font-weight="400" font-family="sans-serif" overflow="visible"/></svg>