<svg xmlns="http://www.w3.org/2000/svg" width="16mm" height="16mm" viewBox="0 0 16 16"><path style="line-height:normal;font-variant-ligatures:normal;font-variant-position:normal;font-variant-caps:normal;font-variant-numeric:normal;font-variant-alternates:normal;font-feature-settings:normal;text-indent:0;text-align:start;text-decoration-line:none;text-decoration-style:solid;text-decoration-color:#000;text-transform:none;text-orientation:mixed;white-space:normal;shape-padding:0;isolation:auto;mix-blend-mode:normal;solid-color:#000;solid-opacity:1" d="M.019 0L0 .019v.213L.232 0H.019zm1.323 0L0 1.342v.212L1.554 0h-.212zm1.322 0L0 2.664v.213L2.877 0h-.213zm1.323 0L0 3.987V4.2L4.2 0h-.213zM5.31 0L0 5.31v.213L5.523 0H5.31zm1.323 0L4.711 1.922l.115.098L6.846 0h-.213zm1.323 0L5.428 2.528l.116.097L8.169 0h-.213zM9.28 0L6.821 2.458c.022 0 .043-.002.066 0h.001c.042.002.086.008.13.016L9.492 0h-.213zm1.323 0L7.697 2.905c.03.041.06.08.086.127L10.815 0h-.213zm1.323 0l-3.56 3.56c.056.01.113.023.176.037L12.138 0h-.213zm1.323 0l-3.87 3.87c.05.021.098.038.151.062L13.461 0h-.213zm1.323 0l-4.323 4.322c.045.028.088.05.133.08L14.784 0h-.213zm1.323 0l-4.876 4.875c.04.032.078.064.116.097L16 .106V0h-.106zM16 1.216l-4.306 4.306c.034.037.069.073.102.111L16 1.43v-.213zm-11.464.881L0 6.633v.213l4.54-4.54-.004-.209zM16 2.539l-3.717 3.717c.03.041.058.083.087.126L16 2.752V2.54zm-10.948.326l.007.29s.007 1.24-.333 1.942l-.001.009-.003.005c-.252.694-.836 1.746-1.354 2.616-.518.87-.972 1.562-.972 1.562l-.014.024-.006.025c-.152.87.04 1.337.305 1.566a.847.847 0 00.548.207c.036.014.388.148.776.154.204.003.42-.03.592-.162.148-.113.21-.332.226-.582.839-.556 1.647-1.655 1.678-1.699.42.096.784.083 1.062-.046l.014.052s.072.265-.015.667-.332.93-1 1.439c-.708.538-1.03 1.05-1.172 1.435-.142.385-.098.659-.098.659l.02.107 8.365-.015-.003-.137c-.125-4.382-1.616-6.656-3.09-7.82-1.363-1.077-2.661-1.197-2.856-1.21-.15-.474-.34-.731-.527-.867a.662.662 0 00-.344-.13c-.092-.007-.166.017-.166.017l-.086.031-.002.092-.023.837a1.72 1.72 0 00-.312-.042l-.017-.014-1.199-1.012zm-.501.54L0 7.956v.213l4.534-4.534c.006-.081.014-.167.017-.23zM16 3.862l-3.212 3.211.075.138L16 4.075v-.213zM4.185 5.093L0 9.28v.213l4.026-4.026c.064-.138.113-.256.16-.373zM16 5.185l-2.785 2.786.063.15L16 5.397v-.213zm-7.609.473l.016.13s.12.909-.059 1.75c-.06.286-.157.566-.31.802l.039-.04c.259-.288.595-.771.89-1.548l.047-.125.248.094-.047.125c-.306.805-.662 1.319-.943 1.633-.246.274-.395.35-.441.377l-.223-.415c.246-.212.4-.567.482-.957.167-.78.055-1.662.055-1.662l-.017-.13.263-.034zm-2.386.378c.06-.002.122.002.187.008l.133.013-.028.264-.131-.014a1.232 1.232 0 00-.158-.007.334.334 0 01.052.055c.109.451-.228.627-.587.74-.442.036-.446-.18-.446-.18v-.01c-.026.045-.05.091-.05.091l-.053.122-.242-.106.053-.12s.102-.241.333-.464c.203-.195.516-.382.937-.392zM16 6.508l-2.437 2.437.049.165L16 6.72v-.213zm0 1.323l-2.164 2.164c.012.058.022.12.034.18L16 8.043v-.213zm-13.366.137L0 10.602v.213L2.295 8.52c.091-.145.222-.362.339-.552zM16 9.154l-1.973 1.973.026.187L16 9.367v-.213zm-12.565.05c.094-.002.18.235.183.39.004.138-.074.46-.154.473-.077-.004-.24-.345-.248-.485.011-.21.028-.353.219-.378zm3.383.085c-.028 0-.055.005-.084.002a8.689 8.689 0 01-.336.418l.42-.42zm-2.707.514l.258.06-.03.13s-.124.602-.533.986a5.148 5.148 0 01-.337-.073c.425-.258.612-.974.612-.974l.03-.13zm-2.267.278L0 11.925v.213l1.873-1.873a2.199 2.199 0 01-.029-.184zM16 10.477l-1.857 1.857.01.203L16 10.69v-.213zm-10.487.117c-.102.085-.208.169-.32.25l-.016.085.336-.335zm-3.304.445L0 13.248v.213l2.289-2.29c-.007-.013-.012-.028-.021-.038l-.096-.024.06-.037-.023-.033zm.778.545L0 14.57v.213l3.164-3.165c-.018-.006-.027-.008-.041-.014-.04-.003-.085-.012-.136-.021zm1.39.146a1.632 1.632 0 01-.244.03L0 15.895V16h.106l4.27-4.27zM16 11.8l-1.807 1.807v.012h-.012L11.8 16h.213L16 12.013V11.8zm-11.126.542L1.216 16h.213l3.389-3.388c.012-.086.028-.172.056-.27zm11.126.78L13.123 16h.213L16 13.336v-.213zm-3.144.5L10.476 16h.214l2.378-2.379h-.212zm-1.113.001l-.213.001L9.154 16h.213l2.376-2.377zm-1.325.003h-.213L7.831 16h.213l2.374-2.374zm-1.324.002H8.88L6.508 16h.213l2.373-2.372zm-1.539.002L5.185 16h.213l2.37-2.37h-.213zm-1.112.002H6.23L3.862 16h.213l2.368-2.368zm-1.325.002h-.213L2.539 16h.213l2.366-2.366zM16 14.446L14.446 16h.213L16 14.66v-.213zm0 1.323L15.77 16h.212l.02-.019v-.212z" color="#000" font-weight="400" font-family="sans-serif" overflow="visible"/></svg>