<svg xmlns="http://www.w3.org/2000/svg" width="16mm" height="16mm" viewBox="0 0 16 16"><path style="line-height:normal;font-variant-ligatures:normal;font-variant-position:normal;font-variant-caps:normal;font-variant-numeric:normal;font-variant-alternates:normal;font-feature-settings:normal;text-indent:0;text-align:start;text-decoration-line:none;text-decoration-style:solid;text-decoration-color:#000;text-transform:none;text-orientation:mixed;white-space:normal;shape-padding:0;isolation:auto;mix-blend-mode:normal;solid-color:#000;solid-opacity:1" d="M.019 0L0 .019v.213L.232 0H.019zm1.323 0L0 1.342v.212L1.554 0h-.212zm1.322 0L0 2.664v.213L2.877 0h-.213zm1.323 0L0 3.987V4.2L4.2 0h-.213zM5.31 0L0 5.31v.213L5.523 0H5.31zm1.323 0L4.711 1.922l.115.098L6.846 0h-.213zm1.323 0L5.428 2.528l.116.097L8.169 0h-.213zM9.28 0L6.821 2.458c.022 0 .043-.002.066 0h.001c.042.002.086.008.13.016L9.492 0h-.213zm1.323 0L7.697 2.905c.03.041.06.08.086.127L10.815 0h-.213zm1.323 0l-3.56 3.56c.056.01.113.023.176.037L12.138 0h-.213zm1.323 0l-3.87 3.87c.05.021.098.038.151.062L13.461 0h-.213zm1.323 0l-4.323 4.322c.045.028.088.05.133.08L14.784 0h-.213zm1.323 0l-4.876 4.875c.04.032.078.064.116.097L16 .106V0h-.106zM16 1.216l-4.306 4.306c.034.037.069.073.102.111L16 1.43v-.213zm-11.464.881L0 6.633v.213l4.54-4.54-.004-.209zM16 2.539l-3.717 3.717c.03.041.058.083.087.126L16 2.752V2.54zm-10.948.326l.007.29s.008 1.24-.333 1.942l-.002.009-.002.005c-.252.694-.836 1.746-1.354 2.616-.518.87-.972 1.562-.972 1.562l-.014.024-.006.025c-.152.87.04 1.337.305 1.566a.847.847 0 00.548.207c.036.014.388.148.776.154.204.003.42-.03.592-.162.148-.113.21-.331.226-.581.839-.556 1.647-1.656 1.678-1.7.42.097.784.083 1.062-.046l.015.052s.071.265-.016.667-.332.93-1 1.439c-.707.538-1.03 1.05-1.172 1.435-.141.385-.098.659-.098.659l.02.107 8.365-.015-.003-.137c-.125-4.382-1.616-6.656-3.09-7.82-1.363-1.077-2.661-1.197-2.856-1.21-.15-.474-.34-.731-.527-.867a.662.662 0 00-.344-.13c-.092-.007-.166.017-.166.017l-.086.031-.002.092-.022.837a1.72 1.72 0 00-.313-.042l-.016-.014-1.2-1.012zm1.811.363a.348.348 0 01.182.073c.171.124.416.456.566 1.295l.022.128.261-.046-.023-.13a5.558 5.558 0 00-.068-.322c.356.038 1.447.221 2.617 1.145 1.393 1.1 2.82 3.26 2.972 7.482l-7.822.019c-.006-.06-.029-.147.068-.41.123-.335.41-.804 1.084-1.317.714-.543.999-1.137 1.098-1.594.087-.402.025-.627.01-.695.046-.028.191-.103.437-.377.281-.313.637-.827.944-1.633l.047-.125-.248-.093-.047.124c-.296.777-.632 1.26-.891 1.55-.014.015-.025.024-.038.039.152-.236.249-.517.31-.802.18-.842.058-1.75.058-1.75l-.015-.13-.264.033.018.13s.111.883-.055 1.663c-.083.39-.236.745-.483.956-.246.212-.59.303-1.136.143l-.09-.025-.055.074s-.88 1.186-1.666 1.691l-.062.041.002.077c.01.254-.058.376-.159.453-.1.077-.257.108-.427.105a1.629 1.629 0 01-.205-.02c.408-.383.533-.986.533-.986l.03-.128-.259-.061-.03.129s-.187.716-.612.974l-.168-.052-.027-.01-.03.001s-.205.014-.386-.144c-.18-.156-.35-.504-.215-1.305.02-.03.445-.68.955-1.535.518-.87 1.1-1.914 1.369-2.648V5.21a3.2 3.2 0 00.267-.943 4.27 4.27 0 01.512-.09c.277-.034.6-.034.83.033l-.006.197-.004.133.266.008.004-.133.03-1.187zm-1.584.174l.591.5c-.053.004-.107.007-.157.014a4.793 4.793 0 00-.453.075c.02-.262.02-.486.02-.59zm-.728.003L0 7.956v.213l4.534-4.534c.006-.081.014-.167.017-.23zM16 3.862l-3.212 3.211.075.138L16 4.075v-.213zM4.185 5.093L0 9.28v.213l4.026-4.026c.064-.138.113-.256.16-.373zM16 5.185l-2.785 2.786.063.15L16 5.397v-.213zm-9.994.852c-.42.01-.733.197-.936.392-.232.223-.334.463-.334.463l-.053.121.243.106.053-.121s.024-.047.05-.092v.01s.003.216.445.18c.36-.113.696-.289.588-.74a.33.33 0 00-.053-.055c.051 0 .104.002.159.008l.13.014.028-.264-.133-.014a1.495 1.495 0 00-.187-.007zM16 6.508l-2.437 2.437.049.165L16 6.72v-.213zm0 1.323l-2.164 2.164c.012.058.022.12.034.18L16 8.043v-.213zm-13.366.137L0 10.602v.213L2.295 8.52c.091-.145.222-.362.339-.552zM16 9.154l-1.973 1.973.026.187L16 9.367v-.213zm-12.565.053c-.19.025-.208.168-.219.378.008.14.171.48.248.485.08-.013.158-.335.154-.473-.002-.155-.089-.392-.183-.39zm3.383.082c-.028 0-.055.005-.084.002a8.689 8.689 0 01-.336.418l.42-.42zm-4.974.792L0 11.925v.213l1.873-1.873a2.199 2.199 0 01-.029-.184zM16 10.477l-1.857 1.857.01.203L16 10.69v-.213zm-10.487.117c-.102.085-.208.169-.32.25l-.016.085.336-.335zm-3.304.445L0 13.248v.213l2.289-2.29c-.007-.013-.012-.028-.021-.038l-.096-.024.06-.037-.023-.033zm.778.545L0 14.57v.213l3.164-3.165c-.018-.006-.027-.008-.041-.014-.04-.003-.085-.012-.136-.021zm1.39.146a1.632 1.632 0 01-.244.03L0 15.895V16h.106l4.27-4.27zM16 11.8l-1.807 1.807v.012h-.012L11.8 16h.213L16 12.013V11.8zm-11.126.542L1.216 16h.213l3.389-3.388c.012-.086.028-.172.056-.27zm11.126.78L13.123 16h.213L16 13.336v-.213zm-3.144.5L10.476 16h.214l2.378-2.379h-.212zm-1.113.001l-.213.001L9.154 16h.213l2.376-2.377zm-1.325.003h-.213L7.831 16h.213l2.374-2.374zm-1.324.002H8.88L6.508 16h.213l2.373-2.372zm-1.539.002L5.185 16h.213l2.37-2.37h-.213zm-1.112.002H6.23L3.862 16h.213l2.368-2.368zm-1.325.002h-.213L2.539 16h.213l2.366-2.366zM16 14.446L14.446 16h.213L16 14.66v-.213zm0 1.323L15.77 16h.212l.02-.019v-.212z" color="#000" font-weight="400" font-family="sans-serif" overflow="visible"/></svg>