<svg xmlns="http://www.w3.org/2000/svg" width="16mm" height="16mm" viewBox="0 0 16 16"><path style="line-height:normal;font-variant-ligatures:normal;font-variant-position:normal;font-variant-caps:normal;font-variant-numeric:normal;font-variant-alternates:normal;font-feature-settings:normal;text-indent:0;text-align:start;text-decoration-line:none;text-decoration-style:solid;text-decoration-color:#000;text-transform:none;text-orientation:mixed;white-space:normal;shape-padding:0;isolation:auto;mix-blend-mode:normal;solid-color:#000;solid-opacity:1" d="M5.052 2.865l.006.291s.008 1.239-.332 1.942l-.002.008-.002.006c-.252.693-.836 1.745-1.354 2.615-.518.87-.972 1.562-.972 1.562l-.014.024-.006.025c-.152.87.04 1.337.305 1.566a.847.847 0 00.548.207c.036.014.388.149.776.155.204.003.42-.031.592-.163.149-.113.211-.331.227-.581.838-.556 1.646-1.656 1.678-1.7.42.097.783.083 1.061-.047l.015.053s.071.264-.016.666-.332.931-1 1.44c-.708.538-1.03 1.05-1.172 1.435-.141.385-.098.658-.098.658l.02.108 8.365-.016-.004-.137c-.124-4.381-1.616-6.656-3.09-7.82-1.362-1.076-2.66-1.196-2.855-1.209-.15-.475-.34-.732-.527-.867a.662.662 0 00-.344-.13c-.092-.007-.166.017-.166.017l-.086.03-.002.093-.022.836a1.72 1.72 0 00-.313-.042l-.016-.013zm1.811.363a.348.348 0 01.182.073c.172.124.416.457.566 1.295l.022.128.261-.046-.023-.13a5.558 5.558 0 00-.068-.322c.356.039 1.447.221 2.617 1.145 1.394 1.101 2.82 3.26 2.972 7.483l-7.822.017c-.006-.06-.028-.146.069-.41.122-.335.409-.803 1.083-1.316.714-.543.999-1.137 1.098-1.594.087-.402.025-.627.01-.695.046-.028.191-.103.437-.377.282-.314.637-.828.944-1.633l.047-.125-.248-.094-.047.125c-.296.777-.632 1.26-.891 1.55l-.038.038c.153-.235.249-.516.31-.801.18-.842.058-1.75.058-1.75l-.015-.13-.264.032.018.131s.111.883-.055 1.663c-.083.39-.236.745-.483.956-.246.212-.59.303-1.136.143l-.09-.025-.055.074s-.88 1.186-1.666 1.691l-.062.041.002.077c.01.254-.058.376-.158.453-.101.077-.257.108-.428.105a1.629 1.629 0 01-.205-.02c.408-.383.533-.986.533-.986l.03-.129-.259-.06-.03.129s-.187.716-.612.974a13.458 13.458 0 01-.169-.052l-.026-.01-.03.002s-.205.013-.386-.145c-.18-.155-.35-.504-.215-1.304.02-.03.445-.68.955-1.536.518-.87 1.1-1.913 1.369-2.648V5.21a3.2 3.2 0 00.267-.942c.055-.014.243-.06.512-.091.277-.033.6-.034.83.033l-.006.197-.004.133.266.008.004-.133.03-1.187zm-1.584.174l.592.5c-.053.004-.108.007-.158.014a4.79 4.79 0 00-.453.076c.02-.263.02-.487.02-.59zm.727 2.636c-.42.01-.733.196-.936.391-.231.223-.334.463-.334.463l-.052.121.242.106.053-.121.05-.092v.01s.003.217.445.18c.36-.113.696-.289.588-.74a.33.33 0 00-.052-.054c.05-.001.103 0 .158.007l.13.013.028-.264-.132-.013a1.493 1.493 0 00-.188-.007zm-2.571 3.17c-.19.024-.208.167-.219.378.008.14.171.48.248.484.08-.013.158-.335.154-.473-.002-.154-.089-.392-.183-.39z" color="#000" font-weight="400" font-family="sans-serif" overflow="visible"/></svg>