<svg xmlns="http://www.w3.org/2000/svg" width="16mm" height="16mm" viewBox="0 0 16 16"><path style="line-height:normal;font-variant-ligatures:normal;font-variant-position:normal;font-variant-caps:normal;font-variant-numeric:normal;font-variant-alternates:normal;font-feature-settings:normal;text-indent:0;text-align:start;text-decoration-line:none;text-decoration-style:solid;text-decoration-color:#000;text-transform:none;text-orientation:mixed;white-space:normal;shape-padding:0;isolation:auto;mix-blend-mode:normal;solid-color:#000;solid-opacity:1" d="M.019 0L0 .019v.213L.232 0H.019zm1.323 0L0 1.342v.212L1.554 0h-.212zm1.322 0L0 2.664v.213L2.877 0h-.213zm1.323 0L0 3.987V4.2L4.2 0h-.213zM5.31 0L0 5.31v.213L5.523 0H5.31zm1.323 0L0 6.633v.213L6.846 0h-.213zm1.323 0L0 7.956v.213L8.169 0h-.213zM9.28 0L0 9.279v.213L9.492 0h-.213zm1.323 0L8.357 2.245c.05.017.1.04.149.064L10.815 0h-.213zm1.323 0L9.14 2.784c.034.037.068.074.099.114L12.138 0h-.213zm1.323 0L9.586 3.661c.009.058.015.116.015.175 0 .009-.002.017-.003.026L13.461 0h-.213zm1.323 0L9.543 5.028l.081.131L14.784 0h-.213zm1.323 0l-5.806 5.806.102.111L16 .107V0h-.106zM16 1.216l-5.28 5.28.103.11L16 1.43v-.213zm0 1.323l-5.446 5.447c.008.068.015.135.016.196L16 2.752V2.54zM8 2.74A1.101 1.101 0 006.9 3.836c0 .313.135.594.347.795-.304.788-.94 1.486-.94 1.486l-.201.219.75.008c-.006.17-.108.398-.221.577a2.628 2.628 0 01-.228.309 1.22 1.22 0 00-.456 1.257c.09.463.318.786.612.987.004.285-.204.66-.436.956-.24.306-.484.525-.484.525l-.003.002-.002.003c-1.002.951-.52 2.212-.52 2.212l.034.085 2.846.005h.004l2.846-.005.033-.085s.483-1.26-.52-2.212l-.001-.003-.002-.002s-.245-.219-.484-.525c-.232-.296-.44-.67-.437-.956.294-.201.524-.524.613-.987a1.22 1.22 0 00-.456-1.257 2.628 2.628 0 01-.228-.31c-.113-.178-.216-.405-.22-.576l.749-.008-.201-.22s-.637-.697-.94-1.485c.212-.2.346-.482.346-.795 0-.604-.493-1.095-1.098-1.097H8h-.001zM16 3.861L10.073 9.79c.02.046.042.09.07.142L16 4.075v-.213zm-9.554.294L0 10.602v.213l6.496-6.496a1.482 1.482 0 01-.05-.163zM16 5.186l-5.34 5.339.057.075-.031-.023.02.02c.018.016.03.032.047.048L16 5.398v-.213zm0 1.322l-4.778 4.779c.024.049.044.099.064.148L16 6.721v-.213zm-10.9.317l-5.1 5.1v.213l5.31-5.311-.21-.002zm5.5.004l-.214.002-.238.237c.035.04.066.079.095.119l.358-.358zm-5.102.92L0 13.248v.213l5.449-5.45c.009-.083.026-.17.05-.262zM16 7.831l-4.518 4.518c.003.078-.002.146-.005.218L16 8.044v-.213zM5.592 8.978L0 14.571v.213l5.66-5.66c-.025-.046-.046-.096-.068-.146zM16 9.154L9.154 16h.213L16 9.367v-.213zM5.463 10.43l-.051.052.051-.052zM16 10.477L10.477 16h.213L16 10.69v-.213zm-10.753.17L0 15.893V16h.106l4.642-4.641c.111-.243.272-.485.5-.713zM16 11.8L11.8 16h.213L16 12.013V11.8zm-11.472.888L1.216 16h.213l3.12-3.12a3.07 3.07 0 01-.02-.192zM16 13.123L13.123 16h.213L16 13.336v-.213zm-11.197.613L2.54 16h.213l2.244-2.244h-.185l-.008-.02zm5.484.021h-.214L7.831 16h.213l2.243-2.243zm-4.183.001L3.862 16h.213l2.241-2.241h-.212zm2.857.002h-.213L6.508 16h.213l2.24-2.24zm-1.537 0L5.185 16h.213l2.239-2.239h-.213zm8.576.686L14.446 16h.213L16 14.66v-.213zm0 1.323L15.77 16h.212l.02-.019v-.212z" color="#000" font-weight="400" font-family="sans-serif" overflow="visible"/></svg>