<svg xmlns="http://www.w3.org/2000/svg" width="16mm" height="16mm" viewBox="0 0 16 16"><path d="M7.999 2.739A1.101 1.101 0 006.9 3.836c0 .313.135.595.347.795-.304.788-.94 1.486-.94 1.486l-.202.22.75.008c-.005.17-.107.397-.22.576a2.628 2.628 0 01-.228.309 1.22 1.22 0 00-.456 1.257c.089.463.318.786.612.988.004.284-.205.66-.436.956-.24.305-.485.525-.485.525l-.002.001-.002.002c-1.002.952-.52 2.213-.52 2.213l.034.084 2.846.005h.004l2.846-.005.033-.084s.483-1.26-.52-2.213l-.001-.001-.002-.002s-.245-.22-.484-.525c-.232-.297-.44-.672-.437-.956.294-.202.524-.525.613-.988a1.22 1.22 0 00-.456-1.257 2.628 2.628 0 01-.228-.31c-.113-.178-.216-.405-.22-.575l.75-.009-.202-.219s-.637-.698-.94-1.486c.212-.2.346-.482.346-.795 0-.603-.493-1.095-1.098-1.097H8 8z" style="line-height:normal;font-variant-ligatures:normal;font-variant-position:normal;font-variant-caps:normal;font-variant-numeric:normal;font-variant-alternates:normal;font-feature-settings:normal;text-indent:0;text-align:start;text-decoration-line:none;text-decoration-style:solid;text-decoration-color:#000;text-transform:none;text-orientation:mixed;white-space:normal;shape-padding:0;isolation:auto;mix-blend-mode:normal;solid-color:#000;solid-opacity:1" color="#000" font-weight="400" font-family="sans-serif" overflow="visible"/></svg>