<svg xmlns="http://www.w3.org/2000/svg" width="16mm" height="16mm" viewBox="0 0 16 16"><path d="M7.999 2.739A1.101 1.101 0 006.9 3.836c0 .313.135.595.347.795-.304.788-.94 1.486-.94 1.486l-.202.22.75.008c-.005.17-.107.397-.22.576a2.628 2.628 0 01-.228.309 1.22 1.22 0 00-.456 1.257c.089.463.318.786.612.988.004.284-.205.66-.436.956-.24.305-.485.525-.485.525l-.002.001-.002.002c-1.002.952-.52 2.213-.52 2.213l.034.084 2.846.005h.004l2.846-.005.033-.084s.483-1.26-.52-2.213l-.001-.001-.002-.002s-.245-.22-.484-.525c-.232-.297-.44-.672-.437-.956.294-.202.524-.525.613-.988a1.22 1.22 0 00-.456-1.257 2.628 2.628 0 01-.228-.31c-.113-.178-.216-.405-.22-.575l.75-.009-.202-.219s-.637-.698-.94-1.486c.212-.2.346-.482.346-.795 0-.603-.493-1.095-1.098-1.097H8 8zm0 .256A.84.84 0 118 4.675a.84.84 0 110-1.68zM7.47 4.79c.158.088.336.142.529.143h.005c.192 0 .37-.055.528-.143.281.694.693 1.132.83 1.288l-1.358.014h-.005l-1.359-.014c.138-.156.55-.594.83-1.288zm-.347 1.557l.876.01h.004l.876-.01c.006.263.139.517.264.715.128.202.256.348.256.348l.01.01.01.008c.572.428.38.988.38.988l-.003.008-.002.008c-.08.43-.28.685-.543.85-.262.164-.593.231-.922.243-.11.005-.219.017-.325.012-.107.006-.218-.007-.33-.012-.33-.012-.66-.08-.923-.244-.262-.164-.462-.42-.542-.85l-.002-.007-.003-.008s-.192-.56.38-.988l.009-.008.01-.01s.128-.146.256-.348c.125-.198.258-.452.264-.715zm-.3 3.268c.266.117.558.166.84.176.116.004.229.02.337.013.11.007.223-.009.34-.013.281-.01.573-.06.84-.176.045.355.268.7.486.977.255.327.517.561.517.561l-.004-.002c.83.788.516 1.715.47 1.842l-2.646.005h-.004l-2.647-.005a1.717 1.717 0 01.471-1.842l-.003.002s.261-.234.517-.56c.218-.279.44-.623.485-.978z" style="line-height:normal;font-variant-ligatures:normal;font-variant-position:normal;font-variant-caps:normal;font-variant-numeric:normal;font-variant-alternates:normal;font-feature-settings:normal;text-indent:0;text-align:start;text-decoration-line:none;text-decoration-style:solid;text-decoration-color:#000;text-transform:none;text-orientation:mixed;white-space:normal;shape-padding:0;isolation:auto;mix-blend-mode:normal;solid-color:#000;solid-opacity:1" color="#000" font-weight="400" font-family="sans-serif" overflow="visible"/></svg>