<svg xmlns="http://www.w3.org/2000/svg" width="16mm" height="16mm" viewBox="0 0 16 16"><path style="line-height:normal;font-variant-ligatures:normal;font-variant-position:normal;font-variant-caps:normal;font-variant-numeric:normal;font-variant-alternates:normal;font-feature-settings:normal;text-indent:0;text-align:start;text-decoration-line:none;text-decoration-style:solid;text-decoration-color:#000;text-transform:none;text-orientation:mixed;white-space:normal;shape-padding:0;isolation:auto;mix-blend-mode:normal;solid-color:#000;solid-opacity:1" d="M8 2.87a.739.739 0 00-.732.736c0 .35.248.644.576.718l-.966 3.64L5.54 5.45A.738.738 0 006 4.77a.738.738 0 00-.736-.737.738.738 0 00-.737.736c0 .398.32.722.714.735l-.5 2.715-1.77-1.681a.729.729 0 00.275-.567.739.739 0 00-.737-.737.736.736 0 10.179 1.446c1.167 2.457 1.097 5.554 1.097 5.554l-.002.004.082.124s1.765.735 4.136.767c2.371-.032 4.136-.767 4.136-.767l.082-.124-.002-.004s-.07-3.097 1.097-5.553a.736.736 0 10.179-1.446.739.739 0 00-.737.736c0 .23.109.432.275.567l-1.77 1.68-.5-2.714a.738.738 0 00.714-.735.738.738 0 00-.737-.736.738.738 0 00-.736.736c0 .307.19.57.458.68L9.122 7.965l-.966-3.64a.739.739 0 00.576-.718A.739.739 0 008 2.871zm0 .264a.472.472 0 010 .943.47.47 0 010-.943zM5.263 4.3a.47.47 0 110 .941.469.469 0 01-.471-.47c0-.263.209-.471.47-.471zm5.474 0c.262 0 .471.208.471.47s-.209.471-.47.471a.47.47 0 110-.941zM8 4.769L8 4.773l.001-.004.93 3.5c-.3-.013-.61-.017-.931-.012-.32-.006-.632-.002-.93.011zm-5.49.73a.472.472 0 110 .944.472.472 0 010-.944zm10.983 0a.47.47 0 01.47.473c0 .261-.209.47-.47.47a.472.472 0 110-.944zM5.45 5.84l1.297 2.445c-.69.042-1.29.121-1.788.205zm5.1 0l.49 2.65a16.933 16.933 0 00-1.787-.205zm-7.54 1.1L4.69 8.538c-.663.124-1.059.236-1.085.244-.145-.6-.337-1.23-.593-1.842zm9.98 0a12.235 12.235 0 00-.594 1.842c-.026-.008-.422-.12-1.085-.244zM7.575 8.52c.14-.002.281 0 .424.002.143-.001.285-.003.424-.001 2.23.025 3.887.511 3.913.52-.042.188-.076.369-.11.547C12.19 9.58 10.35 9.175 8 9.191c-2.35-.016-4.19.389-4.228.397a15.24 15.24 0 00-.11-.548c.027-.008 1.685-.495 3.914-.52zM8 9.461a21.14 21.14 0 014.182.387 16.749 16.749 0 00-.188 1.532c-.854-.315-1.757-.476-2.635-.537A19.482 19.482 0 008 10.805c-.436 0-.892.005-1.359.038-.878.06-1.78.222-2.635.537-.03-.4-.086-.931-.188-1.533A21.138 21.138 0 018 9.461zm-.688 1.622c.234-.004.462.002.688.002.226 0 .454-.006.688-.002 1.08.017 2.228.168 3.284.568l.004-.01c-.01.2-.013.302-.013.376a16.38 16.38 0 00-2.805-.352A18.993 18.993 0 008 11.655a18.598 18.598 0 00-1.158.01 16.38 16.38 0 00-2.805.352c0-.074-.003-.176-.013-.376l.004.01c1.056-.4 2.204-.55 3.284-.568zm.214.831c.162 0 .318.003.474.006.156-.003.312-.007.474-.006 1.001.005 2.105.093 3.222.319A12.01 12.01 0 018 12.86a12.01 12.01 0 01-3.696-.628 16.79 16.79 0 013.222-.319z" color="#000" font-weight="400" font-family="sans-serif" overflow="visible"/></svg>