<svg xmlns="http://www.w3.org/2000/svg" width="16mm" height="16mm" viewBox="0 0 16 16"><path style="line-height:normal;font-variant-ligatures:normal;font-variant-position:normal;font-variant-caps:normal;font-variant-numeric:normal;font-variant-alternates:normal;font-feature-settings:normal;text-indent:0;text-align:start;text-decoration-line:none;text-decoration-style:solid;text-decoration-color:#000;text-transform:none;text-orientation:mixed;white-space:normal;shape-padding:0;isolation:auto;mix-blend-mode:normal;solid-color:#000;solid-opacity:1" d="M4.031 2.18v2.027l.793 1.059v4.681l-.793 1.322v1.229h-.265v1.322h8.468v-1.322h-.265V11.27l-.793-1.322V5.266l.793-1.06V2.18H10.38v1.056H9.058V2.18H6.942v1.056H5.619V2.18zm.264.263h1.059v1.059h1.853V2.443h1.586v1.059h1.853V2.443h1.06v1.584H4.294zm.129 1.848h7.152l-.47.627v-.004l-6.213-.002v.004zm.666.888l5.819.002c.002 1.542 0 3.114 0 4.667H5.09v-4.67zm-.054 4.932h5.928l.478.795H4.558zm-.637 1.059h7.202l.104.173v1.151h-7.41v-1.15zm-.104 1.588h7.41v.004h.264v.795H4.03v-.795h.264z" color="#000" font-weight="400" font-family="sans-serif" overflow="visible"/></svg>