<svg xmlns="http://www.w3.org/2000/svg" width="16mm" height="16mm" viewBox="0 0 16 16"><path style="line-height:normal;font-variant-ligatures:normal;font-variant-position:normal;font-variant-caps:normal;font-variant-numeric:normal;font-variant-alternates:normal;font-feature-settings:normal;text-indent:0;text-align:start;text-decoration-line:none;text-decoration-style:solid;text-decoration-color:#000;text-transform:none;text-orientation:mixed;white-space:normal;shape-padding:0;isolation:auto;mix-blend-mode:normal;solid-color:#000;solid-opacity:1" d="M.019 0L0 .019v.213L.232 0H.019zm1.323 0L0 1.342v.212L1.554 0h-.212zm1.322 0L0 2.664v.213L2.877 0h-.213zm1.323 0L0 3.987V4.2L4.2 0h-.213zM5.31 0L3.63 1.68h.214L5.524 0H5.31zm1.323 0l-1.68 1.68h.214L6.847 0h-.214zm1.323 0L6.12 1.837v.213l.322-.322v-.049h.049L8.169 0h-.213zM9.28 0l-1.68 1.68h.213L9.492 0h-.213zm1.323 0l-1.68 1.68h.213L10.815 0h-.213zm1.323 0l-1.68 1.68h.213L12.138 0h-.213zm1.323 0l-1.68 1.68h.213L13.461 0h-.213zm1.323 0l-2.102 2.102v.213L14.784 0h-.213zm1.323 0l-3.425 3.425v.1h.035l-.035.073v.04L16 .106V0h-.106zM16 1.216l-4.324 4.325v.213L16 1.429v-.213zM3.531 1.78L0 5.31v.213l3.531-3.53v-.214zm6.35.265l-.322.322v.213l.322-.322v-.213zm-5.85.136v2.027l.794 1.059v4.681L4.03 11.27v1.228h-.265v1.322h8.468v-1.322h-.265V11.27l-.793-1.323V5.266l.793-1.059V2.18H10.38v1.056H9.058V2.18H6.942v1.056H5.619V2.18H4.031zm11.97.36l-4.325 4.324v.213L16 2.752V2.54zm-12.47.562L0 6.633v.213l3.531-3.531v-.213zm12.47.76l-4.325 4.325v.212L16 4.075v-.213zm-11.706.165h7.41l-.129.265H4.424l-.13-.265zm-.742.376L0 7.956v.213l3.645-3.645-.092-.121zm1.335.512h6.224l-.203.266H5.091l-.203-.266zm-.768.244L0 9.279v.213L4.211 5.28l-.09-.122zM16 5.185L11.676 9.51v.213L16 5.398v-.213zM4.324 6.278L0 10.602v.213L4.324 6.49v-.213zM16 6.508l-3.94 3.94.08.134L16 6.72v-.213zM4.324 7.601L0 11.925v.213l4.324-4.325v-.212zM16 7.83l-3.531 3.531v.213L16 8.044v-.213zM4.324 8.923L0 13.248v.213l4.324-4.325v-.213zM16 9.154l-3.265 3.265v.213L16 9.367v-.213zm-10.909.692h5.818l.057.264H5.034l.057-.264zm10.91.63l-3.266 3.266v.213L16 10.69v-.213zm-12.333.427L0 14.57v.213l3.531-3.531v-.122l.137-.228zm.892 0h6.88l.161.266H4.4l.16-.266zM16 11.8L11.8 16h.213L16 12.013V11.8zm-11.705.696h7.41v.264h-7.41v-.264zm-1.03.132L0 15.894V16h.106l3.16-3.159v-.213zM16 13.123L13.123 16h.213L16 13.336v-.213zm-12.735.828l-2.049 2.05h.213l1.836-1.837v-.213zm.954.37L2.539 16h.213l1.68-1.68h-.213zm1.323 0L3.862 16h.213l1.68-1.68h-.213zm1.323 0L5.185 16h.213l1.68-1.68h-.213zm1.323 0L6.508 16h.213l1.68-1.68h-.213zm1.323 0L7.83 16h.213l1.68-1.68H9.51zm1.322 0L9.154 16h.213l1.68-1.68h-.214zm1.323 0L10.476 16h.214l1.68-1.68h-.214zm3.844.125L14.446 16h.213L16 14.66v-.213zm0 1.323L15.77 16h.212l.02-.019v-.212z" color="#000" font-weight="400" font-family="sans-serif" overflow="visible"/></svg>