<svg xmlns="http://www.w3.org/2000/svg" width="16mm" height="16mm" viewBox="0 0 16 16"><path style="line-height:normal;font-variant-ligatures:normal;font-variant-position:normal;font-variant-caps:normal;font-variant-numeric:normal;font-variant-alternates:normal;font-feature-settings:normal;text-indent:0;text-align:start;text-decoration-line:none;text-decoration-style:solid;text-decoration-color:#000;text-transform:none;text-orientation:mixed;white-space:normal;shape-padding:0;isolation:auto;mix-blend-mode:normal;solid-color:#000;solid-opacity:1" d="M4.031 2.18v2.027l.793 1.059v4.681l-.793 1.322v1.229h-.265v1.323h8.468v-1.323h-.265V11.27l-.793-1.322V5.266l.793-1.06V2.18H10.38v1.057H9.058V2.18H6.942v1.057H5.619V2.18zm.264 1.846h7.41l-.129.266H4.424zm.593.89h6.224l-.203.265H5.091zm.203 4.93h5.818l.057.264H5.034zm-.531 1.057h6.88l.161.266H4.4zm-.265 1.593h7.41v.264h-7.41z" color="#000" font-weight="400" font-family="sans-serif" overflow="visible"/></svg>