<svg xmlns="http://www.w3.org/2000/svg" width="16mm" height="16mm" viewBox="0 0 16 16"><path style="line-height:normal;font-variant-ligatures:normal;font-variant-position:normal;font-variant-caps:normal;font-variant-numeric:normal;font-variant-alternates:normal;font-feature-settings:normal;text-indent:0;text-align:start;text-decoration-line:none;text-decoration-style:solid;text-decoration-color:#000;text-transform:none;text-orientation:mixed;white-space:normal;shape-padding:0;isolation:auto;mix-blend-mode:normal;solid-color:#000;solid-opacity:1" d="M7.851 1.724a.398.398 0 00-.341.154.716.716 0 00-.115.33c-.034.23-.027.483-.057.629-.042.039-.916.844-1.582 2.162-.678 1.341-1.105 3.183-.1 5.116l-.072 2.072c0 .043.02.084.055.11 0 0 .303.22.822.414a1.475 1.475 0 01-.16.04c-.258.051-.7.081-1.416-.017-1.509-.209-2.764.591-2.764.591l-.261.166.634.157-.353.629.338-.128s1.258-.468 2.836-.175c1.102.218 1.789-.015 2.193-.319.298-.224.332-.38.386-.503.028.142.01.296.295.523.404.321 1.173.55 2.641.312 1.739-.282 2.004-.147 2.756.067l.326.093-.355-.58.583-.171-.236-.159s-1.138-.747-2.884-.408c-.838.163-1.314.127-1.567.06a.75.75 0 01-.179-.069c.319-.09.65-.215.992-.393a.132.132 0 00.072-.117v-2.158c.01-.025.049-.133.106-.337a.133.133 0 00.035-.038s.568-.818.722-2.092c.152-1.258-.122-2.975-1.69-4.78.008-.04.041-.218.046-.446a1.26 1.26 0 00-.037-.372.418.418 0 00-.085-.161.278.278 0 00-.181-.095.348.348 0 00-.287.118.606.606 0 00-.117.265c-.04.171-.047.361-.061.532-.029.018-.066.047-.15.072-.112.033-.221.039-.322-.057a.131.131 0 00-.025-.018c-.042-.18-.062-.376-.093-.55a.963.963 0 00-.088-.295.327.327 0 00-.26-.174zm.994 1.296c2.736 2.302 1.798 5.825 1.795 5.834v.001c.052-.367.088-.786.074-1.249-.04-1.378-.517-3.086-2.117-4.512a.732.732 0 00.248-.074zM7.598 4.616h.529V6.47h1.059V7h-1.06v1.85h-.528V7h-1.06v-.53h1.06zm.282 5.136a5.942 5.942 0 011.992.29c.069.023.136.05.203.075a.134.134 0 000 .019v.346a6.125 6.125 0 00-2.282-.381 5.477 5.477 0 00-1.886.362l.01-.3C6.45 9.92 7.14 9.77 7.88 9.752zm-.074.628a5.994 5.994 0 012.268.397v.658a6.133 6.133 0 00-2.25-.37c-.72.017-1.398.157-1.95.389l.024-.699c.523-.227 1.191-.363 1.908-.375z" color="#000" font-weight="400" font-family="sans-serif" overflow="visible"/></svg>