<svg xmlns="http://www.w3.org/2000/svg" width="16mm" height="16mm" viewBox="0 0 16 16"><path style="line-height:normal;font-variant-ligatures:normal;font-variant-position:normal;font-variant-caps:normal;font-variant-numeric:normal;font-variant-alternates:normal;font-feature-settings:normal;text-indent:0;text-align:start;text-decoration-line:none;text-decoration-style:solid;text-decoration-color:#000;text-transform:none;text-orientation:mixed;white-space:normal;shape-padding:0;isolation:auto;mix-blend-mode:normal;solid-color:#000;solid-opacity:1" d="M.019 0L0 .019v.213L.232 0H.019zm1.323 0L0 1.342v.212L1.554 0h-.212zm1.322 0L0 2.664v.213L2.877 0h-.213zm1.323 0L0 3.987V4.2L4.2 0h-.213zM5.31 0L0 5.31v.213L5.523 0H5.31zm1.323 0L0 6.633v.213L6.846 0h-.213zm1.323 0L0 7.956v.213L8.169 0h-.213zM9.28 0L8.023 1.256c.05.018.093.046.135.078L9.492 0h-.213zm1.323 0L9.267 1.335H9.295a.803.803 0 01.157.028L10.815 0h-.213zm1.323 0L9.994 1.931l.006.017v.002c.015.052.026.103.035.153L12.138 0h-.213zm1.323 0l-3.046 3.046c.03.04.063.08.092.12L13.461 0h-.213zm1.323 0l-3.832 3.832c.027.045.051.09.077.135L14.784 0h-.213zm1.323 0l-4.705 4.704.065.148L16 .106V0h-.106zM16 1.216l-4.467 4.467c.015.057.03.114.043.17L16 1.43v-.213zm-8.149.508a.398.398 0 00-.341.154.716.716 0 00-.116.33c-.033.23-.026.483-.056.629-.042.039-.916.844-1.582 2.162-.678 1.341-1.105 3.183-.101 5.116l-.071 2.072c-.001.043.02.084.054.11 0 0 .303.22.823.414a1.475 1.475 0 01-.16.04c-.258.051-.701.081-1.417-.017-1.508-.209-2.763.591-2.763.591l-.262.166.635.157-.354.629.338-.127s1.259-.47 2.836-.176c1.103.218 1.79-.015 2.194-.319.298-.224.332-.38.386-.503.028.142.01.296.295.523.404.321 1.173.55 2.64.312 1.74-.282 2.004-.147 2.757.067l.326.093-.356-.58.584-.171-.236-.159s-1.138-.747-2.885-.408c-.837.163-1.313.127-1.566.06a.75.75 0 01-.18-.069c.32-.09.65-.215.993-.393a.132.132 0 00.072-.117v-2.158c.01-.025.049-.133.106-.337a.133.133 0 00.034-.038s.569-.818.723-2.092c.152-1.258-.123-2.975-1.69-4.78.008-.04.04-.218.046-.446a1.26 1.26 0 00-.038-.372.418.418 0 00-.084-.162.278.278 0 00-.181-.094.348.348 0 00-.288.118.606.606 0 00-.116.265c-.04.17-.047.361-.061.532-.029.018-.066.047-.15.072-.112.033-.221.039-.323-.057a.13.13 0 00-.024-.018c-.042-.18-.063-.376-.093-.55a.963.963 0 00-.088-.295.327.327 0 00-.26-.174zm-.98.685L0 9.279v.213L6.572 2.92c.126-.14.223-.238.285-.299.003-.049.006-.122.013-.212zm9.13.13l-4.28 4.28.009.204L16 2.753v-.214zm-7.156.481c2.736 2.302 1.798 5.825 1.795 5.834v.001c.052-.367.087-.786.074-1.249-.04-1.378-.517-3.086-2.117-4.512a.731.731 0 00.248-.074zM16 3.862L11.613 8.25c-.021.1-.046.191-.071.283L16 4.075v-.213zm-8.403.754h.53V6.47h1.058V7H8.127v1.85h-.53V7H6.54v-.53h1.058V4.616zm8.403.57l-5.162 5.162v.213L16 5.398v-.213zm-11.072.488L0 10.602v.213l4.827-4.827c.031-.106.065-.211.1-.314zM16 6.508l-5.162 5.163v.213L16 6.72v-.213zM4.58 7.346L0 11.925v.213l4.57-4.57c.001-.074.004-.149.009-.222zM16 7.83l-4.424 4.424c.075-.005.148-.006.22-.008L16 8.044v-.213zm-11.363.78L0 13.248v.213l4.666-4.666c-.012-.062-.02-.123-.03-.184zM16 9.154l-3.178 3.178c.062.012.114.027.172.04L16 9.368v-.213zM4.91 9.66L0 14.57v.214l1.364-1.365a.488.488 0 01.228-.35l.26-.164.063-.036L4.97 9.813a5.792 5.792 0 01-.06-.153zm2.97.092a5.942 5.942 0 011.992.29c.068.023.136.05.203.075v.365a6.125 6.125 0 00-2.282-.381 5.477 5.477 0 00-1.885.362l.009-.3c.532-.244 1.222-.394 1.963-.411zm-.074.628a5.994 5.994 0 012.268.397v.658a6.133 6.133 0 00-2.25-.37c-.72.017-1.398.157-1.95.389l.023-.699c.523-.227 1.192-.363 1.909-.375zm8.194.097l-2.168 2.168c.063.028.1.044.146.067L16 10.69v-.213zm-10.867.284l-1.5 1.5c.08-.013.162-.024.246-.033l1.247-1.247.007-.22zM16 11.8l-1.4 1.4a.494.494 0 01.035.177L16 12.013V11.8zm-10.915.331l-.108.108c.056.004.072-.005.138.002-.002-.025-.032-.038-.031-.063v-.008l.001-.039zM16 13.123L13.123 16h.213L16 13.336v-.213zM1.646 14.248L0 15.894V16h.106l1.565-1.565a.48.48 0 01-.025-.187zm6.58.034L6.508 16h.213l1.648-1.648c-.051-.021-.096-.046-.143-.07zm4.032.037c-.031 0-.073.005-.107.007L10.477 16h.213l1.68-1.68c-.038 0-.07-.003-.112-.001zm-8.046.058c-.019 0-.034.003-.053.003L2.54 16h.213l1.617-1.617c-.052-.001-.107-.006-.157-.006zM16 14.446L14.446 16h.213L16 14.66v-.213zm-9.056.008a3.024 3.024 0 01-.269.056L5.185 16h.213l1.546-1.546zm3.939.03c-.086.014-.164.022-.245.032L9.154 16h.213l1.516-1.516zm-5.51.005L3.863 16h.212l1.483-1.483c-.06-.007-.123-.018-.185-.028zm7.933.005L11.8 16h.213l1.457-1.458-.023-.006a11.038 11.038 0 01-.141-.042zM2.88 14.55c-.144.039-.227.068-.227.068l-.086.033L1.217 16h.212l1.45-1.45zm6.391.01L7.831 16h.213l1.423-1.423c-.068-.004-.131-.01-.196-.017zm6.73 1.21l-.232.231h.212l.02-.019v-.212z" color="#000" font-weight="400" font-family="sans-serif" overflow="visible"/></svg>