<svg xmlns="http://www.w3.org/2000/svg" width="16mm" height="16mm" viewBox="0 0 16 16"><path style="line-height:normal;font-variant-ligatures:normal;font-variant-position:normal;font-variant-caps:normal;font-variant-numeric:normal;font-variant-alternates:normal;font-feature-settings:normal;text-indent:0;text-align:start;text-decoration-line:none;text-decoration-style:solid;text-decoration-color:#000;text-transform:none;text-orientation:mixed;white-space:normal;shape-padding:0;isolation:auto;mix-blend-mode:normal;solid-color:#000;solid-opacity:1" d="M8 2.87a.739.739 0 00-.732.736c0 .35.248.644.576.718l-.966 3.64L5.54 5.45A.738.738 0 006 4.77a.738.738 0 00-.736-.736.738.738 0 00-.737.736c0 .397.32.722.714.734l-.5 2.715-1.77-1.68a.729.729 0 00.275-.567.739.739 0 00-.737-.737.736.736 0 10.179 1.446c1.167 2.456 1.097 5.554 1.097 5.554l-.002.004.082.124s1.765.735 4.136.767c2.371-.032 4.136-.767 4.136-.767l.082-.124-.002-.004s-.07-3.098 1.097-5.553a.736.736 0 10.179-1.446.739.739 0 00-.737.736c0 .23.109.432.275.566L11.26 8.22l-.5-2.715a.738.738 0 00.714-.734.738.738 0 00-.737-.736.738.738 0 00-.736.736c0 .306.19.57.458.68L9.122 7.965l-.966-3.64a.739.739 0 00.576-.718A.739.739 0 008 2.87zm-.424 5.65c.139-.002.281 0 .424.002.143-.001.285-.003.424-.001 2.23.025 3.886.511 3.913.52-.042.188-.076.369-.11.547C12.19 9.58 10.35 9.175 8 9.191c-2.35-.016-4.19.389-4.228.397a15.24 15.24 0 00-.11-.548c.027-.008 1.685-.495 3.914-.52zm-.734 3.145a16.38 16.38 0 00-2.805.352c0-.074-.003-.176-.013-.377l.004.011c1.056-.4 2.204-.55 3.284-.568.234-.004.462.002.688.002.226 0 .454-.006.688-.002 1.08.017 2.228.167 3.284.568l.004-.01c-.01.2-.013.302-.014.376a16.38 16.38 0 00-2.805-.352A18.986 18.986 0 008 11.655a18.827 18.827 0 00-1.158.01z" color="#000" font-weight="400" font-family="sans-serif" overflow="visible"/></svg>