<svg xmlns="http://www.w3.org/2000/svg" width="16mm" height="16mm" viewBox="0 0 16 16"><path style="line-height:normal;font-variant-ligatures:normal;font-variant-position:normal;font-variant-caps:normal;font-variant-numeric:normal;font-variant-alternates:normal;font-feature-settings:normal;text-indent:0;text-align:start;text-decoration-line:none;text-decoration-style:solid;text-decoration-color:#000;text-transform:none;text-orientation:mixed;white-space:normal;shape-padding:0;isolation:auto;mix-blend-mode:normal;solid-color:#000;solid-opacity:1" d="M.019 0L0 .019v.213L.232 0H.019zm1.323 0L0 1.342v.212L1.554 0h-.212zm1.322 0L0 2.664v.213L2.877 0h-.213zm1.323 0L0 3.987V4.2L4.2 0h-.213zM5.31 0L0 5.31v.213L5.523 0H5.31zm1.323 0L0 6.633v.213L1.388 5.46c.124-.268.34-.485.608-.609L6.846 0h-.213zm1.323 0l-4.88 4.88c.045.025.092.049.135.078L8.169 0h-.213zM9.28 0l-3.61 3.61c.051.018.1.04.148.065L9.492 0h-.213zm1.323 0L8.209 2.393c.058.01.113.027.168.045L10.815 0h-.213zm1.323 0L9.014 2.91c.03.044.053.09.077.137L12.138 0h-.213zm1.323 0L9.014 4.233c-.08.108-.18.204-.287.29l.044.167L13.461 0h-.213zm1.323 0l-3.567 3.567c.056.012.11.03.162.05L14.784 0h-.213zm1.323 0L11.78 4.114c.028.044.053.09.075.137L16 .106V0h-.106zM16 1.216L11.338 5.88l.033.18L16 1.429v-.213zm0 1.323l-2.23 2.23c.056.013.11.03.162.05L16 2.753V2.54zm-8 .332a.739.739 0 00-.732.735c0 .35.248.644.576.718l-.966 3.64L5.54 5.45A.738.738 0 006 4.77a.738.738 0 00-.736-.737.738.738 0 00-.737.736c0 .398.32.722.715.735L4.739 8.22 2.97 6.539a.729.729 0 00.275-.567.739.739 0 00-.737-.737.736.736 0 10.179 1.446c1.167 2.457 1.097 5.554 1.097 5.554l-.002.004.082.124s1.765.735 4.136.766c2.371-.03 4.136-.766 4.136-.766l.082-.124-.002-.004s-.07-3.097 1.097-5.553a.736.736 0 10.179-1.446.739.739 0 00-.737.736c0 .23.109.432.275.567l-1.77 1.68-.5-2.714a.738.738 0 00.714-.735.738.738 0 00-.737-.736.738.738 0 00-.736.736c0 .307.19.57.458.68L9.122 7.965l-.966-3.64a.739.739 0 00.576-.718A.739.739 0 008 2.871zm-1.21.94l-.421.422c.024.05.043.1.06.152l.411-.41a.992.992 0 01-.05-.164zm9.21.051L14.54 5.324c.027.044.053.09.075.137L16 4.075v-.213zm-8.773.836l-.993.993.074.139.842-.842.077-.29zM9.57 5l-.567.567.045.168.613-.614A.789.789 0 019.571 5zm-5.46.167L3.68 5.6c.018.056.033.111.043.17l.463-.463a1.03 1.03 0 01-.074-.139zm11.89.018l-2.528 2.527c-.038.108-.076.215-.11.323L16 5.398v-.213zm-11.352.768l-.765.765.109.104.608-.608.048-.26zm7.69.247l-.797.797.034.18.848-.848c-.027-.044-.056-.087-.084-.13zm-5.59.299l-.055.055.027.051.028-.106zm9.251.01l-3.003 3.003a15.29 15.29 0 00-.047.26L16 6.72v-.213zm-14.572.02L0 7.955v.213l1.517-1.517a1.124 1.124 0 01-.09-.124zm.764.558L0 9.279v.213l2.319-2.319-.024-.058c-.035-.007-.069-.019-.103-.028zM16 7.83l-3.217 3.217c-.007.08-.016.16-.022.235l3.24-3.239v-.213zm-13.38.15L0 10.601v.214l2.67-2.67c-.017-.054-.032-.11-.05-.164zm4.956.54c.14-.003.281-.001.424.001.143-.002.285-.003.424-.001 2.23.025 3.887.511 3.913.52-.042.188-.076.369-.11.548C12.19 9.58 10.35 9.175 8 9.19c-2.35-.016-4.19.389-4.228.397a15.24 15.24 0 00-.11-.548c.028-.008 1.685-.494 3.914-.52zm-4.674.502L0 11.925v.213l2.94-2.94-.038-.175zM16 9.154l-3.372 3.372-.075.113-.213.175L9.154 16h.213L16 9.367v-.213zm-12.894.988L0 13.248v.213l3.133-3.133-.027-.186zM16 10.477L10.477 16h.213L16 10.69v-.213zm-8.688.607c.234-.004.462.002.688.002.226 0 .454-.006.688-.002 1.08.016 2.228.167 3.284.567l.004-.01c-.01.2-.013.302-.013.376a16.38 16.38 0 00-2.805-.352A18.994 18.994 0 008 11.655a18.834 18.834 0 00-1.158.01 16.38 16.38 0 00-2.805.352c0-.074-.003-.176-.013-.376l.004.01c1.056-.4 2.204-.55 3.284-.567zm-4.07.245L0 14.571v.213l3.255-3.256-.013-.199zm12.758.47L11.8 16h.213L16 12.013V11.8zm-12.63.724L0 15.893V16h.106l3.353-3.352-.012-.01-.077-.115zm.835.489L1.216 16h.213l2.937-2.937-.161-.051zm11.795.11L13.123 16h.213L16 13.336v-.213zm-10.753.17L2.54 16h.213l2.668-2.668-.173-.04zm5.504 0c-.093.022-.177.044-.276.064L7.83 16h.213l2.707-2.707zm-4.39.209l-2.499 2.5h.213l2.474-2.475a13.534 13.534 0 01-.188-.025zm2.801.058c-.078.008-.156.017-.236.024L6.508 16h.213l2.441-2.441zm-1.592.057L5.185 16h.213l2.378-2.378c-.069-.002-.139-.003-.206-.006zm8.43.83L14.446 16h.213L16 14.66v-.213zm0 1.323L15.77 16h.212l.02-.019v-.212z" color="#000" font-weight="400" font-family="sans-serif" overflow="visible"/></svg>