<svg xmlns="http://www.w3.org/2000/svg" width="16mm" height="16mm" viewBox="0 0 16 16"><path style="line-height:normal;font-variant-ligatures:normal;font-variant-position:normal;font-variant-caps:normal;font-variant-numeric:normal;font-variant-alternates:normal;font-feature-settings:normal;text-indent:0;text-align:start;text-decoration-line:none;text-decoration-style:solid;text-decoration-color:#000;text-transform:none;text-orientation:mixed;white-space:normal;shape-padding:0;isolation:auto;mix-blend-mode:normal;solid-color:#000;solid-opacity:1" d="M.019 0L0 .019v.213L.232 0H.019zm1.323 0L0 1.342v.212L1.554 0h-.212zm1.322 0L0 2.664v.213L2.877 0h-.213zm1.323 0L0 3.987V4.2L4.2 0h-.213zM5.31 0L0 5.31v.213L5.523 0H5.31zm1.323 0L0 6.633v.213L6.846 0h-.213zm1.323 0L0 7.956v.213L8.169 0h-.213zM9.28 0L0 9.279v.213L9.492 0h-.213zm1.323 0L0 10.602v.213L10.815 0h-.213zm1.323 0L0 11.925v.213L12.138 0h-.213zm1.323 0L0 13.248v.213L13.46 0h-.212zm1.323 0L0 14.57v.214L14.784 0h-.213zm1.323 0L0 15.894V16h.106L16 .106V0h-.106zM16 1.216L1.216 16h.213L16 1.43v-.214zm0 1.323L2.54 16h.212L16 2.752V2.54zm0 1.323L3.862 16h.213L16 4.075v-.213zm0 1.323L5.185 16h.213L16 5.398v-.213zm0 1.323L6.508 16h.213l9.28-9.279v-.213zm0 1.323l-8.169 8.17h.213L16 8.043v-.213zm0 1.323L9.154 16h.213L16 9.367v-.213zm0 1.323L10.477 16h.213L16 10.69v-.213zm0 1.323L11.8 16h.213L16 12.013V11.8zm0 1.323L13.123 16h.213L16 13.336v-.213zm0 1.323L14.446 16h.213L16 14.66v-.213zm0 1.323L15.77 16h.212l.02-.019v-.212z" color="#000" font-weight="400" font-family="sans-serif" overflow="visible"/></svg>