<?xml version="1.0" encoding="UTF-8" standalone="no"?>
<svg
   xmlns:dc="http://purl.org/dc/elements/1.1/"
   xmlns:cc="http://creativecommons.org/ns#"
   xmlns:rdf="http://www.w3.org/1999/02/22-rdf-syntax-ns#"
   xmlns:svg="http://www.w3.org/2000/svg"
   xmlns="http://www.w3.org/2000/svg"
   xmlns:sodipodi="http://sodipodi.sourceforge.net/DTD/sodipodi-0.dtd"
   xmlns:inkscape="http://www.inkscape.org/namespaces/inkscape"
   version="1.1"
   width="45mm"
   height="45mm"
   id="svg22"
   sodipodi:docname="tmp.svg"
   inkscape:version="0.92.1 r15371">
  <metadata
     id="metadata28">
    <rdf:RDF>
      <cc:Work
         rdf:about="">
        <dc:format>image/svg+xml</dc:format>
        <dc:type
           rdf:resource="http://purl.org/dc/dcmitype/StillImage" />
        <dc:title></dc:title>
      </cc:Work>
    </rdf:RDF>
  </metadata>
  <defs
     id="defs26">
    <pattern
       patternUnits="userSpaceOnUse"
       width="45.707106"
       height="45.707107"
       patternTransform="translate(73.629498,0.21848051)"
       id="pattern4507">
      <path
         sodipodi:nodetypes="cc"
         inkscape:connector-curvature="0"
         id="path4505"
         d="M 0.35355339,45.353553 45.353552,0.35355339"
         style="fill:none;stroke:#000000;stroke-width:1px;stroke-linecap:butt;stroke-linejoin:miter;stroke-opacity:1" />
    </pattern>
    <pattern
       patternUnits="userSpaceOnUse"
       width="202.82575"
       height="202.82575"
       patternTransform="translate(95.748142,-247.47219)"
       id="pattern5268">
      <path
         sodipodi:nodetypes="cc"
         inkscape:connector-curvature="0"
         id="path5266"
         d="M 0.35355339,202.47219 202.4722,0.35355339"
         style="fill:none;stroke:#000000;stroke-width:1px;stroke-linecap:butt;stroke-linejoin:miter;stroke-opacity:1" />
    </pattern>
  </defs>
  <sodipodi:namedview
     pagecolor="#ffffff"
     bordercolor="#666666"
     borderopacity="1"
     objecttolerance="10"
     gridtolerance="10"
     guidetolerance="10"
     inkscape:pageopacity="0"
     inkscape:pageshadow="2"
     inkscape:window-width="1920"
     inkscape:window-height="1143"
     id="namedview24"
     showgrid="true"
     inkscape:snap-bbox="true"
     inkscape:bbox-nodes="true"
     inkscape:snap-page="true"
     inkscape:zoom="2"
     inkscape:cx="28.245291"
     inkscape:cy="37.941435"
     inkscape:window-x="0"
     inkscape:window-y="0"
     inkscape:window-maximized="1"
     inkscape:current-layer="svg22"
     showguides="true"
     inkscape:snap-grids="true"
     units="mm">
    <inkscape:grid
       type="xygrid"
       id="grid6028"
       units="mm"
       spacingx="0.18897638"
       spacingy="0.18897638"
       color="#3f3fff"
       opacity="0.27843137" />
  </sodipodi:namedview>
  <path
     style="fill:#000000;fill-opacity:1;stroke:none;stroke-width:5.42217636px;stroke-linecap:butt;stroke-linejoin:miter;stroke-opacity:1"
     d="M 9.0585938 0 L 0 9.0585938 L 0 13.068359 L 13.068359 0 L 9.0585938 0 z M 31.775391 0 L 0 31.775391 L 0 35.783203 L 35.783203 0 L 31.775391 0 z M 54.492188 0 L 0 54.492188 L 0 58.5 L 58.5 0 L 54.492188 0 z M 77.207031 0 L 0 77.208984 L 0 81.216797 L 81.216797 0 L 77.207031 0 z M 99.925781 0 L 0 99.923828 L 0 103.93359 L 103.93359 0 L 99.925781 0 z M 122.64062 0 L 0 122.64062 L 0 126.65039 L 126.65039 0 L 122.64062 0 z M 145.35938 0 L 0 145.35742 L 0 149.36719 L 149.36719 0 L 145.35938 0 z M 168.07422 0 L 0 168.07422 L 0 170.07812 L 2.0058594 170.07812 L 170.07812 2.0058594 L 170.07812 0 L 168.07422 0 z M 170.07812 20.712891 L 20.712891 170.07812 L 24.720703 170.07812 L 170.07812 24.720703 L 170.07812 20.712891 z M 170.07812 43.429688 L 43.429688 170.07812 L 47.4375 170.07812 L 170.07812 47.4375 L 170.07812 43.429688 z M 170.07812 66.144531 L 66.146484 170.07812 L 70.154297 170.07812 L 170.07812 70.154297 L 170.07812 66.144531 z M 170.07812 88.863281 L 88.861328 170.07812 L 92.871094 170.07812 L 170.07812 92.871094 L 170.07812 88.863281 z M 170.07812 111.57812 L 111.57812 170.07812 L 115.58789 170.07812 L 170.07812 115.58789 L 170.07812 111.57812 z M 170.07812 134.29492 L 134.29492 170.07812 L 138.30469 170.07812 L 170.07812 138.30469 L 170.07812 134.29492 z M 170.07812 157.01172 L 157.01172 170.07812 L 161.02148 170.07812 L 170.07812 161.02148 L 170.07812 157.01172 z "
     id="path4787" />
</svg>
