<svg version="1.0" xmlns="http://www.w3.org/2000/svg" width="2666.667" height="2666.667" viewBox="0 0 2000 2000"><path d="M53.2 53.3L0 106.5l.2 23.3.3 23.2L77 76.5 153.5 0h-47L53.2 53.3zM186.7 186.8L0 373.5l.2 23.3.3 23.2 210-210 210-210h-47L186.7 186.8zM320.2 320.3L0 640.5l.2 23.3.3 23.2L344 343.5 687.5 0h-47L320.2 320.3zM453.7 453.8L0 907.5l.2 23.8.3 23.7L478 477.5 955.5 0h-48L453.7 453.8zM1107.1 68.4l-68.3 68.3 6.3 1.2c3.5.7 11.9 2.9 18.7 4.8l12.4 3.6 73.2-73.2L1222.5 0h-47l-68.4 68.4zM1318.5 124l-123.9 123.9 5.6 11.8c3.1 6.5 6.2 13.4 6.9 15.3.7 1.9 1.5 3.8 1.8 4.2.4.4 63.6-62.2 140.6-139.2l140-140h-47l-124 124zM1476.1 233.4c-146.8 146.8-232.8 233.5-232 233.8.8.3 7 4.7 13.8 9.8l12.4 9.2 243.1-243.1L1756.5 0h-47l-233.4 233.4zM1679.6 296.9c-228 228.1-296.7 297.3-295.9 298.3.8 1 17.4 22.6 19 24.8.2.2 134.7-133.9 298.8-298L2000 23.5V0h-23.5l-296.9 296.9zM983.1 212c-49.2 6.2-90.9 36-112.6 80.3-7 14.4-11.5 28.8-13.5 43.4-1.6 11.7-.8 39 1.5 49.3 6.2 28.1 18.8 51.3 39.2 71.9 6.2 6.3 11.2 11.5 11 11.7-.1.1-8 4.1-17.6 8.9C737.4 554.2 629.5 671.9 591 804.8c-25.7 88.9-19.3 177.8 18.1 251.2 21.3 41.8 54.4 78.4 92.7 102.2 5.3 3.4 9.9 6.2 10.1 6.4.2.2-4 4.9-9.3 10.5-32 33.6-53.7 71.7-63.5 110.9-2.3 9.5-5.1 27.1-5.1 32.5 0 1.9-1.1 6-2.5 9.2-11 24.7-10.2 61 2.1 100.5l3.7 11.9 8.3 7.9c38.4 36.8 109.2 64.9 199.4 79 21.4 3.3 21.3 3.3 7 5.8-58.5 10.2-105.3 13.3-229.5 15.2-94.6 1.4-131.5 3.2-170.5 8.1-16.6 2.1-37.6 5.8-48.3 8.5-3.2.8-10.7 2.4-16.7 3.4-53.2 9.6-102.6 42-140.8 92.5-10.2 13.5-12.6 18.9-12.6 28.5.1 5.6.6 8.8 2.3 12.5 4.4 9.9 18.1 25.6 30.7 35 19.7 14.8 40.8 21.5 68.2 21.5 21 0 40.8-3.6 67.2-12.4 13.1-4.3 23.9-6.8 40-9.5 47.1-7.8 97.5-9.3 219-6.6 91.2 2 164.7 1.7 200-.9 51.6-3.8 92.2-10.8 126.2-21.7l12.8-4.1 11.4 3.7c41.5 13.3 89.1 20.5 155.1 23.5 31.3 1.4 98.2 1.2 175.9-.6 144.4-3.4 208.3.6 255.1 16 30.1 10 48.4 13.1 72.5 12.3 17.8-.5 24.6-1.8 39.5-7.6 16.2-6.2 34.9-20.8 46.9-36.4 7.8-10.3 9.9-15.5 10-24.9 0-12.2-3-17.2-21.1-34.9-30-29.5-65.6-54.3-104.2-72.7-23-11-35.4-15-61.1-20.1-43.4-8.5-86.5-11.3-202-13.1-91.8-1.4-127.5-2.9-170-7.1-33-3.2-73.2-9.6-69.5-11 1.1-.3 10.8-2.1 21.5-3.8 86.6-13.9 155.5-41.3 193.3-77 7.9-7.5 10.5-12 14.6-26 5.4-18.1 7.3-30.1 7.8-49.2.6-18.6-.4-27-4.6-39-1-3-2.5-7.4-3.4-9.9-.9-2.5-2.1-9.2-2.7-15-5-46.6-28.9-94.2-67.6-134.9-5.3-5.6-9.5-10.3-9.3-10.5.2-.2 4.5-2.8 9.4-5.9 38.8-23.9 71.7-60 93.5-102.8 33.3-65.3 42-142.6 25-222.9-30.3-143-141.1-272-304.5-354.2-11-5.5-20.1-10.1-20.2-10.2-.2-.2 4.8-5.4 11-11.7 20.2-20.5 33.1-44.2 39.2-71.9 2.3-10.3 3.1-37.6 1.5-49.3-4.3-31.5-20.3-62.5-43.9-85-25.9-24.6-58.8-38.2-95.1-39.2-7.4-.2-16.8 0-20.9.5zm31.4 447c6.3 3.1 12.4 9.2 15.6 15.5l2.4 5 .5 43.5.5 43.5 43.5.5 43.5.5 5 2.4c6.3 3.2 12.4 9.3 15.6 15.6 2 4.2 2.4 6.4 2.4 14.5s-.4 10.3-2.4 14.5c-3.2 6.3-9.3 12.4-15.6 15.6l-5 2.4-43.5.5-43.5.5-.5 43.5-.5 43.5-2.5 5c-3.1 6.4-9.2 12.4-15.5 15.6-4.2 2-6.4 2.4-14.5 2.4s-10.3-.4-14.5-2.4c-6.3-3.2-12.4-9.3-15.6-15.6l-2.4-5-.5-43.5-.5-43.5-43.5-.5-43.5-.5-5-2.4c-6.3-3.2-12.4-9.3-15.6-15.6-2-4.2-2.4-6.4-2.4-14.5s.4-10.3 2.4-14.5c3.2-6.3 9.3-12.4 15.6-15.6l5-2.4 43.5-.5 43.5-.5.5-43.5c.4-31.8.8-44.3 1.8-46.3 3.8-8.7 11.4-16 20-19.2 6-2.3 19.6-1.5 25.7 1.5zm219.8 465.4c2.6 1 7.2 4 10.1 6.7 14.4 13.2 14.6 35.2.4 48.5-2.7 2.5-7 5.5-9.6 6.7l-4.7 2.2h-461l-4.7-2.2c-16.8-7.7-24.7-27.8-17.4-44 2.8-6.1 8-12.1 13.2-15.3 8.1-5.1-3-4.9 241.4-4.7 219 .2 227.7.3 232.3 2.1zm108.3 177.1c15.7 4.6 26.3 21.1 23.6 36.5-2.1 11.8-8.9 20.6-19.7 25.7l-6 2.8h-681l-6-2.8c-15-7-22.9-22.7-19.1-37.8 3-11.7 10.7-20.2 21.9-24 5-1.8 20.6-1.8 343.3-1.9 295.4 0 338.7.2 343 1.5zM1738.8 504.7l-260.6 260.8 2.8 8.8c1.5 4.8 3.8 12.8 5.1 17.7 1.3 5 2.6 9 2.9 9 .3 0 115.4-114.9 255.8-255.3L2000 290.5l-.2-23.3-.3-23.2-260.7 260.7z"/><path d="M390.2 785.3L0 1175.5v47l292.1-292C576.6 646 584.4 638.2 593.8 625c38.9-54.5 85.9-101.5 147.2-147.2 11.5-8.6 19.9-16 32.8-29l17.3-17.4-1.6-4.4c-2-5.7-7.5-27-7.5-29.2 0-.9-.4-1.9-.8-2.2-.5-.3-176.4 175.1-391 389.7zM1743.3 767.2L1487 1023.5l-3.1 10c-4.8 15.5-14.5 39.4-22.4 55.3l-7.3 14.5 272.9-272.9L2000 557.5l-.2-23.3-.3-23.2-256.2 256.2zM1724.8 1052.7L1450 1327.5l1.5 9.5c.9 5.2 1.9 14.8 2.3 21.2l.7 11.8 272.8-272.8L2000 824.5l-.2-23.3-.3-23.2-274.7 274.7zM249.2 1193.3L0 1442.5l.2 23.3.3 23.2 251.9-251.9 251.8-251.8-1.5-9.4c-.9-5.2-2.1-14.5-2.8-20.7-.6-6.1-1.2-11.2-1.3-11.2 0 0-112.3 112.2-249.4 249.3zM1782.5 1262c-119.3 119.3-216.7 217.1-216.5 217.3.3.3 6.3 1.4 13.3 2.6 7 1.2 15.8 2.8 19.5 3.6l6.7 1.4 197.3-197.2 197.2-197.2-.2-23.8-.3-23.7-217 217zM284.7 1424.8L0 1709.5v47l295-295c162.3-162.2 295-295.4 295-295.9s-2.4-3.6-5.3-7-7.5-8.9-10.1-12.4c-2.7-3.4-4.9-6.2-5-6.2-.1 0-128.2 128.1-284.9 284.8zM1876.7 1435.8L1754 1558.5l11.1 9c6.1 5 12 9.6 13.1 10.4 1.8 1.4 8.7-5.3 111.9-108.5l109.9-109.9-.2-23.3-.3-23.2-122.8 122.8zM527.5 1449.1l-24 24 19.5-.6c29.5-.9 28.8-.7 34.5-6.5l4.8-4.9-3.6-12.3c-2-6.8-4.2-14.6-4.9-17.3-.6-2.8-1.5-5.3-1.8-5.7-.3-.4-11.3 10.1-24.5 23.3zM1904.3 1675.7c-115 115.6-91.2 91.8-218.8 218.8l-106 105.5h47l186.8-186.8 186.7-186.7-.2-23.3-.3-23.3-95.2 95.8zM98.7 1877.8L0 1976.5v23.5h23.5l99.3-99.3c54.5-54.5 99.2-99.5 99.2-99.8 0-.4-2.5-2.6-5.6-4.9-3-2.3-8.6-7-12.3-10.5l-6.7-6.4-98.7 98.7zM995 1785.6c-4 1.2-15.7 12.6-111 107.9L777.5 2000h47l103.7-103.7 103.8-103.8-14.3-3.6c-7.8-1.9-15.1-3.8-16.2-4.1-1.1-.3-4 0-6.5.8zM606.5 1903.9l-96 96.1h47l95.5-95.5 95.5-95.5H741c-4.1 0-14.5-.3-23-.6l-15.5-.6-96 96.1zM1256.5 1808.7l-21 .3-95.5 95.5-95.5 95.5h48l95.3-95.3c52.3-52.3 95.2-95.5 95.2-96 0-.4-1.2-.6-2.7-.5-1.6.2-12.3.4-23.8.5zM1408.5 1904l-96 96h47l93.5-93.5c61.8-61.8 92.9-93.6 92-93.9-1.5-.5-36-4.6-39-4.6-.8 0-44.7 43.2-97.5 96zM466 1811c-15.5 2.1-26.3 4.2-35.8 7.1l-6.7 2.1-90 89.9-90 89.9h47l95.5-95.5c52.5-52.5 95-95.5 94.5-95.4-.6 0-7.1.9-14.5 1.9zM1923 1923.5l-76.5 76.5h47l53.3-53.3 53.2-53.2-.2-23.3-.3-23.2-76.5 76.5z"/></svg>