<svg version="1.0" xmlns="http://www.w3.org/2000/svg" width="2666.667" height="2666.667" viewBox="0 0 2000 2000"><path d="M993.2 234c-10.5 2.2-20.4 10.7-24.2 20.6-1.9 5.1-2 7.8-2 36.4v30.9l-42.7.3-42.8.3-6.2 2.9c-6.9 3.1-12.8 8.8-16.5 15.8-2 3.7-2.3 5.8-2.3 14.3 0 8.9.3 10.6 2.7 15 3.2 6.2 10.2 12.8 16.6 15.8 4.6 2.1 5.8 2.2 48 2.5l43.2.3v114.8l-5.7 1.7c-44.1 12.8-84.1 48.9-114.3 103.5-7.8 13.9-16.6 34.4-19.9 46.1-5.6 20.2-6.6 28.8-6.6 57.8 0 26.3 1.2 40.2 5 60.1.7 3.8 1.1 6.9 1 6.9-.2 0-6.3-4.2-13.7-9.4-72.8-51.1-151.7-82.8-232.3-93.3-21.2-2.7-71.5-2.5-91.2.5-89.4 13.5-156.4 55.7-205.4 129.6-13.6 20.6-31 55.1-40.2 80.1-24.5 66-23.6 136.9 2.4 202.3 18.6 46.8 49 91.1 92.4 134.8 35.8 36 75.9 67.4 124 97.1l15 9.2 1.6-5.9c2-7.3 5.4-12.7 11.3-17.6l4.4-3.7-15.2-8.7c-74.1-42.4-134.6-95.5-172.8-151.5-29.2-42.9-46-86.9-50.9-133.4-1.8-17.8-.7-50.2 2.5-68.1 7-40.3 20.5-75.2 40.5-105.1 42.5-63.3 103.1-99.8 185-111.5 14.8-2.1 55.3-2.9 73.7-1.5 147.3 11.6 306 102.8 406.1 233.5 7.6 9.9 26.9 38.4 32.9 48.5l3 5.3 5.9-9.9c15.7-26.4 35.7-54.6 56.5-79.3 14.9-17.8 52.8-55.5 71-70.7 86-71.7 181-114.7 279.5-126.5 17.1-2 69.7-1.7 85.5.6 53.8 7.6 99 25 139 53.6 37.2 26.6 76 70.4 87.4 98.8 12.8 31.7 18.7 62.5 18.7 96.8 0 54.7-16.2 104-51.7 157.4-42.3 63.7-112.3 126.5-198.7 178.3l-16.8 10 .8 4.1c2.4 12.1-.3 22.8-7.8 31-5.6 6.1-10.8 9.1-19.1 10.7-8.5 1.7-13.5.1-38.2-12.1-100.8-49.8-226.6-78.7-375.5-86-26.2-1.3-91-1.3-117.2 0-125.6 6.2-237.2 28.4-329.7 65.6-10.3 4.1-30.3 13.2-44.5 20.1l-25.9 12.7h-7.6c-14.9-.1-26.6-8.4-31.5-22.4-1.5-4.2-1.6.8-1.6 67 .1 39.3.4 70.4.8 69 1.6-5.2 5.3-11.2 9.3-15.1 4.3-4.2 32.9-19.1 55.3-28.9 98.4-42.9 212.3-68.2 351.5-78.1 24-1.7 116-2.3 143.1-1 161.3 8 300.5 40.4 407.2 94.9 22.3 11.4 27.2 15.9 31.3 28.7 1.1 3.3 1.3-7.1 1.3-61.6l.1-65.6 18-10.7c93.6-55.8 173.3-127.2 219.7-196.6 18.5-27.8 34.7-61 43.2-88.5 8.8-28.6 12.3-51.8 12.3-81 0-31.8-3.6-53.6-13.6-84-9.7-29.2-18.8-46.7-37.8-72.4-18.2-24.7-46.8-54.5-68.8-71.5-55-42.7-117.4-66.8-188.5-72.7-19.6-1.6-60.7-.6-80 2-68.7 9.3-135 34-195.5 72.9-5.2 3.4-9.6 6-9.7 5.8-.2-.2.2-3.8.9-8.2 2-13.1 1.7-58.6-.5-71.8-5-29.3-17.2-58.1-38.2-89.6-10.9-16.3-17.3-24.2-30.3-37.3-21.4-21.7-44.7-36.4-69-43.7l-7.2-2.1V389.1l43.3-.3c42.1-.3 43.3-.4 47.9-2.5 6.4-3 13.4-9.6 16.6-15.8 2.4-4.4 2.7-6.1 2.7-15 0-8.5-.3-10.6-2.3-14.3-3.7-7-9.6-12.7-16.5-15.8l-6.2-2.9-42.7-.3-42.8-.3V291c0-28.6-.1-31.3-2-36.4-5.5-14.5-22.4-23.8-37.8-20.6z"/><path d="M513 789.6c-72.2 4.9-124.5 32.8-159.2 84.9-12.6 19-23.1 45.3-28.3 70.7-14.8 73.6 11.1 143.4 78.1 210.2 34 33.9 82.6 68.8 127.6 91.7 16.1 8.1 21.4 12.5 25.3 20.8l2.8 5.8 10.6-4.2c101.5-40.8 235-65.3 376.2-69.1l25.7-.7-2.2-4.6c-2-4.4-2.1-6.3-2.6-53.1l-.5-48.5-4.8-10.3c-14.5-31.6-31-58.9-52.1-86.6-83.3-109.6-220.3-191-344.7-205-13.8-1.5-42.2-2.6-51.9-2zM1433.9 790c-87.2 5.5-182.7 47.8-262.4 116.1-15.2 13.1-44.2 42-56.9 56.9-32.1 37.5-59.8 81.6-77.5 123.2l-4.1 9.6.7 43.9c.5 39.1.4 44.5-1.1 50.3-.9 3.6-2.3 7.4-3.1 8.6-1.4 2.1-1.3 2.1 11.3 2.8 134 7 251 30.4 348.5 69.6l21.7 8.7 15.6-8.4c66.4-35.7 131.2-84.3 172.2-129.2 63.6-69.6 88.1-137.2 74.2-204.4-5.1-24.8-10.2-37.2-21.2-51.9-38.2-50.7-91.3-82.9-153.3-92.8-22.3-3.6-41.2-4.4-64.6-3zM931 1423c-130 5.2-247.2 28-343 66.6-10.2 4.2-29.5 12.9-43 19.6-23.5 11.5-24.8 12.1-32 12.5-6.1.4-8.6.1-13.5-1.8-8.1-3-15.7-10.4-19-18.4l-2.5-6 .1 71.5c0 69.9 0 71.4 1.8 66.3 3.8-11.1 8.4-14.9 33.2-27.3 154.3-77.4 378.5-110.2 600.9-87.9 93.6 9.4 182.7 29.2 259 57.6 33.2 12.4 82.5 35.2 92.4 42.8 4.4 3.4 8.5 9.4 10.7 15.8 1.8 5.1 1.8 3.7 1.8-67.8 0-61.9-.2-72.4-1.4-68.8-4.9 15.9-18.4 25.2-34.8 24-6.3-.4-8.5-1.2-22.6-8.5-97.6-50.2-226.6-81.1-373.1-89.2-26.3-1.5-89.7-2-115-1z"/><path d="M919 1579c-120.2 6.1-226.8 26.5-317 60.7-22.2 8.4-31.4 12.4-58.3 25.5-24 11.7-25 12.2-31.5 12.2-3.7.1-8-.3-9.7-.7-4.8-1.3-2.2.5 14 9.8 94.2 54.1 220 90.7 354 102.9 40.4 3.7 49.7 4.1 107 4.1s67.8-.4 107.5-4.1c120.1-11 232-40.8 321.8-85.8 16.8-8.4 42.5-22.6 47.7-26.3 1.9-1.3 1.8-1.4-1-.6-1.6.4-6.2.8-10.1.7-7 0-7.4-.2-29.5-11.2-33.7-16.7-57.5-26.4-94.6-38.6-77.5-25.3-163.7-40.8-264.8-47.7-20.4-1.4-113.8-2-135.5-.9zM478 1656.6c0 6.6-.5 5.9 7.8 11.1 2.6 1.7 2.6 1.6-.8-2.6-1.9-2.4-4.2-6.7-5.2-9.5l-1.7-5.1-.1 6.1z"/></svg>