<svg version="1.0" xmlns="http://www.w3.org/2000/svg" width="2666.667" height="2666.667" viewBox="0 0 2000 2000"><path d="M53.2 53.3L0 106.5l.2 23.3.3 23.2L77 76.5 153.5 0h-47L53.2 53.3zM186.7 186.8L0 373.5l.2 23.3.3 23.2 210-210 210-210h-47L186.7 186.8zM320.2 320.3L0 640.5l.2 23.3.3 23.2L344 343.5 687.5 0h-47L320.2 320.3zM797.7 109.8C737.4 170.1 688 219.8 688 220.2c0 .4 1.9 1.7 4.3 2.9 2.3 1.2 8.5 5 13.8 8.5 5.3 3.5 10 6.4 10.5 6.4s54.5-53.6 119.9-119l119-119h-48L797.7 109.8zM1077.1 98.4l-98.3 98.3 5.7 2.7c3.2 1.4 5.9 2.6 6.2 2.6.5 0 13 7.1 16.3 9.3l2.6 1.6L1116 106.5 1222.5 0h-47l-98.4 98.4zM1272.8 169.7L1103 339.5l18.3 3.8c10 2.1 18.9 3.7 19.7 3.7.8 0 79.6-78.1 175-173.5L1489.5 0h-47l-169.7 169.7zM1508.7 200.8l-200.9 200.9 15.3 8.2 15.2 8.3 209.1-209.1L1756.5 0h-47l-200.8 200.8zM1721 255.5L1465.5 511l9.9 9.2c5.5 5.1 11 10.1 12.4 11.2l2.4 1.9 254.9-254.9L2000 23.5V0h-23.5L1721 255.5zM1794.9 448.7l-204.6 204.8 9.1 14.2 9.1 14.2 195.8-195.7L2000 290.5l-.2-23.3-.3-23.2-204.6 204.7zM921.7 279.9c-6.9 2.8-28.4 17.5-40.2 27.4-27.2 22.9-53.8 55.9-73.9 91.5l-6.8 12.2h-48.5l-9.9-14.7c-25.8-38.5-51.6-68.3-72.9-84.3-20.6-15.5-42.4-22.3-61.1-19.1-14.8 2.6-31.6 13.7-37.8 25.2-3.3 5.9-3.9 11.8-5.1 51.4-1.4 42.3 3.1 67.9 16.7 95.2 5.8 11.8 5.8 11.9.1 27.3-10.9 29.3-34.6 64.9-66 99.6-10.8 11.8-11.9 13.6-46.5 72.9-124.1 212.7-207.9 377.3-229.2 450.5-7 24.3-8.2 35.1-6.7 64.1 3.8 72.4 20.1 119.8 52.1 152 18.8 18.8 40.4 30.2 68.6 36 14.4 2.9 43.6 3.6 66.2 1.5 9.5-.9 19-1.6 21.1-1.6 3.8 0 3.9.1 5 4.6 2.4 9.4 9 20.3 17.4 28.5 8.5 8.4 14.1 10.5 31.9 11.9 35.2 2.9 64.9-8.3 90.8-34 10.9-10.8 18.8-20.4 42.2-51.5 35.1-46.7 59.8-70.8 101.3-99.3 49.9-34.1 89-62.8 127-93.3 48-38.4 76.1-63.4 114.3-101.5 25.6-25.5 27.2-27 27.2-24 0 1.8-.7 10.6-1.5 19.7-9.5 100.4-39.5 180.6-93.9 250.3-22.5 28.8-47.1 55-99.6 105.9-72.8 70.6-101.6 106-127.4 156.7-28.4 55.8-42.1 113.5-42.9 181.5-.2 17.9-.2 18 2.6 24.1 3.5 7.6 9.4 13.5 17.2 17.1l6 2.8h1037l6.7-3.3c7.4-3.6 12.4-8.7 15.9-16.1 3.3-6.8 3.8-21 3.8-113.1.1-133.2-3.6-219.9-14-325-48.4-489.8-220.9-765-540.4-862-44-13.3-95.4-24.3-143.5-30.6-7.4-.9-13.8-2-14.2-2.3-.4-.4-1.4-7.2-2.3-15.1-7.2-68.8-24.8-105.6-56.1-117.6-9.5-3.6-23.7-4.3-30.7-1.5zm186.8 185.6c42.7 7.9 60.9 12.3 86 20.7 29.3 9.7 62.6 24.7 90.6 40.7 123.9 71 221.8 196.9 286.7 368.6 66.2 175.3 99.1 394.4 99.2 660.7 0 69.4-2.9 166.3-5.9 193.3l-.6 6-49.9.3-49.9.2.6-7.2c1.1-12.1 3.5-61.1 4.9-97.3 1.7-45.1 1.7-206.9 0-245-2-44.4-4.6-85.8-7.2-115.5-20.5-229.8-70.9-394.4-163.2-533-59.7-89.5-127.1-148.8-216-190.1-28-12.9-70.4-28.8-101.6-37.9-7.9-2.4-11.1-3.7-10.8-4.6.3-.8 4.4-13.8 9.1-29.1 4.7-15.3 9.1-29.3 9.6-31.1.8-2.4 1.5-3.1 2.7-2.8 1 .3 8 1.7 15.7 3.1zM691.4 600.9c15.8 7.8 24.6 23.5 24.6 44.1 0 46.5-47 120.4-84.7 133.1-5.1 1.7-9.1 2.3-16.3 2.3-8.7.1-10.1-.2-16.3-3.1-12.4-5.9-20.7-16-24.3-29.8-1.8-6.7-1.8-21.5.1-31.2 6.1-31.7 29.5-73.8 54.1-97.4 9.3-8.8 15-12.9 23.8-17 8.4-3.9 13.4-4.9 23.9-4.5 7.4.3 9.7.8 15.1 3.5zM418.5 1081c17.7 6.7 31.1 21.7 35.5 39.5 1.7 7.1 1.4 20.5-.5 27.2-4.3 14.8-15.7 28.9-28.5 35.1-22 10.8-46.5 6.8-63.6-10.2-11.2-11.1-16.5-23.7-16.5-38.8-.1-10.3 1.3-16.2 5.9-25.7 6.3-13.1 19.4-23.7 34.7-28.3 8.5-2.5 24.7-1.9 33 1.2zM244.7 662.8L0 907.5l.2 23.8.3 23.7 249.2-249.2L499 456.5l-3.5-14c-1.9-7.7-3.8-16.4-4.1-19.3-.4-2.8-1-5.2-1.3-5.2-.3 0-110.7 110.1-245.4 244.8zM1841.3 669.2C1754.2 756.3 1683 828 1683 828.5c0 .6 2.8 8.3 6.2 17.3l6.1 16.3 152.4-152.3L2000 557.5l-.2-23.3-.3-23.2-158.2 158.2zM1872.5 905l-127 127 1.8 8.2c1 4.6 2.8 13.1 4 19 1.1 6 2.4 10.8 2.7 10.8.3 0 55.7-55.2 123.3-122.8L2000 824.5l-.2-23.3-.3-23.2-127 127zM107.2 1068.3L0 1175.5v47l89.4-89.4 89.5-89.5 5.7-14c5.5-13.7 17.9-42 26.2-59.9 2.3-4.8 4-8.7 3.9-8.7-.1 0-48.5 48.3-107.5 107.3zM1891.4 1153.2l-108.1 108.3 1.9 19.5c1.1 10.7 2.3 20.3 2.7 21.3.5 1.3 23.7-21.4 106.4-104.1l105.7-105.7-.2-23.8-.3-23.7-108.1 108.2zM85.7 1356.8L0 1442.5v47l92-92.1 92.1-92-2.2-5c-1.2-2.7-4.1-10.4-6.4-17.1l-4.2-12.1-85.6 85.6zM1899.8 1412.7l-99.8 99.8.1 12.5c.1 6.9.4 17.1.8 22.8l.6 10.2 99.3-99.3 99.2-99.2-.2-23.3-.3-23.2-99.7 99.7zM145.7 1563.8L0 1709.5v47l163.4-163.4 163.5-163.5-11.7-3.6c-6.4-2.1-14.1-4.7-17-5.8-2.9-1.2-5.6-2.2-6-2.2-.4 0-66.3 65.6-146.5 145.8z"/><path d="M538.5 1476.6c-3.8.8-14.6 1.7-24 2l-17 .6-248.7 248.7L0 1976.5v23.5h23.5L286 1737.5c144.4-144.4 261.8-262.4 261-262.4-.8.1-4.6.8-8.5 1.5zM1789.5 1790l-210 210h47l186.8-186.8 186.7-186.7-.2-23.3-.3-23.2-210 210zM399.5 1844l-156 156h47l132.8-132.8L556 1734.5l-.2-23.3-.3-23.2-156 156zM594 1916.5l-83.5 83.5h47l83.5-83.5 83.5-83.5h-47l-83.5 83.5zM861 1916.5l-83.5 83.5h47l83.5-83.5 83.5-83.5h-47l-83.5 83.5zM1128 1916.5l-83.5 83.5h48l82.8-82.8c45.5-45.5 82.7-83 82.7-83.5 0-.4-10.5-.7-23.2-.7h-23.3l-83.5 83.5zM1396 1916.5l-83.5 83.5h47l77.8-77.8 77.8-77.8-9.2-5.7-9.2-5.7h-17.2l-83.5 83.5zM1923 1923.5l-76.5 76.5h47l53.3-53.3 53.2-53.2-.2-23.3-.3-23.2-76.5 76.5z"/></svg>