<svg version="1.0" xmlns="http://www.w3.org/2000/svg" width="2666.667" height="2666.667" viewBox="0 0 2000 2000"><path d="M53.2 53.3L0 106.5l.2 23.3.3 23.2L77 76.5 153.5 0h-47L53.2 53.3zM186.7 186.8L0 373.5l.2 23.3.3 23.2 210-210 210-210h-47L186.7 186.8zM320.2 320.3L0 640.5l.2 23.3.3 23.2L344 343.5 687.5 0h-47L320.2 320.3zM453.7 453.8L0 907.5l.2 23.8.3 23.7L478 477.5 955.5 0h-48L453.7 453.8zM1019.5 156.1C933.7 242 864.2 312 865 311.7c.8-.3 5.7-2.2 10.8-4.2 11.6-4.5 29.4-9.6 43.2-12.4l10.5-2.2L1076 146.5 1222.5 0h-47l-156 156.1zM1280.1 162.4l-162.4 162.4 4.8 2.9c2.6 1.5 9.1 5.6 14.4 9.1l9.6 6.2L1318 171.5 1489.5 0h-47l-162.4 162.4zM1476.7 232.8l-232.8 232.8 1.9 4.5c1 2.4 3.8 10 6.1 16.9 2.4 6.9 4.4 12.6 4.5 12.7.1.1 112.7-112.3 250.1-249.7l250-250h-47l-232.8 232.8zM1633.7 342.8l-342.8 342.8 3.8 5c2.1 2.7 6.3 8.3 9.2 12.4 3 4.1 5.8 7.9 6.3 8.5.5.6 131.8-130 345.3-343.5L2000 23.5V0h-23.5l-342.8 342.8zM1686.2 557.3l-313.3 313.3 1.5 12.5c.9 6.8 1.9 16.3 2.3 21.2l.8 8.7 311.3-311.3L2000 290.5l-.2-23.3-.3-23.2-313.3 313.3zM950 368.5c-39.1 5.7-74.5 20.8-104 44.4-8.9 7.1-24.9 23-32.3 32.1-25.1 31-41.1 69.5-45.8 110.4-1.5 12.8-.6 45.1 1.6 57.1 3.4 19.1 9 37.2 16.3 52.9l3.6 7.8-2.9 2.2c-10.6 7.6-24.9 20-36.5 31.6-49.4 49.3-80.3 110.6-91.2 180.5-2.6 16.8-3.6 56.9-1.9 75.2 6 64.3 30.4 123.2 71.8 174l8.3 10.2-7.2 4.2c-86.7 50.2-165 138.3-217.2 244.4-54 109.6-79.5 228.8-79.6 372.7v20.8h1089v-31.3c0-104.1-14.9-196-46.2-284.7-41.9-119.1-114.9-223.2-203.9-291-12.6-9.6-36.7-25.7-46.6-31.1-6.5-3.5-7.4-4.8-4.8-6.9 2.9-2.4 16.2-19.5 23.7-30.5 61.8-90.4 73-206.3 29.4-306.9-10.5-24.4-26.5-50.9-43.7-72.7-10.6-13.4-39.5-42.2-52.6-52.3-5.7-4.4-10.3-8.6-10.3-9.3 0-.8 1.1-3.5 2.4-6.1 1.3-2.6 4-9.1 6-14.5 37.5-100.5-6.2-213-101.6-261.7-19.5-10-38.7-16.4-61.3-20.5-12.4-2.3-49.6-2.9-62.5-1zM355.7 819.8L0 1175.5l.2 23.3.3 23.2 346.2-346.2 346.2-346.3 2.1-10.2c2.7-13.7 8.2-32.3 13-44.6 2.2-5.6 3.8-10.2 3.7-10.4-.2-.1-160.4 159.9-356 355.5z"/><path d="M1678.8 831.7l-320.7 320.8 12 11.4 12.1 11.4 308.9-308.9L2000 557.5l-.2-23.3-.3-23.2-320.7 320.7zM1739.1 1038.4l-260.4 260.4 5.5 9.4c3 5.1 6.8 11.7 8.4 14.5 1.6 2.9 3.1 5.3 3.4 5.3.3 0 113.8-113.3 252.3-251.8L2000 824.5l-.2-23.3-.3-23.2-260.4 260.4zM292.2 1150.3L0 1442.5v47l289-289c159-159 289.2-289.9 289.4-291 .3-1.1.9-8.1 1.6-15.5.6-7.4 2-18.4 3-24.5 1-6 1.8-11.1 1.6-11.2-.1-.1-131.7 131.3-292.4 292zM1780.3 1264.2l-219.2 219.3 3.3 11c1.8 6 4.1 14.3 5 18.2 1 4 2.1 7.3 2.5 7.3.3 0 96.8-96.2 214.4-213.8l213.7-213.7-.2-23.8-.3-23.7-219.2 219.2zM306.2 1403.3L0 1709.5v47l259.1-259c191.5-191.5 261.8-262.4 269.7-272 25.2-30.7 59.9-66.2 85.9-87.9l13-10.8-7.3-14.5c-4-8-7.4-14.6-7.6-14.8-.2-.2-138.2 137.4-306.6 305.8zM1799.3 1513.2l-200.2 200.3.7 22.8.7 22.7 199.8-199.8 199.7-199.7-.2-23.3-.3-23.2-200.2 200.2zM1789.5 1790l-210 210h47l186.8-186.8 186.7-186.7-.2-23.3-.3-23.2-210 210zM182.7 1793.8L0 1976.5v23.5h23.5l168.1-168.2 168.2-168.3 1.2-12c.6-6.6 2-18.3 3-26 1-7.7 1.7-14.1 1.6-14.2-.1-.1-82.4 82-182.9 182.5zM1923 1923.5l-76.5 76.5h47l53.3-53.3 53.2-53.2-.2-23.3-.3-23.2-76.5 76.5zM310 1933.5l-66.5 66.5h47l66.5-66.5 66.5-66.5h-47l-66.5 66.5zM577 1933.5l-66.5 66.5h47l66.5-66.5 66.5-66.5h-47l-66.5 66.5zM844 1933.5l-66.5 66.5h47l66.5-66.5 66.5-66.5h-47l-66.5 66.5zM1111 1933.5l-66.5 66.5h48l66.5-66.5 66.5-66.5h-48l-66.5 66.5zM1379 1933.5l-66.5 66.5h47l66.5-66.5 66.5-66.5h-47l-66.5 66.5z"/></svg>