<svg version="1.0" xmlns="http://www.w3.org/2000/svg" width="2666.667" height="2666.667" viewBox="0 0 2000 2000"><path d="M990.5 233.6c-14 1.9-19.2 3-27.5 5.6-50.8 16.2-85 62.9-85 116.3 0 32.9 12.4 63 35.5 86 10.9 10.9 21 18 35.3 24.7 5.9 2.8 10.9 5.2 11.1 5.4.5.4-102.3 497.4-102.9 497.4-.3 0-169.3-440.6-176.7-460.9-.2-.3 1.9-1.8 4.5-3.2 25.5-14.2 47.2-43.1 55.9-74.7 2.5-9.1 2.7-11.1 2.7-30.2s-.2-21.1-2.7-30.2c-11.5-41.6-41.9-73.7-81.5-86.2-24.2-7.6-51.1-7.5-75 .3-56.5 18.5-91.6 75.5-82.7 134.4 7.3 48.6 44.6 89.4 91.8 100.3l7.7 1.8V534c-.1 24.5-9.8 466.1-10.3 466.6-.2.3-55.4-83.8-122.5-186.7L346.1 626.6l8.4-8.7c12.6-13.1 21.4-27.2 27.3-43.9 8.3-23.7 9.2-48.3 2.6-73.2-3-11.4-12.4-30.8-19.6-40.3-44.1-58.5-128.4-66.1-181.4-16.2-14.6 13.7-23.1 26.2-30.4 44.4-10 25.1-11 55.4-2.8 81.3 7.7 24.2 22.8 45.6 42.7 60.6 18.6 14 41.1 22.7 62.3 24.1 4.7.3 9.2.9 9.8 1.3.7.5 22.7 107.9 51.2 250.1 38.5 192.3 50.1 252.3 50.9 261.9 1.9 22.9 6.3 39.6 15.2 56.7 8.2 16.1 16 25.5 44.2 54.3 33.7 34.2 40.1 42.1 50.9 62.1 2.5 4.7 9.6 15.8 15.6 24.5 15.8 23 20.1 29.9 21.1 34.2 1.1 4.8-.9 20-6.1 45.7-2.2 11-4.2 20.9-4.4 22-.3 1.1-4.6 5.5-9.6 9.8-10.9 9.4-23 23.1-31.1 35.2-12.3 18.3-22.9 43.7-26.5 63.3-.8 4.8-1.9 9.2-2.2 9.8-.4.6-3.3 4.7-6.4 9-7.6 10.5-13.5 22.7-16.5 34.4-2.2 8.4-2.4 11-2 23 .5 15.2 2.3 22.2 8.8 35.1 12.4 24.8 39.6 48.3 66.9 57.9 39.8 14.1 104.6 32.7 155.4 44.5 248.2 57.8 509.5 54.7 756.1-9 39.6-10.2 104.1-29.7 124.1-37.4 8.4-3.3 16.4-9.2 25.6-18.9 34.2-36.2 36.8-84.1 6.9-125.8l-5.8-8.1.5-11.9c.9-22.4-4.3-45.1-14.9-65.4-6.8-13.1-13.3-21.6-25.8-33.9l-10.5-10.4-4.8-24.1c-5.6-28.5-7.2-40.7-5.8-45.7 1-3.6 3.7-7.9 22.1-34.9 5.8-8.5 12.5-19.1 14.9-23.5 10.5-19.5 17.1-27.6 50-61 28.8-29.3 36.5-38.7 44.7-54.8 8.8-17 13.4-34.1 15.2-57.2 1.3-15.7 100.1-510.3 102.2-511.6.8-.5 3.7-.9 6.5-.9 25.8-.1 60.3-16.2 80.2-37.5 19.4-20.7 30.8-46.1 33.1-74 3.1-37-10.2-72.3-37.2-98.2-31.4-30.1-74.3-41-116.9-29.7-11.4 3-30.8 12.4-40.3 19.6-58.7 44.2-66.1 128.6-15.8 181.7l9.2 9.8-122.1 187.2c-67.1 102.9-122.3 186.9-122.6 186.7-.4-.5-10.1-442.5-10.2-466.7v-13.6l6.2-1.3c26.4-5.1 55.1-24.3 72-48 18.3-25.7 26-58 21.3-89.3-7.8-52.1-49-93.7-101-102.3-13.2-2.1-35.5-1.4-47.2 1.5-45.2 11.3-78.6 43.9-91 88.9-2.5 9.1-2.7 11.1-2.7 30.2s.2 21.1 2.7 30.2c3.8 13.7 9.4 26.2 17 37.5 9.5 14.3 26.9 30.8 39.5 37.5 2.3 1.3 4.1 2.6 4 2.9-.2.4-39.9 104.2-88.3 230.8-48.4 126.5-88.2 230.1-88.5 230.1-.6 0-103.4-497-102.9-497.4.2-.1 5.6-2.8 11.9-5.8 19.4-9.3 32.6-20 44.9-36.1 51.1-67.2 20.6-164.5-59.8-190.6-12.6-4.1-36.4-6.9-46.6-5.5zM1076 1171c144.5 7.5 275.6 31.4 412 75 36.8 11.8 40.1 13.2 46.5 19.5 7.2 7.3 9.8 14.1 9.3 25-.4 9.4-2.8 15.2-8.8 21.4-5.8 6-13.1 9.3-21.6 9.9-6.8.4-8.3.1-28.5-6.6-40.8-13.5-70.2-22.2-106.9-31.6-161.2-41.4-328.5-55.9-496.5-43-121.4 9.3-240.9 33.4-361.8 73.1-24.9 8.1-26.5 8.5-33.2 8.1-17.1-1.1-29.5-13.8-30.3-31-.5-9.2 1.4-15.6 6.2-22 6.5-8.5 12.3-11 57.3-25.2 140.6-44.2 278.9-68.1 426.3-73.6 27.7-1 102.3-.5 130 1zm380.4 198c7.6 2.9 13.9 8.8 17.8 16.8 2.8 5.7 3.3 7.6 3.3 14.2s-.5 8.5-3.3 14.2c-3.9 8-10.2 13.9-17.8 16.8l-5.5 2H549.1l-5.5-2c-7.6-2.9-13.9-8.8-17.8-16.8-2.8-5.7-3.3-7.6-3.3-14.2s.5-8.5 3.3-14.2c3.9-7.9 10.2-13.9 17.6-16.7 5.1-2 9.2-2 456.3-2l451.2-.1 5.5 2zm-921.5 137c58.3 18.3 106.4 30.9 158.1 41.5 113.9 23.4 235.4 34.1 346.3 30.7 21.5-.7 45.7-1.7 53.7-2.2 130.3-8.6 247.6-30.6 370.7-69.6 18.8-5.9 21.4-6.5 27.3-6.1 26.2 1.7 39.9 31.6 24.4 53-5.1 7-10.8 10.1-29.9 16.2-138.1 43.9-272 67.8-417.5 74.5-27.9 1.3-108.4 1.3-136.5 0-143.2-6.6-279.9-30.9-414.8-73.8-21-6.7-26.5-9.5-31.8-16.6-13.7-18.1-6.1-43.9 15.1-51.6 9-3.2 13.7-2.7 34.9 4zM474 1634.4c3 .8 14.7 4.6 25.9 8.6 272.8 95.2 569 110.3 851.1 43.5 48-11.3 95.9-25.2 143-41.5 32.5-11.2 36.1-12.2 42.5-11.4 20.1 2.4 33.9 21.7 29.1 40.5-1.9 7.5-7.2 15.6-12.4 19.3-5 3.4-11.3 5.9-39.6 15.5-140.2 47.6-271.4 73.2-427.6 83.2-26.9 1.7-115.1 2.3-146.5 1-107.9-4.5-204.8-17.8-308-42.2-67.2-15.9-171.5-48.4-184.6-57.5-8.4-5.8-14.9-20.3-13.4-30.3 1.5-10.8 8.6-21 17.9-25.8 8.1-4.1 14.4-4.9 22.6-2.9z"/></svg>