<svg version="1.0" xmlns="http://www.w3.org/2000/svg" width="2666.667" height="2666.667" viewBox="0 0 2000 2000"><path d="M921.7 279.9c-6.9 2.8-28.4 17.5-40.2 27.4-27.2 22.9-53.8 55.9-73.9 91.5l-6.8 12.2h-48.5l-9.9-14.7c-25.8-38.5-51.6-68.3-72.9-84.3-20.6-15.5-42.4-22.3-61.1-19.1-14.8 2.6-31.6 13.7-37.8 25.2-3.3 5.9-3.9 11.8-5.1 51.4-1.4 42.3 3.1 67.9 16.7 95.2 5.8 11.8 5.8 11.9.1 27.3-10.9 29.3-34.6 64.9-66 99.6-10.8 11.8-11.9 13.6-46.5 72.9-124.1 212.7-207.9 377.3-229.2 450.5-7 24.3-8.2 35.1-6.7 64.1 3.8 72.4 20.1 119.8 52.1 152 18.8 18.8 40.4 30.2 68.6 36 14.4 2.9 43.6 3.6 66.2 1.5 9.5-.9 19-1.6 21.1-1.6 3.8 0 3.9.1 5 4.6 2.4 9.4 9 20.3 17.4 28.5 8.5 8.4 14.1 10.5 31.9 11.9 35.2 2.9 64.9-8.3 90.8-34 10.9-10.8 18.8-20.4 42.2-51.5 35.1-46.7 59.8-70.8 101.3-99.3 49.9-34.1 89-62.8 127-93.3 48-38.4 76.1-63.4 114.3-101.5 25.6-25.5 27.2-27 27.2-24 0 1.8-.7 10.6-1.5 19.7-9.5 100.4-39.5 180.6-93.9 250.3-22.5 28.8-47.1 55-99.6 105.9-72.8 70.6-101.6 106-127.4 156.7-28.4 55.8-42.1 113.5-42.9 181.5-.2 17.9-.2 18 2.6 24.1 3.5 7.6 9.4 13.5 17.2 17.1l6 2.8h1037l6.7-3.3c7.4-3.6 12.4-8.7 15.9-16.1 3.3-6.8 3.8-21 3.8-113.1.1-133.2-3.6-219.9-14-325-48.4-489.8-220.9-765-540.4-862-44-13.3-95.4-24.3-143.5-30.6-7.4-.9-13.8-2-14.2-2.3-.4-.4-1.4-7.2-2.3-15.1-7.2-68.8-24.8-105.6-56.1-117.6-9.5-3.6-23.7-4.3-30.7-1.5zm186.8 185.6c42.7 7.9 60.9 12.3 86 20.7 29.3 9.7 62.6 24.7 90.6 40.7 123.9 71 221.8 196.9 286.7 368.6 66.2 175.3 99.1 394.4 99.2 660.7 0 69.4-2.9 166.3-5.9 193.3l-.6 6-49.9.3-49.9.2.6-7.2c1.1-12.1 3.5-61.1 4.9-97.3 1.7-45.1 1.7-206.9 0-245-2-44.4-4.6-85.8-7.2-115.5-20.5-229.8-70.9-394.4-163.2-533-59.7-89.5-127.1-148.8-216-190.1-28-12.9-70.4-28.8-101.6-37.9-7.9-2.4-11.1-3.7-10.8-4.6.3-.8 4.4-13.8 9.1-29.1 4.7-15.3 9.1-29.3 9.6-31.1.8-2.4 1.5-3.1 2.7-2.8 1 .3 8 1.7 15.7 3.1zM691.4 600.9c15.8 7.8 24.6 23.5 24.6 44.1 0 46.5-47 120.4-84.7 133.1-5.1 1.7-9.1 2.3-16.3 2.3-8.7.1-10.1-.2-16.3-3.1-12.4-5.9-20.7-16-24.3-29.8-1.8-6.7-1.8-21.5.1-31.2 6.1-31.7 29.5-73.8 54.1-97.4 9.3-8.8 15-12.9 23.8-17 8.4-3.9 13.4-4.9 23.9-4.5 7.4.3 9.7.8 15.1 3.5zM418.5 1081c17.7 6.7 31.1 21.7 35.5 39.5 1.7 7.1 1.4 20.5-.5 27.2-4.3 14.8-15.7 28.9-28.5 35.1-22 10.8-46.5 6.8-63.6-10.2-11.2-11.1-16.5-23.7-16.5-38.8-.1-10.3 1.3-16.2 5.9-25.7 6.3-13.1 19.4-23.7 34.7-28.3 8.5-2.5 24.7-1.9 33 1.2z"/></svg>