<svg version="1.0" xmlns="http://www.w3.org/2000/svg" width="2666.667" height="2666.667" viewBox="0 0 2000 2000"><path d="M53.2 53.3L0 106.5l.2 23.3.3 23.2L77 76.5 153.5 0h-47L53.2 53.3zM186.7 186.8L0 373.5l.2 23.3.3 23.2 210-210 210-210h-47L186.7 186.8zM320.2 320.3L0 640.5l.2 23.3.3 23.2L344 343.5 687.5 0h-47L320.2 320.3zM793.6 113.9L679.7 227.8l7.3 3.7c4 2 10.9 5.9 15.3 8.7l8 5 122.6-122.6L955.5 0h-48L793.6 113.9zM1073 102.5c-56.3 56.3-102.2 102.6-102 102.8.3.2 3 1.2 6 2.2 3 1 10.1 4.1 15.8 6.9l10.3 5 109.7-109.7L1222.5 0h-47L1073 102.5zM1268.2 174.3l-174.3 174.3 19.3 4.1 19.3 4.2L1311 178.4 1489.5 0h-47l-174.3 174.3zM1503.2 206.3l-206.3 206.3 15.7 7.8 15.8 7.7 214-214L1756.5 0h-47l-206.3 206.3zM1718 258.5c-224 224-258.3 258.6-257 259.8.8.8 6.4 5.8 12.3 11.2l10.9 9.8 257.9-257.9L2000 23.5V0h-23.5L1718 258.5zM1792.6 450.9l-207 207 9.4 14.1 9.4 14.1 197.8-197.8L2000 290.5l-.2-23.3-.3-23.2-206.9 206.9zM921.7 279.9c-6.8 2.8-28.4 17.4-40.2 27.4-27 22.7-53.9 56.1-73.9 91.5l-6.8 12.2h-48.5l-9.9-14.7c-32.8-49-63.2-81.2-89.4-94.7-13.4-7-21.5-9.1-34.5-9.1-8.8 0-12.3.5-17.6 2.3-13.3 4.6-25.1 13.7-30.4 23.5-2.4 4.3-2.9 6.7-3.7 18.1-.5 7.2-1 26.1-1.1 42.1-.1 26.3.1 30.2 2.1 42 2.9 15.9 8 31.9 14.4 44.4 2.6 5.2 4.8 10.3 4.8 11.4 0 3-5.7 19.3-10.1 28.7-12.2 26-34.3 57.6-60.6 86.6-10.8 11.8-11.9 13.6-46.5 72.9-122.7 210.1-207.2 376-228.7 448.7-7.3 24.8-8.7 37.4-7.1 66.4 3.8 71.9 20.1 119.4 52 151.5 18.8 18.8 40.4 30.2 68.6 36 14.4 2.9 43.7 3.6 65.7 1.5 9.2-.9 18.8-1.6 21.1-1.6 4.3 0 4.4 0 5.5 4.6 2.4 9.4 9 20.3 17.4 28.5 8.5 8.3 13.6 10.3 31.5 11.8 35.2 3.1 65.2-8 91.2-33.9 10.9-10.8 18.8-20.4 42.2-51.5 34.2-45.5 59.8-70.8 98.3-97.2 55.2-37.9 91.4-64.5 130-95.4 47.9-38.3 76.3-63.6 114.3-101.5 25.6-25.5 27.2-27 27.2-24 0 5.8-3 35.8-5.1 50.1-12.2 86-41.5 157.4-90.3 219.9-22.7 29-46.7 54.6-100.1 106.4-73.2 71-102.6 107.5-128.6 159.4-25.3 50.4-37.6 100.2-40.9 165.3-1.3 24.4-.8 30.3 3 38.2 3.5 7.2 8.8 12.4 16.5 16l6 2.8h1037l6.7-3.3c7.4-3.6 12.4-8.7 15.9-16.1 3.3-6.8 3.8-21 3.8-113.1.1-95.2-1.2-146.7-5.5-217.5-21.1-351.7-97.7-601.8-234.3-764.9C1408 562 1315.2 498.2 1201 457.7c-52.4-18.6-116.8-33.7-176-41.2-7.4-1-13.8-2.1-14.2-2.4-.4-.4-1.4-7.2-2.3-15.1-7.2-68.8-24.8-105.6-56.1-117.6-9.5-3.6-23.7-4.3-30.7-1.5zm12.1 79.3c5.2 16.7 8.7 42.3 10.1 72.5.9 18.8 1.1 20.6 3.7 26.3 3.4 7.7 11.2 15.1 18.6 17.6 3.1 1.1 8.2 1.8 12.3 1.8 3.9.1 7.2.3 7.5.7.3.3 8.6 1.6 18.5 2.8 147.3 18.3 263.7 64.7 356.5 142.2 26.8 22.3 64.3 61.6 85.9 89.8 45.7 59.9 83.1 129.3 112.6 209.5 54.2 147.4 84.9 329.2 94.5 559.1 2.5 60.8 3.8 166.1 2.3 201.8l-.6 16.7H701l.6-5.7c4.7-47.2 13.7-80.6 31.3-116.8 23.4-48 48.5-78.6 129.1-156.8 49.8-48.3 76-76.8 99.5-108.3 55.4-74.1 87.5-156.3 100-255.9 3.8-30.6 4.7-47.5 5.2-93.9l.5-47 4.4-7.6c21-36.5 32-77.8 28.6-107.7-1.3-11-3.5-16.5-9.3-22.8-6.3-6.9-12.6-9.7-22.4-10.3-6.5-.3-9.1 0-13.6 1.7-7.9 3-14.1 8.8-18.1 16.9-3.3 6.6-3.3 6.7-3 19.8.1 8.5-.3 15.8-1.3 21-11.5 60.4-84.8 148.3-205 245.9-44.2 35.9-75.4 59-141.1 104.2-24 16.5-48.8 37.9-69.6 60-13.4 14.3-26 29.7-47.9 58.8-23.3 30.8-32.7 40.9-43.2 45.9-7.1 3.4-14.7 5.3-14.7 3.6 0-3.2 5.7-17.7 14.2-36 12.5-26.9 15.8-36.5 16.5-48 1.6-24.7-12.7-43.3-37.2-48.5-24.6-5.2-49.4 3.2-60.4 20.3-6.8 10.6-7.5 14.4-7.6 38.7-.2 28.4-.3 28.8-12 29.8-43.3 3.8-58.9 2.6-76-6.1-27.7-14-43.1-49.4-47.5-109.2-1.8-24.1-1.4-33.4 2-46.6 16.9-65.4 106.1-239.8 235.6-460.5 18.2-31 21.8-36.6 29.7-45.4 53.3-59.4 86.7-123.5 86.9-166.4 0-8.9-1-11.9-8.7-24-6.8-10.7-11.1-22.4-13-35-1.6-10-2.1-40.1-.7-40.1 1 0 18.7 18.1 24.8 25.5 12.5 14.9 33.4 44.8 44.6 63.8 5.5 9.2 10.5 14.2 17.7 17.6l5.6 2.6H777c58.7 0 57.8.1 67-8.2 4.3-3.8 6.3-7.1 13.5-21.7 17.1-34.8 38.5-64 62.2-85 5.9-5.3 11.1-9.6 11.5-9.6.4 0 1.6 2.8 2.6 6.2z"/><path d="M663.1 598c-10.6 2.2-22.4 9.4-34.5 20.9-24.6 23.6-48 65.7-54.1 97.4-1.9 9.7-1.9 24.5-.1 31.2 3.6 13.8 11.9 23.9 24.3 29.8 6.2 2.9 7.6 3.2 16.3 3.1 7.2 0 11.2-.6 16.3-2.3C669 765.4 716 691.5 716 645c0-20.6-8.8-36.3-24.6-44.1-5.4-2.7-7.7-3.2-15.1-3.5-4.9-.2-10.8.1-13.2.6zM385.5 1079.8c-19.7 5.9-34.9 21.5-39.5 40.7-1.7 7.1-1.4 20.5.5 27.2 4.3 14.8 15.7 28.9 28.5 35.1 22 10.8 46.5 6.8 63.6-10.2 11.2-11.1 16.5-23.7 16.5-38.8.1-9.7-1.3-16-5.2-24.3-6.1-12.9-17.4-23.2-31.4-28.5-8.3-3.1-24.5-3.7-33-1.2zM244.2 663.3L0 907.5v48l248-248c151.9-151.9 248-248.7 248-249.9 0-1-.7-4.4-1.5-7.5-.8-3.2-2.4-11.4-3.6-18.2-1.1-6.8-2.1-12.5-2.3-12.6-.1-.1-110.1 109.7-244.4 244zM1839.3 671.2l-160.2 160.3 6.7 16.8 6.6 16.8 153.8-153.8L2000 557.5l-.2-23.3-.3-23.2-160.2 160.2zM1871.6 905.9l-127.9 127.9.7 4.4c.9 6 7.1 32.6 7.7 33.2.3.3 56.2-55.2 124.2-123.2L2000 824.5l-.2-23.3-.3-23.2-127.9 127.9zM112.2 1063.3L0 1175.5v47l93.8-94 93.7-94 2.9-7.5c2.7-7 19.5-44.1 29.9-66.3 2.6-5.3 4.5-9.7 4.4-9.7-.1 0-50.7 50.5-112.5 112.3zM1890.8 1153.7c-108.5 108.5-108.8 108.8-108.2 112.3.2 1.9 1.3 11.3 2.3 20.8 1.1 9.5 2.1 17.5 2.3 17.7.2.2 48.2-47.4 106.6-105.8l106.2-106.2-.2-23.8-.3-23.7-108.7 108.7zM84.2 1358.3L0 1442.5v47l90.2-90.2 90.2-90.2-5.2-15.8c-2.9-8.7-5.2-16.3-5.2-17 0-.6-.4-1.4-.8-1.7-.5-.3-38.7 37.4-85 83.7zM1899.8 1412.7l-99.8 99.8.1 18.5c0 10.2.4 20.4.7 22.8l.7 4.2 99.3-99.3 99.2-99.2-.2-23.3-.3-23.2-99.7 99.7zM142.2 1567.3L0 1709.5l.2 23.3.3 23.2 158.8-158.8 158.9-158.9-9.4-3.2c-5.1-1.8-12.6-4.8-16.7-6.7-4.1-1.9-7.4-3.4-7.5-3.4-.1 0-64.1 64-142.4 142.3zM529 1489c-3 .5-13.8.8-24 .9l-18.5.1-243.3 243.3L0 1976.5v23.5h23.5l256-256c140.8-140.8 255.8-255.9 255.5-255.9-.3.1-3 .5-6 .9zM1789.5 1790l-210 210h47l186.8-186.8 186.7-186.7-.2-23.3-.3-23.2-210 210zM400 1843.5L243.5 2000h47l132.6-132.8 132.7-132.7.5-23.8c.3-13 .5-23.7.4-23.7-.1 0-70.6 70.4-156.7 156.5zM588.5 1922l-78 78h47l78-78 78-78h-47l-78 78zM855.5 1922l-78 78h47l78-78 78-78h-47l-78 78zM1122.5 1922l-78 78h48l77.3-77.3c42.4-42.4 77.2-77.5 77.2-78 0-.4-10.5-.7-23.2-.7h-23.3l-78 78zM1390.5 1922l-78 78h47l77.3-77.3c42.4-42.4 77.2-77.5 77.2-78 0-.4-10.2-.7-22.8-.7h-22.7l-78 78zM1923 1923.5l-76.5 76.5h47l53.3-53.3 53.2-53.2-.2-23.3-.3-23.2-76.5 76.5z"/></svg>