<svg version="1.0" xmlns="http://www.w3.org/2000/svg" width="2666.667" height="2666.667" viewBox="0 0 2000 2000"><path d="M950 368.5c-39.1 5.7-74.5 20.8-104 44.4-8.9 7.1-24.9 23-32.3 32.1-25.1 31-41.1 69.5-45.8 110.4-1.5 12.8-.6 45.1 1.6 57.1 3.4 19.1 9 37.2 16.3 52.9l3.6 7.8-2.9 2.2c-10.6 7.6-24.9 20-36.5 31.6-49.4 49.3-80.3 110.6-91.2 180.5-2.6 16.8-3.6 56.9-1.9 75.2 6 64.3 30.4 123.2 71.8 174l8.3 10.2-7.2 4.2c-86.7 50.2-165 138.3-217.2 244.4-54 109.6-79.5 228.8-79.6 372.7v20.8h1089v-31.3c0-104.1-14.9-196-46.2-284.7-41.9-119.1-114.9-223.2-203.9-291-12.6-9.6-36.7-25.7-46.6-31.1-6.5-3.5-7.4-4.8-4.8-6.9 2.9-2.4 16.2-19.5 23.7-30.5 61.8-90.4 73-206.3 29.4-306.9-10.5-24.4-26.5-50.9-43.7-72.7-10.6-13.4-39.5-42.2-52.6-52.3-5.7-4.4-10.3-8.6-10.3-9.3 0-.8 1.1-3.5 2.4-6.1 1.3-2.6 4-9.1 6-14.5 37.5-100.5-6.2-213-101.6-261.7-19.5-10-38.7-16.4-61.3-20.5-12.4-2.3-49.6-2.9-62.5-1z"/></svg>