<svg version="1.0" xmlns="http://www.w3.org/2000/svg" width="2666.667" height="2666.667" viewBox="0 0 2000 2000"><path d="M950.5 368.5c-38.8 5.3-74.8 20.6-104.5 44.4-8.9 7.1-24.9 23-32.3 32.1-25 30.8-41.1 69.6-45.8 110-1.5 13.3-.6 45.2 1.6 57.5 3.4 19.1 9 37.2 16.3 52.9l3.6 7.8-2.9 2.2c-10.6 7.6-24.9 20-36.5 31.6-49.4 49.3-80.3 110.6-91.2 180.5-2.5 16.7-3.6 56.9-1.9 74.9 6.1 64.7 30.3 123.4 71.8 174.3l8.3 10.2-7.2 4.2c-86.6 50.2-165 138.4-217.2 244.4-54 109.6-79.5 228.8-79.6 372.7v20.8h1089v-31.3c0-68.6-6-127.7-19.2-189.2-34.4-160.4-118-300.5-230.9-386.5-12.6-9.6-36.7-25.7-46.6-31.1-6.5-3.5-7.4-4.8-4.8-6.9 2.9-2.4 16.2-19.5 23.7-30.5 61.8-90.4 73-206.3 29.4-306.9-10.5-24.5-26.5-51-43.7-72.7-10.8-13.7-38.6-41.3-52.6-52.3l-11.2-8.8 2.8-5.6c1.6-3.1 4.5-10.1 6.5-15.5 34.4-92.2.7-195.8-81.4-250-24.5-16.1-51.3-26.8-81.5-32.2-12.4-2.3-48.6-2.9-62-1zm52 67c51.7 9 95.6 46.6 112 95.9 6.6 19.8 9.1 44 6.6 64-3.6 27.9-12.5 48.2-35 79.1-7.6 10.4-13.6 19.3-13.2 19.7.3.3 9.9 6 21.2 12.5 32.4 18.8 49.3 31.5 68.7 51.8 36 37.7 59.6 85.6 67.9 137.5 2.6 16.4 2.6 58.8 0 74.5-9.2 55.6-32.9 102.7-71.2 141.1-9.9 9.9-49.3 43.2-66.4 56.1-.9.7 1.5 1.6 32 12.4 45.2 16 58.5 22.3 87.4 41.5 50.1 33.2 100.1 85.6 137.6 144.4 60.9 95.4 96.1 209.7 103.9 337 .5 9.1 1 17.1 1 17.7 0 1-96.1 1.3-477 1.3H501v-6.3c0-15 3.5-52.5 7.6-81.2 16.1-113.7 57.8-218.6 120.1-302.1 31.6-42.4 71.2-81.2 110.8-108.6 26-18 47.1-28.1 90-43.3 18.2-6.4 33.1-11.8 33.3-12 .2-.1-12.4-10.6-28-23.3-29.2-23.7-44.5-38.1-57-53.7-54-67.4-69.9-158.2-41.9-239.7 12.6-36.6 31.8-67.6 59.4-95.7 19.8-20.2 35.9-32.1 67.5-50.1 11.1-6.3 20.2-11.8 20.2-12.2 0-.4-4.9-7.4-10.8-15.5-16-22-18.9-26.4-24.8-38.7-9.5-19.9-13.7-38.7-13.7-61.6 0-30 7.9-56.2 24.4-81.1 7.7-11.5 25.1-29.2 36.8-37.4 20.6-14.4 45.3-23.2 72.6-25.9 6.6-.6 26.4.5 35 1.9z"/></svg>