<svg version="1.0" xmlns="http://www.w3.org/2000/svg" width="2666.667" height="2666.667" viewBox="0 0 2000 2000"><path d="M53.2 53.3L0 106.5l.2 23.3.3 23.2L77 76.5 153.5 0h-47L53.2 53.3zM186.7 186.8L0 373.5l.2 23.3.3 23.2 210-210 210-210h-47L186.7 186.8zM320.2 320.3L0 640.5l.2 23.3.3 23.2L344 343.5 687.5 0h-47L320.2 320.3zM453.7 453.8L0 907.5l.2 23.8.3 23.7L478 477.5 955.5 0h-48L453.7 453.8zM1019.5 156.1C933.7 242 864.2 312 865 311.7c.8-.3 5.7-2.2 10.8-4.2 11.7-4.5 30.2-9.9 43.5-12.5l10.2-2.1L1076 146.5 1222.5 0h-47l-156 156.1zM1280.1 162.4l-162.5 162.5 3.3 1.8c1.8 1 8.3 5.1 14.4 9.1l11.2 7.2L1318 171.5 1489.5 0h-47l-162.4 162.4zM1476.7 232.8l-232.8 232.8 1.9 4.5c1 2.4 3.8 10 6.1 16.9 2.4 6.9 4.4 12.6 4.5 12.7.1.1 112.7-112.3 250.1-249.7l250-250h-47l-232.8 232.8zM1633.7 342.8l-342.8 342.8 3.8 5c2.1 2.7 6.3 8.3 9.2 12.4 3 4.1 5.8 7.9 6.3 8.5.5.6 131.8-130 345.3-343.5L2000 23.5V0h-23.5l-342.8 342.8zM1686.2 557.3l-313.3 313.3 1.5 12.5c.9 6.8 1.9 16.3 2.3 21.2l.8 8.7 311.3-311.3L2000 290.5l-.2-23.3-.3-23.2-313.3 313.3zM950.5 368.5c-38.8 5.3-74.8 20.6-104.5 44.4-8.9 7.1-24.9 23-32.3 32.1-25 30.8-41.1 69.6-45.8 110-1.5 13.3-.6 45.2 1.6 57.5 3.4 19.1 9 37.2 16.3 52.9l3.6 7.8-2.9 2.2c-10.6 7.6-24.9 20-36.5 31.6-49.4 49.3-80.3 110.6-91.2 180.5-2.5 16.7-3.6 56.9-1.9 74.9 6.1 64.7 30.3 123.4 71.8 174.3l8.3 10.2-7.2 4.2c-86.6 50.2-165 138.4-217.2 244.4-54 109.6-79.5 228.8-79.6 372.7v20.8h1089v-31.3c0-68.6-6-127.7-19.2-189.2-34.4-160.4-118-300.5-230.9-386.5-12.6-9.6-36.7-25.7-46.6-31.1-6.5-3.5-7.4-4.8-4.8-6.9 2.9-2.4 16.2-19.5 23.7-30.5 61.8-90.4 73-206.3 29.4-306.9-10.5-24.5-26.5-51-43.7-72.7-10.8-13.7-38.6-41.3-52.6-52.3l-11.2-8.8 2.8-5.6c1.6-3.1 4.5-10.1 6.5-15.5 34.4-92.2.7-195.8-81.4-250-24.5-16.1-51.3-26.8-81.5-32.2-12.4-2.3-48.6-2.9-62-1zm52 67c51.7 9 95.6 46.6 112 95.9 6.6 19.8 9.1 44 6.6 64-3.6 27.9-12.5 48.2-35 79.1-7.6 10.4-13.6 19.3-13.2 19.7.3.3 9.9 6 21.2 12.5 32.4 18.8 49.3 31.5 68.7 51.8 36 37.7 59.6 85.6 67.9 137.5 2.6 16.4 2.6 58.8 0 74.5-9.2 55.6-32.9 102.7-71.2 141.1-9.9 9.9-49.3 43.2-66.4 56.1-.9.7 1.5 1.6 32 12.4 45.2 16 58.5 22.3 87.4 41.5 50.1 33.2 100.1 85.6 137.6 144.4 60.9 95.4 96.1 209.7 103.9 337 .5 9.1 1 17.1 1 17.7 0 1-96.1 1.3-477 1.3H501v-6.3c0-15 3.5-52.5 7.6-81.2 16.1-113.7 57.8-218.6 120.1-302.1 31.6-42.4 71.2-81.2 110.8-108.6 26-18 47.1-28.1 90-43.3 18.2-6.4 33.1-11.8 33.3-12 .2-.1-12.4-10.6-28-23.3-29.2-23.7-44.5-38.1-57-53.7-54-67.4-69.9-158.2-41.9-239.7 12.6-36.6 31.8-67.6 59.4-95.7 19.8-20.2 35.9-32.1 67.5-50.1 11.1-6.3 20.2-11.8 20.2-12.2 0-.4-4.9-7.4-10.8-15.5-16-22-18.9-26.4-24.8-38.7-9.5-19.9-13.7-38.7-13.7-61.6 0-30 7.9-56.2 24.4-81.1 7.7-11.5 25.1-29.2 36.8-37.4 20.6-14.4 45.3-23.2 72.6-25.9 6.6-.6 26.4.5 35 1.9zM355.7 819.8L0 1175.5l.2 23.3.3 23.2 346.2-346.2 346.2-346.3 2.1-10.2c2.7-13.7 8.2-32.3 13-44.6 2.2-5.6 3.8-10.2 3.7-10.4-.2-.1-160.4 159.9-356 355.5z"/><path d="M1678.8 831.7l-320.7 320.8 12 11.4 12.1 11.4 308.9-308.9L2000 557.5l-.2-23.3-.3-23.2-320.7 320.7zM1739.1 1038.4l-260.4 260.4 5.5 9.4c3 5.1 6.8 11.7 8.4 14.5 1.6 2.9 3.1 5.3 3.4 5.3.3 0 113.8-113.3 252.3-251.8L2000 824.5l-.2-23.3-.3-23.2-260.4 260.4zM292.2 1150.3L0 1442.5v47l289-289c159-159 289.2-289.9 289.4-291 .3-1.1.9-8.1 1.6-15.5.6-7.4 2-18.4 3-24.5 1-6 1.8-11.1 1.6-11.2-.1-.1-131.7 131.3-292.4 292zM1780.3 1264.2l-219.2 219.3 3.3 11c1.8 6 4.1 14.3 5 18.2 1 4 2.1 7.3 2.5 7.3.3 0 96.8-96.2 214.4-213.8l213.7-213.7-.2-23.8-.3-23.7-219.2 219.2zM306.2 1403.3L0 1709.5v47l259.1-259c191.5-191.5 261.8-262.4 269.7-272 25.1-30.7 60.1-66.5 85.8-87.9l13.1-10.8-7.3-14.5c-4-8-7.4-14.6-7.6-14.8-.2-.2-138.2 137.4-306.6 305.8zM1799.3 1513.2l-200.2 200.3.7 22.8.7 22.7 199.8-199.8 199.7-199.7-.2-23.3-.3-23.2-200.2 200.2zM1789.5 1790l-210 210h47l186.8-186.8 186.7-186.7-.2-23.3-.3-23.2-210 210zM182.7 1793.8L0 1976.5v23.5h23.5l168.1-168.2 168.2-168.3 1.2-12c.6-6.6 2-18.3 3-26 1-7.7 1.7-14.1 1.6-14.2-.1-.1-82.4 82-182.9 182.5zM1923 1923.5l-76.5 76.5h47l53.3-53.3 53.2-53.2-.2-23.3-.3-23.2-76.5 76.5zM310 1933.5l-66.5 66.5h47l66.5-66.5 66.5-66.5h-47l-66.5 66.5zM577 1933.5l-66.5 66.5h47l66.5-66.5 66.5-66.5h-47l-66.5 66.5zM844 1933.5l-66.5 66.5h47l66.5-66.5 66.5-66.5h-47l-66.5 66.5zM1111 1933.5l-66.5 66.5h48l66.5-66.5 66.5-66.5h-48l-66.5 66.5zM1379 1933.5l-66.5 66.5h47l66.5-66.5 66.5-66.5h-47l-66.5 66.5z"/></svg>