<svg version="1.0" xmlns="http://www.w3.org/2000/svg" width="2666.667" height="2666.667" viewBox="0 0 2000 2000"><path d="M53.2 53.3L0 106.5l.2 23.3.3 23.2L77 76.5 153.5 0h-47L53.2 53.3zM186.7 186.8L0 373.5l.2 23.3.3 23.2 210-210 210-210h-47L186.7 186.8zM320.2 320.3L0 640.5l.2 23.3.3 23.2L344 343.5 687.5 0h-47L320.2 320.3zM763 144.5L618.5 289h48L811 144.5 955.5 0h-48L763 144.5zM1031 144.5L886.5 289h47L1078 144.5 1222.5 0h-47L1031 144.5zM1295.1 147.4l-147.4 147.4 5.4 2.3c7.3 3.2 15.5 7.5 20.8 11.2l4.3 3 155.7-155.7L1489.5 0h-47l-147.4 147.4zM1565 144.5L1420.5 289h47L1612 144.5 1756.5 0h-47L1565 144.5zM1795.9 180.7l-180.6 180.8 1.9 6c2.5 8 4.8 21.5 4.8 28.4v5.6l189-189 189-189V0h-23.5l-180.6 180.7zM1811.1 432.4l-188.4 188.4-.8 9.9c-1.6 20.5-7.9 38.3-19.6 55.3-3.1 4.5 56.4-54.3 196.6-194.5l201.1-201-.2-23.3-.3-23.2-188.4 188.4zM478.4 368.4c-9.2 2.9-17.6 11.2-20.9 20.6-1.2 3.5-1.5 22.5-1.5 122.5l-.1 118.5 2.6 5.9c1.5 3.2 4.3 7.4 6.3 9.3 2 2 30.8 26.1 64 53.7L589 749v552.8l-26 43.3-26 43.4-6.4.7c-12.1 1.2-21.7 7.7-27.2 18.5l-2.9 5.8-.3 76.7-.3 76.7-54.7.3-54.7.3-5.2 2.7c-6.6 3.5-11.6 8.5-15.1 15.1l-2.7 5.2-.3 74.6c-.2 73.3-.2 74.8 1.8 80.2 2.9 7.7 8.7 14 16.8 17.9l6.7 3.3h1215l6.7-3.3c8.1-3.9 13.9-10.2 16.8-17.9 2-5.4 2-6.9 1.8-80.2l-.3-74.6-2.7-5.2c-3.5-6.6-8.5-11.6-15.1-15.1l-5.2-2.7-54.7-.3-54.7-.3-.3-76.7-.3-76.7-2.9-5.8c-5.5-10.8-15.1-17.3-27.2-18.5l-6.4-.7-26-43.4-26-43.3V749.2l61.8-51.5c33.9-28.3 62.7-52.6 63.9-53.8 1.2-1.3 3.4-5 4.8-8.1l2.6-5.7-.1-118.5c0-100.1-.3-119.1-1.5-122.6-3.5-9.9-12.9-18.6-22.5-21-3.1-.7-33.6-1-100.5-.8l-96 .3-4.3 2.3c-6.7 3.6-12.9 9.8-15.9 16.1l-2.8 5.6-.3 32.3-.3 32.2-77.7-.2-77.7-.3-.5-32.5c-.5-32-.5-32.6-2.9-37.5-3.2-6.3-9.3-12.4-15.6-15.6l-5-2.4h-241l-5 2.4c-6.3 3.2-12.4 9.3-15.6 15.6-2.4 4.9-2.4 5.5-2.9 37.5l-.5 32.5-77.7.3-77.7.2-.3-32.2c-.3-30.6-.4-32.5-2.5-37-2.9-6.3-9.6-13.4-15.8-16.6l-5-2.7-97-.2c-77-.1-97.8.1-101.1 1.1zm1042.7 234.4c7.4 3.8 11.1 9.3 11.7 17.1.2 3.2-.1 7.5-.8 9.6-1.6 4.9-6.6 10.4-11.5 12.6-3.9 1.8-23.1 1.9-520.5 1.9s-516.6-.1-520.5-1.9c-4.9-2.2-9.9-7.7-11.5-12.6-.7-2.1-1-6.4-.8-9.6.6-7.8 4.3-13.3 11.7-17.1l5.3-2.8h1031.6l5.3 2.8zm-135.8 109.8c8.2 2.8 14.7 12 14.7 20.8 0 8.5-5.9 17.2-13.8 20.3-4.5 1.7-19 1.8-386.2 1.8s-381.7-.1-386.2-1.8c-7.9-3.1-13.8-11.8-13.8-20.3 0-8.6 6.5-18 14.3-20.8 3.7-1.3 51.5-1.5 385.3-1.5 344.2-.1 381.5.1 385.7 1.5zm2.5 579c8.5 4.2 13.6 14.4 11.8 23.8-1 5.4-6.5 12.7-11.5 15.3l-4.4 2.3-384.7-.2-384.6-.3-4.2-2.7c-7.2-4.8-11.4-14.7-9.8-23.1 1.1-5.8 6.1-12.3 11.8-15.1l5.2-2.6h765.2l5.2 2.6zm42.5 87.7c8.6 3.6 13.7 11.3 13.7 20.7 0 9.4-5.1 17.1-13.7 20.7-4.8 2-855.8 2-860.6 0-8.6-3.6-13.7-11.3-13.7-20.7 0-9.3 5-16.9 13.5-20.6 4.5-2 856.1-2 860.8-.1zm46.8 179c5.5 2.9 10.5 10.1 11.5 16.4 1.5 10-5.8 21.6-15.2 24.2-5.5 1.5-941.3 1.5-946.8 0-9.4-2.6-16.7-14.2-15.2-24.2 1-6.3 6-13.5 11.5-16.4l4.4-2.3h945.4l4.4 2.3z"/><path d="M1744.2 766.3L1489 1021.5l.2 23.3.3 23.2 255.3-255.3L2000 557.5l-.2-23.3-.3-23.2-255.3 255.3zM188.2 719.3L0 907.5l.2 23.8.3 23.7 188.8-188.8L378 577.5v-23.3c0-12.7-.3-23.2-.8-23.2-.4 0-85.4 84.7-189 188.3zM1534.8 747.2l-45.8 38.1v16.2l46-46c25.3-25.3 46-46.1 46-46.2 0-.6-2.7 1.5-46.2 37.9zM222.2 953.3L0 1175.5v47l235-235c129.3-129.2 235-235.3 235-235.7 0-.9-23.6-20.8-24.7-20.8-.4 0-100.8 100-223.1 222.3zM1745.8 1031.7L1492 1285.5l8.8 14.7 8.8 14.7 245.2-245.2L2000 824.5l-.2-23.3-.3-23.2-253.7 253.7zM255.2 1187.3L0 1442.5l.2 23.3.3 23.2 255.3-255.3L511 978.5l-.2-23.3-.3-23.2-255.3 255.3zM1788.8 1255.7L1578 1466.5v22.5h25.5l198.3-198.3 198.2-198.2-.2-23.8-.3-23.7-210.7 210.7zM255.2 1454.3L0 1709.5l.2 23.3.3 23.2 255.3-255.3L511 1245.5l-.2-23.3-.3-23.2-255.3 255.3zM1855.2 1457.3L1711 1601.5l.2 23.3.3 23.2 144.3-144.3 144.2-144.2-.2-23.3-.3-23.2-144.3 144.3zM1789.5 1790l-210 210h47l186.8-186.8 186.7-186.7-.2-23.3-.3-23.2-210 210zM144.3 1832.2L0 1976.5v23.5h23.5l132.8-132.8L289 1734.5l-.2-23.3-.3-23.2-144.2 144.2zM321.5 1922l-78 78h47l78-78 78-78h-47l-78 78zM588.5 1922l-78 78h47l78-78 78-78h-47l-78 78zM855.5 1922l-78 78h47l78-78 78-78h-47l-78 78zM1122.5 1922l-78 78h48l77.3-77.3c42.4-42.4 77.2-77.5 77.2-78 0-.4-10.5-.7-23.2-.7h-23.3l-78 78zM1390.5 1922l-78 78h47l77.3-77.3c42.4-42.4 77.2-77.5 77.2-78 0-.4-10.2-.7-22.8-.7h-22.7l-78 78zM1923 1923.5l-76.5 76.5h47l53.3-53.3 53.2-53.2-.2-23.3-.3-23.2-76.5 76.5z"/></svg>