<svg version="1.0" xmlns="http://www.w3.org/2000/svg" width="2666.667" height="2666.667" viewBox="0 0 2000 2000"><path d="M983.1 212c-49.2 6.2-90.9 36-112.6 80.3-7 14.4-11.5 28.8-13.5 43.4-1.6 11.7-.8 39 1.5 49.3 6.2 28.1 18.8 51.3 39.2 71.9 6.2 6.3 11.2 11.5 11 11.7-.1.1-8 4.1-17.6 8.9C737.4 554.2 629.5 671.9 591 804.8c-25.7 88.9-19.3 177.8 18.1 251.2 21.3 41.8 54.4 78.4 92.7 102.2 5.3 3.4 9.9 6.2 10.1 6.4.2.2-4 4.9-9.3 10.5-32 33.6-53.7 71.7-63.5 110.9-2.3 9.5-5.1 27.1-5.1 32.5 0 1.9-1.1 6-2.5 9.2-11 24.7-10.2 61 2.1 100.5l3.7 11.9 8.3 7.9c38.4 36.8 109.2 64.9 199.4 79 21.4 3.3 21.3 3.3 7 5.8-58.5 10.2-105.3 13.3-229.5 15.2-94.6 1.4-131.5 3.2-170.5 8.1-16.6 2.1-37.6 5.8-48.3 8.5-3.2.8-10.7 2.4-16.7 3.4-53.2 9.6-102.6 42-140.8 92.5-10.2 13.5-12.6 18.9-12.6 28.5.1 5.6.6 8.8 2.3 12.5 4.4 9.9 18.1 25.6 30.7 35 19.7 14.8 40.8 21.5 68.2 21.5 21 0 40.8-3.6 67.2-12.4 13.1-4.3 23.9-6.8 40-9.5 47.1-7.8 97.5-9.3 219-6.6 91.2 2 164.7 1.7 200-.9 51.6-3.8 92.2-10.8 126.2-21.7l12.8-4.1 11.4 3.7c41.5 13.3 89.1 20.5 155.1 23.5 31.3 1.4 98.2 1.2 175.9-.6 144.4-3.4 208.3.6 255.1 16 30.1 10 48.4 13.1 72.5 12.3 17.8-.5 24.6-1.8 39.5-7.6 16.2-6.2 34.9-20.8 46.9-36.4 7.8-10.3 9.9-15.5 10-24.9 0-12.2-3-17.2-21.1-34.9-30-29.5-65.6-54.3-104.2-72.7-23-11-35.4-15-61.1-20.1-43.4-8.5-86.5-11.3-202-13.1-91.8-1.4-127.5-2.9-170-7.1-33-3.2-73.2-9.6-69.5-11 1.1-.3 10.8-2.1 21.5-3.8 86.6-13.9 155.5-41.3 193.3-77 7.9-7.5 10.5-12 14.6-26 5.4-18.1 7.3-30.1 7.8-49.2.6-18.6-.4-27-4.6-39-1-3-2.5-7.4-3.4-9.9-.9-2.5-2.1-9.2-2.7-15-5-46.6-28.9-94.2-67.6-134.9-5.3-5.6-9.5-10.3-9.3-10.5.2-.2 4.5-2.8 9.4-5.9 38.8-23.9 71.7-60 93.5-102.8 33.3-65.3 42-142.6 25-222.9-30.3-143-141.1-272-304.5-354.2-11-5.5-20.1-10.1-20.2-10.2-.2-.2 4.8-5.4 11-11.7 20.2-20.5 33.1-44.2 39.2-71.9 2.3-10.3 3.1-37.6 1.5-49.3-4.3-31.5-20.3-62.5-43.9-85-25.9-24.6-58.8-38.2-95.1-39.2-7.4-.2-16.8 0-20.9.5zm31.4 447c6.3 3.1 12.4 9.2 15.6 15.5l2.4 5 .5 43.5.5 43.5 43.5.5 43.5.5 5 2.4c6.3 3.2 12.4 9.3 15.6 15.6 2 4.2 2.4 6.4 2.4 14.5s-.4 10.3-2.4 14.5c-3.2 6.3-9.3 12.4-15.6 15.6l-5 2.4-43.5.5-43.5.5-.5 43.5-.5 43.5-2.5 5c-3.1 6.4-9.2 12.4-15.5 15.6-4.2 2-6.4 2.4-14.5 2.4s-10.3-.4-14.5-2.4c-6.3-3.2-12.4-9.3-15.6-15.6l-2.4-5-.5-43.5-.5-43.5-43.5-.5-43.5-.5-5-2.4c-6.3-3.2-12.4-9.3-15.6-15.6-2-4.2-2.4-6.4-2.4-14.5s.4-10.3 2.4-14.5c3.2-6.3 9.3-12.4 15.6-15.6l5-2.4 43.5-.5 43.5-.5.5-43.5c.4-31.8.8-44.3 1.8-46.3 3.8-8.7 11.4-16 20-19.2 6-2.3 19.6-1.5 25.7 1.5zm219.8 465.4c2.6 1 7.2 4 10.1 6.7 14.4 13.2 14.6 35.2.4 48.5-2.7 2.5-7 5.5-9.6 6.7l-4.7 2.2h-461l-4.7-2.2c-16.8-7.7-24.7-27.8-17.4-44 2.8-6.1 8-12.1 13.2-15.3 8.1-5.1-3-4.9 241.4-4.7 219 .2 227.7.3 232.3 2.1zm108.3 177.1c15.7 4.6 26.3 21.1 23.6 36.5-2.1 11.8-8.9 20.6-19.7 25.7l-6 2.8h-681l-6-2.8c-15-7-22.9-22.7-19.1-37.8 3-11.7 10.7-20.2 21.9-24 5-1.8 20.6-1.8 343.3-1.9 295.4 0 338.7.2 343 1.5z"/></svg>