<svg version="1.0" xmlns="http://www.w3.org/2000/svg" width="2666.667" height="2666.667" viewBox="0 0 2000 2000"><path d="M53.2 53.3L0 106.5l.2 23.3.3 23.2L77 76.5 153.5 0h-47L53.2 53.3zM186.7 186.8L0 373.5l.2 23.3.3 23.2 210-210 210-210h-47L186.7 186.8zM479.7 160.8C391.3 249.2 319 321.8 319 322.1c0 .4 1.7 1 3.8 1.4 2 .4 9.9 2.7 17.6 5.2l13.8 4.6 166.7-166.7L687.5 0h-47L479.7 160.8zM807.8 99.7L708 199.5l7.8 3.4c4.2 1.9 11.5 5.4 16.1 7.9l8.3 4.5 107.7-107.7L955.5 0h-48l-99.7 99.7zM1105.2 70.3c-38.6 38.6-70.2 70.5-70.2 70.8 0 .4 2.3 1 5.2 1.3 2.8.4 11.3 2.3 18.7 4.2l13.5 3.5 75.1-75.1 75-75h-47l-70.3 70.3zM1319.4 123.2l-123.1 123.3 4.2 6.7 4.2 6.7 6.9-7c18-18.3 38.7-33.1 64.3-45.9l13.6-6.9 100-100L1489.5 0h-47l-123.1 123.2zM1602.2 107.3l-107.4 107.4 6.9 4.3c3.7 2.4 10 6.7 13.9 9.6l7.1 5.2 116.9-116.9L1756.5 0h-47l-107.3 107.3zM1809 167.6c-92.1 92.2-166.6 167.3-165.5 166.9 1.1-.4 6.2-2.2 11.3-4.1 11.2-4.1 26.1-8 40.1-10.4l10.4-1.8 147.4-147.4L2000 23.5V0h-23.5L1809 167.6z"/><path d="M990.5 233.6c-14 1.9-19.2 3-27.5 5.6-50.8 16.2-85 62.9-85 116.3 0 32.9 12.4 63 35.5 86 10.9 10.9 21 18 35.3 24.7 5.9 2.8 10.9 5.2 11.1 5.4.5.4-102.3 497.4-102.9 497.4-.3 0-169.3-440.6-176.7-460.9-.2-.3 1.9-1.8 4.5-3.2 25.5-14.2 47.2-43.1 55.9-74.7 2.5-9.1 2.7-11.1 2.7-30.2s-.2-21.1-2.7-30.2c-11.5-41.6-41.9-73.7-81.5-86.2-24.2-7.6-51.1-7.5-75 .3-56.5 18.5-91.6 75.5-82.7 134.4 7.3 48.6 44.6 89.4 91.8 100.3l7.7 1.8V534c-.1 24.5-9.8 466.1-10.3 466.6-.2.3-55.4-83.8-122.5-186.7L346.1 626.6l8.4-8.7c12.6-13.1 21.4-27.2 27.3-43.9 8.3-23.7 9.2-48.3 2.6-73.2-3-11.4-12.4-30.8-19.6-40.3-44.1-58.5-128.4-66.1-181.4-16.2-14.6 13.7-23.1 26.2-30.4 44.4-10 25.1-11 55.4-2.8 81.3 7.7 24.2 22.8 45.6 42.7 60.6 18.6 14 41.1 22.7 62.3 24.1 4.7.3 9.2.9 9.8 1.3.7.5 22.7 107.9 51.2 250.1 38.5 192.3 50.1 252.3 50.9 261.9 1.9 22.9 6.3 39.6 15.2 56.7 8.2 16.1 16 25.5 44.2 54.3 33.7 34.2 40.1 42.1 50.9 62.1 2.5 4.7 9.6 15.8 15.6 24.5 15.8 23 20.1 29.9 21.1 34.2 1.1 4.8-.9 20-6.1 45.7-2.2 11-4.2 20.9-4.4 22-.3 1.1-4.6 5.5-9.6 9.8-10.9 9.4-23 23.1-31.1 35.2-12.3 18.3-22.9 43.7-26.5 63.3-.8 4.8-1.9 9.2-2.2 9.8-.4.6-3.3 4.7-6.4 9-7.6 10.5-13.5 22.7-16.5 34.4-2.2 8.4-2.4 11-2 23 .5 15.2 2.3 22.2 8.8 35.1 12.4 24.8 39.6 48.3 66.9 57.9 39.8 14.1 104.6 32.7 155.4 44.5 248.2 57.8 509.5 54.7 756.1-9 39.6-10.2 104.1-29.7 124.1-37.4 8.4-3.3 16.4-9.2 25.6-18.9 34.2-36.2 36.8-84.1 6.9-125.8l-5.8-8.1.5-11.9c.9-22.4-4.3-45.1-14.9-65.4-6.8-13.1-13.3-21.6-25.8-33.9l-10.5-10.4-4.8-24.1c-5.6-28.5-7.2-40.7-5.8-45.7 1-3.6 3.7-7.9 22.1-34.9 5.8-8.5 12.5-19.1 14.9-23.5 10.5-19.5 17.1-27.6 50-61 28.8-29.3 36.5-38.7 44.7-54.8 8.8-17 13.4-34.1 15.2-57.2 1.3-15.7 100.1-510.3 102.2-511.6.8-.5 3.7-.9 6.5-.9 25.8-.1 60.3-16.2 80.2-37.5 19.4-20.7 30.8-46.1 33.1-74 3.1-37-10.2-72.3-37.2-98.2-31.4-30.1-74.3-41-116.9-29.7-11.4 3-30.8 12.4-40.3 19.6-58.7 44.2-66.1 128.6-15.8 181.7l9.2 9.8-122.1 187.2c-67.1 102.9-122.3 186.9-122.6 186.7-.4-.5-10.1-442.5-10.2-466.7v-13.6l6.2-1.3c26.4-5.1 55.1-24.3 72-48 18.3-25.7 26-58 21.3-89.3-7.8-52.1-49-93.7-101-102.3-13.2-2.1-35.5-1.4-47.2 1.5-45.2 11.3-78.6 43.9-91 88.9-2.5 9.1-2.7 11.1-2.7 30.2s.2 21.1 2.7 30.2c3.8 13.7 9.4 26.2 17 37.5 9.5 14.3 26.9 30.8 39.5 37.5 2.3 1.3 4.1 2.6 4 2.9-.2.4-39.9 104.2-88.3 230.8-48.4 126.5-88.2 230.1-88.5 230.1-.6 0-103.4-497-102.9-497.4.2-.1 5.6-2.8 11.9-5.8 19.4-9.3 32.6-20 44.9-36.1 51.1-67.2 20.6-164.5-59.8-190.6-12.6-4.1-36.4-6.9-46.6-5.5zM1076 1171c144.5 7.5 275.6 31.4 412 75 36.8 11.8 40.1 13.2 46.5 19.5 7.2 7.3 9.8 14.1 9.3 25-.4 9.4-2.8 15.2-8.8 21.4-5.8 6-13.1 9.3-21.6 9.9-6.8.4-8.3.1-28.5-6.6-40.8-13.5-70.2-22.2-106.9-31.6-161.2-41.4-328.5-55.9-496.5-43-121.4 9.3-240.9 33.4-361.8 73.1-24.9 8.1-26.5 8.5-33.2 8.1-17.1-1.1-29.5-13.8-30.3-31-.5-9.2 1.4-15.6 6.2-22 6.5-8.5 12.3-11 57.3-25.2 140.6-44.2 278.9-68.1 426.3-73.6 27.7-1 102.3-.5 130 1zm380.4 198c7.6 2.9 13.9 8.8 17.8 16.8 2.8 5.7 3.3 7.6 3.3 14.2s-.5 8.5-3.3 14.2c-3.9 8-10.2 13.9-17.8 16.8l-5.5 2H549.1l-5.5-2c-7.6-2.9-13.9-8.8-17.8-16.8-2.8-5.7-3.3-7.6-3.3-14.2s.5-8.5 3.3-14.2c3.9-7.9 10.2-13.9 17.6-16.7 5.1-2 9.2-2 456.3-2l451.2-.1 5.5 2zm-921.5 137c58.3 18.3 106.4 30.9 158.1 41.5 113.9 23.4 235.4 34.1 346.3 30.7 21.5-.7 45.7-1.7 53.7-2.2 130.3-8.6 247.6-30.6 370.7-69.6 18.8-5.9 21.4-6.5 27.3-6.1 26.2 1.7 39.9 31.6 24.4 53-5.1 7-10.8 10.1-29.9 16.2-138.1 43.9-272 67.8-417.5 74.5-27.9 1.3-108.4 1.3-136.5 0-143.2-6.6-279.9-30.9-414.8-73.8-21-6.7-26.5-9.5-31.8-16.6-13.7-18.1-6.1-43.9 15.1-51.6 9-3.2 13.7-2.7 34.9 4zM474 1634.4c3 .8 14.7 4.6 25.9 8.6 272.8 95.2 569 110.3 851.1 43.5 48-11.3 95.9-25.2 143-41.5 32.5-11.2 36.1-12.2 42.5-11.4 20.1 2.4 33.9 21.7 29.1 40.5-1.9 7.5-7.2 15.6-12.4 19.3-5 3.4-11.3 5.9-39.6 15.5-140.2 47.6-271.4 73.2-427.6 83.2-26.9 1.7-115.1 2.3-146.5 1-107.9-4.5-204.8-17.8-308-42.2-67.2-15.9-171.5-48.4-184.6-57.5-8.4-5.8-14.9-20.3-13.4-30.3 1.5-10.8 8.6-21 17.9-25.8 8.1-4.1 14.4-4.9 22.6-2.9zM1938.3 305.2l-61.2 61.3 3.7 2.8c2 1.6 7.7 6.5 12.5 10.9l8.9 8.1 48.9-48.9 48.9-48.9-.2-23.3-.3-23.2-61.2 61.2zM1983.3 527.2l-16.2 16.3-.7 14c-.3 7.7-1.4 19.3-2.3 25.8l-1.7 11.8 18.8-18.8 18.8-18.8-.2-23.3-.3-23.2-16.2 16.2z"/><path d="M1156.1 553.4l-19.5 19.5 3.9 18.8c2.1 10.3 4 19 4.2 19.3.2.2 11.6-10.8 25.3-24.5l24.9-24.9-3.1-4c-1.7-2.3-5.9-8.5-9.5-13.9-3.5-5.3-6.5-9.7-6.6-9.7-.1 0-9 8.7-19.6 19.4zM833.8 608.7l-27.7 27.8 6.4 16.3c3.5 9 6.5 16.5 6.7 16.8.2.2 7.2-6.5 15.5-14.9l15-15.2 3.3-16c1.8-8.8 4.5-22 6-29.3 1.5-7.2 2.7-13.2 2.6-13.2 0 0-12.6 12.5-27.8 27.7zM19.2 621.3L0 640.5v47l25.1-25.1 25-25-3.9-11.5c-2.2-6.3-4.5-14-5.2-17.2-.8-3.2-1.6-6-2-6.2-.3-.2-9.3 8.3-19.8 18.8zM498.1 677.4l-22.4 22.4L485 714l9.3 14.1 12.8-12.7 12.7-12.7.7-17.1c.4-9.4.5-20.1.3-23.9l-.3-6.7-22.4 22.4zM76.7 830.8L0 907.5v48l93-93c51.1-51.1 92.6-93.2 92.2-93.5-.4-.3-4.3-2.1-8.7-4-4.4-1.8-11.4-5-15.6-7.1l-7.6-3.7-76.6 76.6zM1483.6 759.9c-1.6 1.6-2.6 3.5-2.4 4.1.2.7 1.6-.6 3.1-2.9 3.2-4.9 3.1-5.1-.7-1.2zM1869.9 907.7c-83.6 83.7-129.9 130.7-130.2 132.3-3.1 14.1-10.8 54.3-10.5 54.6.2.2 61.2-60.5 135.6-134.9L2000 824.5l-.2-23.3-.3-23.2-129.6 129.7zM119.7 1055.8L0 1175.5l.2 23.3.3 23.2 123.4-123.4 123.4-123.4-3.9-19.6-3.9-19.6-119.8 119.8zM1791.3 1253.2C1676.7 1367.8 1583 1462 1583 1462.7c0 .6 2.4 4.5 5.3 8.5 2.8 4.1 6.8 10.2 8.7 13.6 1.9 3.4 3.7 6.2 4 6.2.3 0 90.2-89.7 199.8-199.3l199.2-199.2-.2-23.8-.3-23.7-208.2 208.2zM141.7 1300.8L0 1442.5v47l145.1-145 145.1-145-.7-8.4c-.6-7.8-4.7-30.6-5.7-31.6-.2-.2-64.2 63.4-142.1 141.3zM1825.7 1486.8l-173.9 173.9-.3 15.9c-.2 8.7-1 19.9-1.9 24.9-.8 4.9-1.4 9-1.3 9.2.2.1 79.4-78.9 176-175.5l175.7-175.7-.2-23.3-.3-23.2-173.8 173.8zM182.2 1527.3L0 1709.5v47L194.6 1562l194.5-194.5-11.7-11.3c-6.5-6.1-12.1-11.2-12.4-11.2-.3 0-82.5 82-182.8 182.3zM1789.5 1790l-210 210h47l186.8-186.8 186.7-186.7-.2-23.3-.3-23.2-210 210zM165.7 1810.8L0 1976.5v23.5h23.5l154.6-154.8 154.7-154.7-1-8c-.5-4.4-.7-14.6-.5-22.8.3-8.1.4-14.7.3-14.7 0 0-74.7 74.6-165.9 165.8zM334 1909.5l-90.5 90.5h47l82.9-82.9 82.8-82.8-6.8-2.7c-3.8-1.5-10.7-4.9-15.4-7.4-4.7-2.6-8.7-4.8-9-5-.3-.1-41.2 40.5-91 90.3zM1508.5 1845.6c-5.6 2.1-56.5 17.4-57.9 17.4-.6 0-31.9 30.8-69.6 68.5l-68.5 68.5h47l78-78c42.9-42.9 77.3-78 76.5-77.9-.8 0-3.3.7-5.5 1.5zM1923 1923.5l-76.5 76.5h47l53.3-53.3 53.2-53.2-.2-23.3-.3-23.2-76.5 76.5zM569 1941.5l-58.5 58.5h47l54.3-54.3 54.3-54.3-17.3-3.7c-9.5-2-18.2-3.9-19.3-4.2-1.6-.5-13.7 11.1-60.5 58zM1159 1917.5c-6.3.7-16.7 1.6-23 2l-11.5.7-40 39.9-40 39.9h48l42-42c37.2-37.2 41.6-42 39-41.9-1.7.1-8.2.7-14.5 1.4zM818 1959.5l-40.5 40.5h47l39-39c37.8-37.8 38.9-39 35.5-39-4.2 0-29.7-1.8-36-2.5l-4.5-.5-40.5 40.5z"/></svg>