<svg version="1.0" xmlns="http://www.w3.org/2000/svg" width="2666.667" height="2666.667" viewBox="0 0 2000 2000"><path d="M53.2 53.3L0 106.5l.2 23.3.3 23.2L77 76.5 153.5 0h-47L53.2 53.3zM186.7 186.8L0 373.5l.2 23.3.3 23.2 210-210 210-210h-47L186.7 186.8zM320.2 320.3L0 640.5l.2 23.3.3 23.2L344 343.5 687.5 0h-47L320.2 320.3zM453.7 453.8L0 907.5l.2 23.8.3 23.7L478 477.5 955.5 0h-48L453.7 453.8zM1107.1 68.4l-68.3 68.3 6.3 1.2c3.5.7 11.9 2.9 18.7 4.8l12.4 3.6 73.2-73.2L1222.5 0h-47l-68.4 68.4zM1318.6 123.9l-124 124 5.6 11.8c3 6.5 6.1 13.4 6.8 15.3.7 1.9 1.6 3.8 1.9 4.2.4.4 63.6-62.2 140.6-139.2l140-140h-47l-123.9 123.9zM1476.1 233.4c-146.8 146.8-232.8 233.5-232 233.8.8.3 7 4.7 13.8 9.8l12.4 9.2 243.1-243.1L1756.5 0h-47l-233.4 233.4zM1679.5 297l-296.9 296.9 3 3.8c1.7 2.1 6.1 7.8 9.9 12.8 3.7 4.9 6.9 9.2 7.2 9.5.2.2 134.7-133.9 298.8-298L2000 23.5V0h-23.5l-297 297zM983.1 212c-49.2 6.2-90.9 36-112.6 80.3-11.4 23.3-15.1 40.9-14.2 68.1.6 18.3 1.9 26.3 6.8 41 7 21.1 18 38.7 34.6 55.5 6.2 6.3 11.2 11.5 11 11.7-.1.1-8 4.1-17.6 8.9-168.8 84.3-280.8 216.6-309.1 365-14.4 75.7-4.9 150.7 27.1 213.5 21.3 41.8 54.4 78.4 92.7 102.2 5.3 3.4 9.9 6.2 10.1 6.4.2.2-4 4.9-9.3 10.5-32 33.6-53.7 71.7-63.5 110.9-2.3 9.5-5.1 27.1-5.1 32.5 0 1.9-1.1 6-2.5 9.2-11 24.7-10.2 61 2.1 100.5l3.7 11.9 8.3 7.9c38.4 36.8 109.2 64.9 199.4 79 21.4 3.3 21.3 3.3 7 5.8-58.5 10.2-105.3 13.3-229.5 15.2-94.6 1.4-131.5 3.2-170.5 8.1-16.6 2.1-37.6 5.8-48.3 8.5-3.2.8-10.7 2.4-16.7 3.4-53.2 9.6-102.6 42-140.8 92.5-10.2 13.5-12.6 18.9-12.6 28.5.1 11.3 4.5 19.7 18.3 34.4 12.5 13.2 26.3 22.3 42.7 28.2 12.9 4.6 24.1 6.4 40.2 6.4 21 0 40.8-3.6 67.2-12.4 13.1-4.3 23.9-6.8 40-9.5 47.1-7.8 96.9-9.3 218.5-6.6 91.7 2 165.3 1.7 200.5-.9 51.6-3.9 92.2-10.8 126.3-21.7l12.8-4.1 9.2 3c19.6 6.5 45.4 12.5 69.5 16.2 59 9 120.9 10.7 263.6 7.4 144.4-3.4 208.3.6 255.1 16 30.1 10 48.4 13.1 72.5 12.3 17.8-.5 24.6-1.8 39.5-7.6 16.2-6.2 34.9-20.8 46.9-36.4 7.8-10.3 9.9-15.5 10-24.9 0-12.3-3-17.2-21.6-35.4-32.3-31.5-67.8-55.8-109.4-74.8-22-10.1-36.8-14.5-66.5-19.5-40.5-7-83.6-9.5-190.9-11.1-92.1-1.4-127.5-2.9-170-7.1-33-3.2-73.2-9.6-69.5-11 1.1-.3 10.8-2.1 21.5-3.8 86.6-13.9 155.5-41.3 193.3-77 7.9-7.5 10.5-12 14.6-26 5.4-18.1 7.3-30.1 7.8-49.2.6-18.6-.4-27-4.6-39-1-3-2.5-7.4-3.4-9.9-.9-2.5-2.1-9.2-2.7-15-5-46.6-28.8-94.1-67.6-134.9-5.3-5.6-9.5-10.3-9.3-10.5.2-.2 4.5-2.8 9.4-5.9 31.9-19.7 60.5-48.3 82-82.2 7.1-11.2 20.2-37.9 24.8-50.5 22.2-60.2 26.1-125 11.7-193-30.3-143-141.1-272-304.5-354.2-11-5.5-20.1-10.1-20.2-10.2-.2-.2 4.8-5.4 11-11.7 20.1-20.3 33.1-44.2 39.2-71.9 2.3-10.3 3.1-37.6 1.5-49.3-4.3-31.5-20.3-62.5-43.9-85-25.9-24.6-58.8-38.2-95.1-39.2-7.4-.2-16.8 0-20.9.5zm34.9 68c27.6 6.6 49.7 28.2 57.2 55.7 3 11.2 3 28.9 0 39.6-9.9 34.9-39.5 57.7-75.2 57.7s-65.3-22.8-75.2-57.7c-3.1-11.1-3.1-28.6.1-39.7 9.6-34.4 39.4-57.3 74.6-57.5 6.8-.1 12.7.6 18.5 1.9zm-2.3 228.4c121.4 48.8 215.3 118.3 275 203.6 70.3 100.4 86.8 219.2 42.9 309.5-22.7 46.7-58.2 79.5-104.8 96.9l-9.7 3.6H780.9l-9.7-3.6c-30.7-11.5-56.9-29.9-77.2-54.1-26.7-32-42.7-69.7-49.7-116.8-2.4-16.5-2.4-55.9 0-73.2 8.5-61.3 32.4-118.5 71.8-171.9 19.3-26.2 53.5-62.3 79.4-83.8 56.9-47.2 124.6-85.9 204.2-116.5.1-.1 7.3 2.8 16 6.3zm203.7 685.9c34.3 25.9 62.6 63 73.4 96.2l3 9-147.9.3c-81.4.1-214.4.1-295.8 0l-147.9-.3 3-9c10.7-32.8 35.5-65.9 70.7-94l9.5-7.5h424.9l7.1 5.3zm90.2 180.9c-.9 11.1-4.4 26.9-6.4 29.2-3.1 3.5-19.4 13.8-31.1 19.6-48 24.1-115.6 39.2-207.1 46.2-22.3 1.7-106.9 1.7-130 0-108.8-8.1-194.4-31.1-234.6-63l-5.1-4-2.2-10.4c-1.1-5.6-2.4-13.8-2.8-18.1l-.6-7.7h620.6l-.7 8.2zm-293 184.5c19.2 9.8 29 13.9 49.5 20.8 37.2 12.6 80.1 21.2 131.9 26.4 42.5 4.4 72.5 5.8 148 7.1 125.6 2.1 158.9 3.6 197 8.6 41.7 5.5 63.3 13.1 99.1 34.9 14.8 9 40.8 28 41.7 30.5.7 1.8-8.6 3.4-19.8 3.3-13.3-.1-24.8-2.3-43.3-8.4-52.6-17.4-118.2-23.1-238.9-20.9-28.2.6-74.5 1.4-102.9 2-133.1 2.5-209.1-5.2-261.4-26.2-8.6-3.5-11.1-4.1-17.5-4.1s-8.9.6-17.5 4.1c-52.3 21-128.2 28.7-261.5 26.2-28.3-.6-74.6-1.4-102.8-2-121.1-2.3-185.3 3.4-239.2 21-25.6 8.3-47.6 10.8-60.3 6.6-3.2-1-6-2.3-6.3-2.8-1.5-2.4 18.5-20.8 33.4-30.9 18.1-12.1 36.2-19.5 54.7-22.4 4.9-.8 11.5-2.1 14.5-3 13.8-3.8 40.6-8.2 64.5-10.4 30.2-3 74.7-4.6 151-5.6 99.4-1.3 153.8-4.4 205.5-11.6 43.7-6.1 85.9-16.8 120-30.4 9.6-3.8 33.6-15.4 40-19.3 1.9-1.2 3.8-2.1 4.1-1.9.3.1 7.7 3.9 16.5 8.4z"/><path d="M988.8 657.5c-8.6 3.2-16.2 10.5-20 19.2-1 2-1.4 14.5-1.8 46.3l-.5 43.5-43.5.5-43.5.5-5 2.4c-6.3 3.2-12.4 9.3-15.6 15.6-2 4.2-2.4 6.4-2.4 14.5s.4 10.3 2.4 14.5c3.2 6.3 9.3 12.4 15.6 15.6l5 2.4 43.5.5 43.5.5.5 43.5.5 43.5 2.4 5c3.2 6.3 9.3 12.4 15.6 15.6 4.2 2 6.4 2.4 14.5 2.4s10.3-.4 14.5-2.4c6.3-3.2 12.4-9.2 15.5-15.6l2.5-5 .5-43.5.5-43.5 43.5-.5 43.5-.5 5-2.4c6.3-3.2 12.4-9.3 15.6-15.6 2-4.2 2.4-6.4 2.4-14.5s-.4-10.3-2.4-14.5c-3.2-6.3-9.3-12.4-15.6-15.6l-5-2.4-43.5-.5-43.5-.5-.5-43.5-.5-43.5-2.4-5c-3.2-6.3-9.3-12.4-15.6-15.5-6.1-3-19.7-3.8-25.7-1.5zM1738.8 504.7l-260.6 260.8 2.8 8.8c1.5 4.8 3.8 12.8 5.1 17.7 1.3 5 2.6 9 2.9 9 .3 0 115.4-114.9 255.8-255.3L2000 290.5l-.2-23.3-.3-23.2-260.7 260.7zM390.2 785.3L0 1175.5v47l292.1-292C576.6 646 584.4 638.2 593.8 625c38.9-54.5 85.9-101.5 147.2-147.2 11.5-8.6 19.9-16 32.8-29l17.3-17.4-1.6-4.4c-2-5.7-7.5-27-7.5-29.2 0-.9-.4-1.9-.8-2.2-.5-.3-176.4 175.1-391 389.7zM1743.3 767.2L1487 1023.5l-3.1 10c-4.8 15.5-14.5 39.4-22.4 55.3l-7.3 14.5 272.9-272.9L2000 557.5l-.2-23.3-.3-23.2-256.2 256.2zM1724.8 1052.7L1450 1327.5l1.5 9.5c.9 5.2 1.9 14.8 2.3 21.2l.7 11.8 272.8-272.8L2000 824.5l-.2-23.3-.3-23.2-274.7 274.7zM249.2 1193.3L0 1442.5l.2 23.3.3 23.2 251.9-251.9 251.8-251.8-1.5-9.4c-.9-5.2-2.1-14.5-2.8-20.7-.6-6.1-1.2-11.2-1.3-11.2 0 0-112.3 112.2-249.4 249.3zM1782.5 1262c-119.3 119.3-216.7 217.1-216.5 217.3.3.3 6.3 1.4 13.3 2.6 7 1.2 15.8 2.8 19.5 3.6l6.7 1.4 197.3-197.2 197.2-197.2-.2-23.8-.3-23.7-217 217zM284.7 1424.8L0 1709.5v47l295-295c162.3-162.2 295-295.4 295-295.9s-2.4-3.6-5.3-7-7.5-8.9-10.1-12.4c-2.7-3.4-4.9-6.2-5-6.2-.1 0-128.2 128.1-284.9 284.8zM1876.7 1435.8l-122.8 122.8 11.2 8.9c6.1 5 12 9.6 13.1 10.4 1.8 1.4 8.7-5.3 111.9-108.5l109.9-109.9-.2-23.3-.3-23.2-122.8 122.8zM527.5 1449.1l-24 24 19.5-.6c29.5-.9 28.8-.7 34.5-6.5l4.8-4.9-3.6-12.3c-2-6.8-4.2-14.6-4.8-17.3-.7-2.8-1.5-5.3-1.8-5.7-.4-.4-11.4 10.1-24.6 23.3zM1904.3 1675.7c-115 115.6-91.2 91.8-218.8 218.8l-106 105.5h47l186.8-186.8 186.7-186.7-.2-23.3-.3-23.3-95.2 95.8zM98.7 1877.8L0 1976.5v23.5h23.5l99.3-99.3c54.5-54.5 99.2-99.5 99.2-99.8 0-.4-2.5-2.6-5.6-4.9-3-2.3-8.6-7-12.3-10.5l-6.7-6.4-98.7 98.7zM995 1785.6c-4 1.2-15.7 12.6-111 107.9L777.5 2000h47l103.7-103.7 103.8-103.8-14.3-3.6c-7.8-1.9-15.1-3.8-16.2-4.1-1.1-.3-4 0-6.5.8zM606.5 1903.9l-96 96.1h47l95.5-95.5 95.5-95.5H741c-4.1 0-14.5-.3-23-.6l-15.5-.6-96 96.1zM1256.5 1808.7l-21 .3-95.5 95.5-95.5 95.5h48l95.3-95.3c52.3-52.3 95.2-95.5 95.2-96 0-.4-1.2-.6-2.7-.5-1.6.2-12.3.4-23.8.5zM1408.5 1904l-96 96h47l93.5-93.5c61.8-61.8 92.9-93.6 92-93.9-1.5-.5-36-4.6-39-4.6-.8 0-44.7 43.2-97.5 96zM466 1811c-15.5 2.1-26.3 4.2-35.8 7.1l-6.7 2.1-90 89.9-90 89.9h47l95.5-95.5c52.5-52.5 95-95.5 94.5-95.4-.6 0-7.1.9-14.5 1.9zM1923 1923.5l-76.5 76.5h47l53.3-53.3 53.2-53.2-.2-23.3-.3-23.2-76.5 76.5z"/></svg>