<svg version="1.0" xmlns="http://www.w3.org/2000/svg" width="2666.667" height="2666.667" viewBox="0 0 2000 2000"><path d="M983.1 212c-49.2 6.2-90.9 36-112.6 80.3-11.4 23.3-15.1 40.9-14.2 68.1.6 18.3 1.9 26.3 6.8 41 7 21.1 18 38.7 34.6 55.5 6.2 6.3 11.2 11.5 11 11.7-.1.1-8 4.1-17.6 8.9-168.8 84.3-280.8 216.6-309.1 365-14.4 75.7-4.9 150.7 27.1 213.5 21.3 41.8 54.4 78.4 92.7 102.2 5.3 3.4 9.9 6.2 10.1 6.4.2.2-4 4.9-9.3 10.5-32 33.6-53.7 71.7-63.5 110.9-2.3 9.5-5.1 27.1-5.1 32.5 0 1.9-1.1 6-2.5 9.2-11 24.7-10.2 61 2.1 100.5l3.7 11.9 8.3 7.9c38.4 36.8 109.2 64.9 199.4 79 21.4 3.3 21.3 3.3 7 5.8-58.5 10.2-105.3 13.3-229.5 15.2-94.6 1.4-131.5 3.2-170.5 8.1-16.6 2.1-37.6 5.8-48.3 8.5-3.2.8-10.7 2.4-16.7 3.4-53.2 9.6-102.6 42-140.8 92.5-10.2 13.5-12.6 18.9-12.6 28.5.1 11.3 4.5 19.7 18.3 34.4 12.5 13.2 26.3 22.3 42.7 28.2 12.9 4.6 24.1 6.4 40.2 6.4 21 0 40.8-3.6 67.2-12.4 13.1-4.3 23.9-6.8 40-9.5 47.1-7.8 96.9-9.3 218.5-6.6 91.7 2 165.3 1.7 200.5-.9 51.6-3.9 92.2-10.8 126.3-21.7l12.8-4.1 9.2 3c19.6 6.5 45.4 12.5 69.5 16.2 59 9 120.9 10.7 263.6 7.4 144.4-3.4 208.3.6 255.1 16 30.1 10 48.4 13.1 72.5 12.3 17.8-.5 24.6-1.8 39.5-7.6 16.2-6.2 34.9-20.8 46.9-36.4 7.8-10.3 9.9-15.5 10-24.9 0-12.3-3-17.2-21.6-35.4-32.3-31.5-67.8-55.8-109.4-74.8-22-10.1-36.8-14.5-66.5-19.5-40.5-7-83.6-9.5-190.9-11.1-92.1-1.4-127.5-2.9-170-7.1-33-3.2-73.2-9.6-69.5-11 1.1-.3 10.8-2.1 21.5-3.8 86.6-13.9 155.5-41.3 193.3-77 7.9-7.5 10.5-12 14.6-26 5.4-18.1 7.3-30.1 7.8-49.2.6-18.6-.4-27-4.6-39-1-3-2.5-7.4-3.4-9.9-.9-2.5-2.1-9.2-2.7-15-5-46.6-28.8-94.1-67.6-134.9-5.3-5.6-9.5-10.3-9.3-10.5.2-.2 4.5-2.8 9.4-5.9 31.9-19.7 60.5-48.3 82-82.2 7.1-11.2 20.2-37.9 24.8-50.5 22.2-60.2 26.1-125 11.7-193-30.3-143-141.1-272-304.5-354.2-11-5.5-20.1-10.1-20.2-10.2-.2-.2 4.8-5.4 11-11.7 20.1-20.3 33.1-44.2 39.2-71.9 2.3-10.3 3.1-37.6 1.5-49.3-4.3-31.5-20.3-62.5-43.9-85-25.9-24.6-58.8-38.2-95.1-39.2-7.4-.2-16.8 0-20.9.5zm34.9 68c27.6 6.6 49.7 28.2 57.2 55.7 3 11.2 3 28.9 0 39.6-9.9 34.9-39.5 57.7-75.2 57.7s-65.3-22.8-75.2-57.7c-3.1-11.1-3.1-28.6.1-39.7 9.6-34.4 39.4-57.3 74.6-57.5 6.8-.1 12.7.6 18.5 1.9zm-2.3 228.4c121.4 48.8 215.3 118.3 275 203.6 70.3 100.4 86.8 219.2 42.9 309.5-22.7 46.7-58.2 79.5-104.8 96.9l-9.7 3.6H780.9l-9.7-3.6c-30.7-11.5-56.9-29.9-77.2-54.1-26.7-32-42.7-69.7-49.7-116.8-2.4-16.5-2.4-55.9 0-73.2 8.5-61.3 32.4-118.5 71.8-171.9 19.3-26.2 53.5-62.3 79.4-83.8 56.9-47.2 124.6-85.9 204.2-116.5.1-.1 7.3 2.8 16 6.3zm203.7 685.9c34.3 25.9 62.6 63 73.4 96.2l3 9-147.9.3c-81.4.1-214.4.1-295.8 0l-147.9-.3 3-9c10.7-32.8 35.5-65.9 70.7-94l9.5-7.5h424.9l7.1 5.3zm90.2 180.9c-.9 11.1-4.4 26.9-6.4 29.2-3.1 3.5-19.4 13.8-31.1 19.6-48 24.1-115.6 39.2-207.1 46.2-22.3 1.7-106.9 1.7-130 0-108.8-8.1-194.4-31.1-234.6-63l-5.1-4-2.2-10.4c-1.1-5.6-2.4-13.8-2.8-18.1l-.6-7.7h620.6l-.7 8.2zm-293 184.5c19.2 9.8 29 13.9 49.5 20.8 37.2 12.6 80.1 21.2 131.9 26.4 42.5 4.4 72.5 5.8 148 7.1 125.6 2.1 158.9 3.6 197 8.6 41.7 5.5 63.3 13.1 99.1 34.9 14.8 9 40.8 28 41.7 30.5.7 1.8-8.6 3.4-19.8 3.3-13.3-.1-24.8-2.3-43.3-8.4-52.6-17.4-118.2-23.1-238.9-20.9-28.2.6-74.5 1.4-102.9 2-133.1 2.5-209.1-5.2-261.4-26.2-8.6-3.5-11.1-4.1-17.5-4.1s-8.9.6-17.5 4.1c-52.3 21-128.2 28.7-261.5 26.2-28.3-.6-74.6-1.4-102.8-2-121.1-2.3-185.3 3.4-239.2 21-25.6 8.3-47.6 10.8-60.3 6.6-3.2-1-6-2.3-6.3-2.8-1.5-2.4 18.5-20.8 33.4-30.9 18.1-12.1 36.2-19.5 54.7-22.4 4.9-.8 11.5-2.1 14.5-3 13.8-3.8 40.6-8.2 64.5-10.4 30.2-3 74.7-4.6 151-5.6 99.4-1.3 153.8-4.4 205.5-11.6 43.7-6.1 85.9-16.8 120-30.4 9.6-3.8 33.6-15.4 40-19.3 1.9-1.2 3.8-2.1 4.1-1.9.3.1 7.7 3.9 16.5 8.4z"/><path d="M988.8 657.5c-8.6 3.2-16.2 10.5-20 19.2-1 2-1.4 14.5-1.8 46.3l-.5 43.5-43.5.5-43.5.5-5 2.4c-6.3 3.2-12.4 9.3-15.6 15.6-2 4.2-2.4 6.4-2.4 14.5s.4 10.3 2.4 14.5c3.2 6.3 9.3 12.4 15.6 15.6l5 2.4 43.5.5 43.5.5.5 43.5.5 43.5 2.4 5c3.2 6.3 9.3 12.4 15.6 15.6 4.2 2 6.4 2.4 14.5 2.4s10.3-.4 14.5-2.4c6.3-3.2 12.4-9.2 15.5-15.6l2.5-5 .5-43.5.5-43.5 43.5-.5 43.5-.5 5-2.4c6.3-3.2 12.4-9.3 15.6-15.6 2-4.2 2.4-6.4 2.4-14.5s-.4-10.3-2.4-14.5c-3.2-6.3-9.3-12.4-15.6-15.6l-5-2.4-43.5-.5-43.5-.5-.5-43.5-.5-43.5-2.4-5c-3.2-6.3-9.3-12.4-15.6-15.5-6.1-3-19.7-3.8-25.7-1.5z"/></svg>