<svg version="1.0" xmlns="http://www.w3.org/2000/svg" width="2666.667" height="2666.667" viewBox="0 0 2000 2000"><path d="M53.2 53.3L0 106.5l.2 23.3.3 23.2L77 76.5 153.5 0h-47L53.2 53.3zM186.7 186.8L0 373.5l.2 23.3.3 23.2 210-210 210-210h-47L186.7 186.8zM320.2 320.3L0 640.5l.2 23.3.3 23.2L344 343.5 687.5 0h-47L320.2 320.3zM453.7 453.8L0 907.5l.2 23.8.3 23.7L478 477.5 955.5 0h-48L453.7 453.8zM1096.8 78.7l-78.7 78.8 8.9 2.2c4.9 1.1 12.8 3.8 17.5 5.8l8.7 3.8 84.7-84.7L1222.5 0h-47l-78.7 78.7zM1309.5 133l-132.9 132.9 4.4 3.8c5.3 4.4 11.3 10.3 15.9 15.7l3.3 3.9 144.6-144.7L1489.5 0h-47l-133 133zM1448.8 260.7L1188 521.5l2.5 3.1c1.4 1.8 5.8 7.9 9.8 13.7l7.4 10.5 274.4-274.4L1756.5 0h-47l-260.7 260.7zM1676 300.6c-299.1 299.1-300.5 300.5-296 299.9 9.5-1.2 27.9-2.5 36.5-2.5h9l287.3-287.3L2000 23.5V0h-23.5L1676 300.6z"/><path d="M993.2 234c-10.5 2.2-20.4 10.7-24.2 20.6-1.9 5.1-2 7.8-2 36.4v31h-40.3c-43.4 0-47.6.4-55.5 5.4-4.6 2.9-9.4 8.3-12.4 13.9-2 3.6-2.3 5.7-2.3 14.2 0 8.9.3 10.6 2.7 15 3.2 6.2 10.2 12.8 16.6 15.8 4.6 2.1 5.8 2.2 48 2.5l43.2.3v114.8l-5.7 1.7c-24 7-47.4 21.3-68.2 41.7-18.9 18.5-31.9 36.1-47.9 64.7-5.2 9.4-15.1 32.5-17.7 41.7-5.8 20-7 29.6-7 58.8 0 26.8 1.1 40.4 4.9 60.7.7 3.8 1.2 6.8 1 6.8-.1 0-6.2-4.2-13.6-9.4-63.9-44.8-136.8-76.5-205.1-89-27.9-5.2-39.2-6.1-72.2-6.1-32.4.1-41.1.8-65.5 5.6-77.9 15.5-141 58.3-186 126-9.7 14.7-26.3 46.1-33.8 63.9-16.7 40.1-24.2 75.5-24.2 115 0 46.4 10.5 88 33.4 132.5 19.7 38.4 43.6 70.4 79.1 106.1 36.2 36.4 79.1 69.8 126.8 98.8l12.7 7.8v331.5l7.2 4.8c18 12 50 29.9 72.4 40.6 89.2 42.6 197.7 70.8 312.9 81.3 40.3 3.7 49.7 4.1 107 4.1 66.4 0 90.7-1.4 144.5-8.1 126.4-15.8 240.7-52.7 330.5-106.7 14.6-8.8 17.9-11.7 21.7-19.5l3.3-6.7.5-149.7.5-149.7 17-10.2c43.7-26 90.9-60.3 126-91.3 14.2-12.6 39.8-38 52.4-52.1 55-61.4 87-125.1 95.7-190.5 2.2-16.8 2.2-48.3 0-65-5.1-38.7-19.3-79-37.6-106.5-16.3-24.6-32.5-44-54.6-65.5-58.3-56.5-131.1-89.1-214.9-96.1-19.6-1.6-60.7-.6-80 2-68.7 9.3-135 34-195.5 72.9-5.2 3.4-9.5 6-9.6 5.9-.2-.1.2-3.8.9-8.2.6-4.4 1.1-20.2 1.1-35 .1-29.6-.8-38-6.5-58.3-3.1-10.9-11.5-30.8-18.2-43.2-29.5-54.4-68.6-91.1-111.9-105.1l-9.8-3.1V389.1l43.3-.3c42.1-.3 43.3-.4 47.9-2.5 6.4-3 13.4-9.6 16.6-15.8 2.4-4.4 2.7-6.1 2.7-15 0-8.5-.3-10.6-2.3-14.2-3-5.6-7.8-11-12.4-13.9-7.9-5-12.1-5.4-55.5-5.4H1033v-31c0-28.6-.1-31.3-2-36.4-5.5-14.5-22.4-23.8-37.8-20.6zm24.2 335c24.3 6.2 47.9 26 68.2 57.2 6.4 9.8 15.1 26.2 19.8 37.6 12.3 29.4 10.5 77-5.4 137.7-7 26.9-6.7 26.2-16.8 37.2-30.4 33-56.3 69.6-79.2 112.1-4.5 8.4-8.3 15.2-8.5 15-.1-.2-3.8-6-8.2-12.9-16.2-25.5-39.9-57.1-59.6-79.2l-8.6-9.6-6-18.3c-24.4-74.4-32-130-23.1-167.6 4.5-18.8 19.1-46.7 35.5-67.7 12.3-15.8 31.3-31.6 45.1-37.6 14.2-6.1 32.3-7.6 46.8-3.9zM567 743.1c25.6 2.5 55.3 9.1 82.5 18.2 128.2 43.1 246 149 311.9 280.4l5.6 11.1v146.9l-22.7.7c-70 2.1-131.4 8.2-192.7 19.1-79.1 14.1-147 34.2-214.1 63.5l-5 2.2-7.5-4.3c-71.9-40.8-124.6-82.7-165.6-131.9-18.8-22.5-30.7-40.7-42.9-65.5-25.8-52.3-30.8-103.2-15.4-157.2 4.5-15.6 10.1-29.3 20.5-50.3 15-30.2 26.9-47.4 46.3-67.4 18.7-19.1 35.7-31.6 57.9-42.6 41.6-20.6 88-28.1 141.2-22.9zm882.7-1.1c19.3 1.2 33.3 3.1 49 6.6 69.6 15.6 127.2 54.7 171.2 116.2 10.2 14.3 13.8 20.8 19.6 35.2 10.7 26.6 15 48.7 14.9 77-.1 34.8-6.6 61.2-23.9 96.5-17.2 35.4-40.5 66.5-76.5 102.5-32.9 33-64.5 58.6-108.2 87.8-19.1 12.8-49.5 31.2-51.5 31.2-.7 0-4.8-1.7-9.1-3.9-59.1-29.6-145.5-56.5-230.5-71.6-51-9-91.1-13.5-162.4-18.1l-9.3-.6v-149.4l2.4-7c10.7-31.1 32.6-74.6 52.6-104.4 55.5-82.6 138.2-147.6 226.5-177.8 38.5-13.2 71.8-19.3 114.5-21 2.5-.1 11.8.3 20.7.8zm-413.6 526c140.8 6.9 261.9 33.4 360.5 78.6l14.4 6.6v41c0 32.4-.3 40.9-1.2 40.5-.7-.2-11-4.3-22.8-9-99.7-39.5-214.4-62.1-348.9-68.8-27.1-1.3-119.1-.7-143.1 1-129.1 9.2-235.3 31.4-328.6 68.7-11.7 4.6-21.5 8.4-21.8 8.4-.3 0-.6-18.3-.6-40.6v-40.5l13.7-6.6c91.3-43.6 221.2-72.3 357.8-79.2 23.7-1.2 97.2-1.2 120.6-.1zm9.9 156c134.3 7.4 254.9 34.2 349 77.4l15.5 7.2.3 41.2.2 41.2-3.7-1.6c-28.3-12.2-75.5-28.6-107.6-37.4-139.1-37.9-300.8-49.9-458.2-33.9-104.6 10.6-209.6 35.6-285.3 68-6.2 2.7-11.6 4.9-11.8 4.9-.2 0-.3-18.3-.2-40.8l.3-40.7 11.5-5.7c6.3-3.2 19.4-9 29-12.9 95.7-39.3 214.7-62.7 346-67.9 25.3-1 88.7-.5 115 1zm8.5 155.9c89.6 6.1 167.5 19 238 39.5 34.2 9.9 79.4 26.1 77.7 27.8-1.5 1.5-27 12.8-44.2 19.5-145 57.1-328.1 75.1-505 49.7-67.1-9.7-134.6-27.2-192-49.9-15.9-6.3-43.2-18.4-44.5-19.7-.5-.4 33.4-13.2 47-17.7 84.5-27.9 180.7-44.7 287.5-50.1 21.7-1.1 115.1-.5 135.5.9zM1804.6 438.9l-194.9 194.9 15.7 7.8 15.7 7.8 179.5-179.5L2000 290.5l-.2-23.3-.3-23.2-194.9 194.9z"/><path d="M680.2 495.3c-56.8 56.8-103 103.6-102.6 104 .4.4 2.6.7 4.8.7 2.3.1 11.1 1.1 19.6 2.4l15.5 2.4 91.2-91.1 91.2-91.1-2.9-4.1c-2.6-3.7-8.4-14.9-12.1-23.3l-1.4-3.2-103.3 103.3zM1880.8 629.7l-118.7 118.8 10 12.5c5.5 6.9 10.3 12.6 10.7 12.8.4.1 49.4-48.5 109-108.1L2000 557.5l-.2-23.3-.3-23.2-118.7 118.7zM1923.1 854.4l-76.4 76.4 1.2 15.8c.7 8.8 1.3 18.7 1.4 22.2l.2 6.2 75.3-75.3 75.2-75.2-.2-23.3-.3-23.2-76.4 76.4zM74.7 1100.8L0 1175.5v47l78.5-78.5 78.5-78.5-2.5-12.6c-1.3-7-2.7-15.3-3.1-18.5-.4-3.3-1-6.5-1.3-7.1-.4-.8-28.8 26.9-75.4 73.5zM1777.7 1266.8L1556 1488.5l.2 23.8.3 23.7 221.8-221.8 221.7-221.7-.2-23.8-.3-23.7-221.8 221.8zM113.6 1328.9L0 1442.5v47l123.9-123.9c123-123 124-124 122.3-126.2-.9-1.2-5.6-7.2-10.3-13.2l-8.6-11-113.7 113.7zM1656 1656.5L1312.5 2000h47l320.3-320.3 320.2-320.2-.2-23.3-.3-23.2-343.5 343.5zM180.7 1528.8L0 1709.5l.2 23.3.3 23.2 194.3-194.3L389 1367.5l-13.2-9.5c-7.3-5.2-13.5-9.6-13.8-9.8-.3-.1-81.8 81.1-181.3 180.6zM199.7 1776.7L0 1976.5v23.5h23.5l188.3-188.3L400 1623.5l-.2-23.3-.3-23.2-199.8 199.7zM1789.5 1790l-210 210h47l186.8-186.8 186.7-186.7-.2-23.3-.3-23.2-210 210zM364 1879.5L243.5 2000h47L403 1887.5c61.8-61.8 112.2-112.6 112-112.8-1.1-.9-29.2-15.7-29.8-15.7-.4 0-54.9 54.2-121.2 120.5zM593 1917.5l-82.5 82.5h47l78-78c42.8-42.8 77.7-78.1 77.5-78.2-.7-.5-35.3-8.8-36.5-8.8-.6 0-38.1 37.1-83.5 82.5zM1240.5 1844.1c-4.4 1-17.4 3.7-29 6l-21 4.2-73 72.8-73 72.9h48l79-79c43.4-43.5 78.5-79 78-78.9-.6 0-4.6.9-9 2zM1923 1923.5l-76.5 76.5h47l53.3-53.3 53.2-53.2-.2-23.3-.3-23.2-76.5 76.5zM842 1935.4l-64.5 64.6h47l64-64 64-64h-11.1c-6.1 0-16.4-.3-23-.6l-11.9-.6-64.5 64.6z"/></svg>