<svg version="1.0" xmlns="http://www.w3.org/2000/svg" width="2666.667" height="2666.667" viewBox="0 0 2000 2000"><path d="M53.2 53.3L0 106.5l.2 23.3.3 23.2L77 76.5 153.5 0h-47L53.2 53.3zM186.7 186.8L0 373.5l.2 23.3.3 23.2 210-210 210-210h-47L186.7 186.8zM472.7 167.8C380.5 260 305 335.8 305 336.2c0 .3 3.4 1.4 7.5 2.3 4.2.9 12.1 3.2 17.8 5.1l10.2 3.4L514 173.5 687.5 0h-47L472.7 167.8zM808.6 98.9l-98.9 98.9 5.9 3c3.2 1.7 9.9 5.5 14.8 8.6 4.8 3.1 9.1 5.6 9.5 5.6.3 0 49-48.4 108.1-107.5L955.5 0h-48l-98.9 98.9zM1107.1 68.4l-68.3 68.3 6.8 1.7c3.8.9 12 3.3 18.2 5.3l11.3 3.7 73.7-73.7L1222.5 0h-47l-68.4 68.4zM1313.8 128.7l-128.7 128.8 2 5c1.1 2.7 3.5 10.6 5.4 17.4 1.9 6.8 3.6 12.6 3.8 12.7.2.2 66.2-65.6 146.7-146.1L1489.5 0h-47l-128.7 128.7zM1595.3 114.2L1481 228.5l7.3 4.7c3.9 2.6 10.1 7 13.6 9.9l6.4 5.1 124.1-124.1L1756.5 0h-47l-114.2 114.2zM1777.2 199.3L1578 398.5v8.5l6.8-7.7c21.9-24.9 52.7-44.9 85.7-55.8l14-4.6 157.8-157.7L2000 23.5V0h-23.5l-199.3 199.3z"/><path d="M984.5 212.1c-39.8 5.4-74.3 29.4-92.8 64.7-19.7 37.6-18 85 4.3 120.4 14.1 22.4 35.3 40.4 58.1 49.4l6.6 2.6-52.1 260.4c-28.6 143.2-52.4 260-52.8 259.6-.8-.9-188-477.4-187.6-477.7.2-.1 3.7-1.9 7.8-4 11.4-5.7 20.3-12 29.8-20.9 19.4-18.3 31.9-41.5 36.8-68.1 2.4-13.3 1.5-37.5-1.9-50.6-11.5-44-44.6-77.1-88.4-88.6-13.3-3.4-37.4-4.3-50.8-1.9-50.2 9.3-88.8 46.8-99 96.1-12 58.2 21.4 118.5 76.8 138.5l9.7 3.5V746c0 212.5-.2 250.1-1.4 248.5-1-1.5-229.8-361-235.9-370.7-.9-1.3.1-2.9 5.3-8.4 10.6-11.4 19.3-25.9 24.8-41.4 11.1-31.5 9.1-64.5-5.8-94.5-6.8-13.9-13.3-22.9-24.1-33.5-28.4-28-70.5-40.4-109.5-32.4-53.4 11-93.1 55.8-97.4 109.8-4.3 55.4 28.5 106.2 80.7 125 14.8 5.3 32.3 7.7 49.1 6.8 4.5-.2 8.2-.1 8.2.2 0 .3 18.7 112.8 41.6 249.9 26.8 161 41.9 253.8 42.5 262.2 1.8 23 6.2 39.9 15.2 57.2 8.2 16.1 16 25.5 44.2 54.3 33.9 34.4 40.2 42.2 51.1 62.5 2.6 4.9 10.7 17.5 17.9 28 20.8 30.1 20.1 28.5 18 45-1.2 8.7-7.6 43-9.9 53-.3 1.1-4.6 5.5-9.6 9.8-10.9 9.4-23 23.1-31.1 35.2-12.3 18.3-22.9 43.7-26.5 63.3-.8 4.8-1.9 9.2-2.2 9.8-.4.6-3.3 4.7-6.4 9-7.6 10.5-13.5 22.7-16.5 34.4-2.2 8.4-2.4 11-2 23 .4 10.3 1 15.2 2.7 20.5 5.2 16.3 16 32.7 29.8 45.6 9.3 8.5 29.4 22.2 36 24.3 4.9 1.5 25.7 4.7 59.2 9 254 32.7 606.8 35.1 875.5 6 49.6-5.3 102-12.5 109.7-15 5.9-1.9 15.4-9.1 24-18.2 34.2-36.3 36.8-84.1 6.9-125.8l-5.8-8.1.5-11.9c1.5-37.7-14.1-75-42.5-101.3l-8.6-8-4.8-24.3c-5.6-28.2-7.3-41-5.9-45.6 1.2-4.3 3.1-7.4 18.5-29.7 7.2-10.5 15.3-23.1 17.9-28 11-20.4 17.3-28.2 50.6-62 28.8-29.3 36.5-38.7 44.7-54.8 8.9-17.2 13.5-34.5 15.2-57.7.6-7.8 16.8-107.1 42.5-261.7 22.9-137.1 41.6-249.5 41.6-249.7 0-.3 6.2-.5 13.8-.4 16.3.1 26.3-1.3 39.2-5.4 36.5-11.6 65.5-39.6 78.4-75.5 11.7-33 8.3-72.1-9.1-101.8-8.9-15.2-23.3-30.7-37.4-40.2-36.8-24.8-82.7-28-122.4-8.3-25.7 12.7-44.2 31.4-56.5 57.3-21.2 44.3-13 98.7 20 134.1 5.2 5.5 6.2 7.1 5.3 8.4-6.1 9.7-234.9 369.2-235.9 370.7-1.2 1.7-1.4-34.1-1.2-237.4l.3-239.3 7.5-2.8c35.4-12.9 62.6-40.8 74.5-76.2 23.9-71.6-21.7-147.1-96.4-159.4-13.4-2.2-34.8-1.5-46.8 1.5-45.2 11.3-78.6 43.9-91 88.9-2.5 9.1-2.7 11.1-2.7 30.2s.2 21.1 2.7 30.2c6 21.6 17 40.9 31.8 55.6 11 10.7 18.2 16.1 30.5 22.5l10.2 5.2-93.6 229.7c-51.5 126.3-93.8 229.6-93.9 229.4-.2-.2-23.9-118-52.7-261.9l-52.3-261.6 4.6-1.7c8.3-3 20.4-9.7 28.5-15.8 58.9-43.6 66.6-128.4 16.5-182-16.9-18.1-40.7-31.3-64.9-36.1-9.6-1.9-30.5-2.7-39.5-1.4zm34.9 69.3c8.3 3.1 17.9 9.8 22.8 15.8 9 11 12.9 22 13 36.3 0 10.6-3.1 21.3-8.6 29.8-4.5 7.2-14.3 16-21.8 19.6-22 10.8-46.4 6.7-63.8-10.8-11.6-11.7-16.4-23.4-16.3-39.7.2-25.6 17.5-46.9 43.2-53.4 2-.5 8.3-.8 14.1-.6 8.4.3 11.9.8 17.4 3zm-385.9 42.1c11 2.3 18.9 6.8 27.6 15.4 13 13 18.3 28 16.1 45.5-3.5 28-26.7 48.5-54.7 48.6-23.4 0-44-14-52.1-35.5-3.5-9.3-4.4-24-1.9-33.5 4.1-15.7 15.1-29 29.6-36 12.3-5.8 22.7-7.2 35.4-4.5zm759.5 23.2c18.2 5 33.5 20.6 38.5 39.3 2.2 8.2 1.9 21.4-.6 29.6-5.6 18.4-19.7 32.5-37.8 37.8-7.2 2.1-23 2.1-30.2 0-9.7-2.9-17.1-7.4-24.4-14.8-13.6-13.7-18.9-31.4-15-49.8 5.7-27 31-46.2 58-44.1 3.3.3 8.5 1.1 11.5 2zM280.3 479.6c9.8 2.5 17.6 7 25.3 14.8 17.5 17.5 21.4 41.7 10.2 64.6-4.3 8.7-15 19.4-24 23.8-28.2 13.8-61.5 2.6-74.8-25.2-6-12.5-7.3-22.9-4.5-35.9 4.3-20.2 20.9-37.5 40.8-42.3 7.3-1.7 19.8-1.7 27 .2zm1464.9-.5c15 3.1 30.9 15.4 37.6 29.1 10.7 21.9 6.6 47.3-10.3 64.3-21.8 21.8-56.2 21.7-78.1-.1-17.5-17.3-21.4-42.5-10.3-64.7 6.2-12.2 21.5-24.5 35-28.1 6.5-1.8 18.9-2 26.1-.5zm-697.3 353.1c26.1 130.5 47.6 238 47.8 238.8.4 1.3-10.8 1.5-95.7 1.6-88.6.2-96.1 0-95.8-1.5.3-.9 21.8-108.4 47.9-238.9C978.2 701.8 999.7 595 1000 595c.3 0 21.8 106.8 47.9 237.2zM741.4 861c46.3 118 84.2 214.6 84 214.8-.1.2-12.1 1-26.6 1.8-46 2.5-122.2 8-138 10l-4.8.6.1-221.9c0-122 .3-221.4.5-220.8.2.5 38.4 97.5 84.8 215.5zm602.3 222.6c-.1.2-8.1-.3-17.7-1.1-34-2.8-101.8-6.5-140.2-7.7-4.7-.2-9-.6-9.3-1-.4-.4 37-93.3 83.1-206.6l83.9-205.8.3 210.9c.1 116.1.1 211.2-.1 211.3zM473.5 939.3c54.8 86.3 99.6 157 99.4 157.1-.2.2-6.7 1.1-14.4 2-37.4 4.6-76.6 10-109.5 15.1-11.8 1.9-21.5 3.3-21.6 3.2-.1-.1-12.6-74.9-27.8-166.2-15.2-91.3-27.9-167.4-28.2-169-.5-2.8-.5-2.9.9-1 .8 1.1 46.3 72.6 101.2 158.8zm1127.5 7.6c-15.3 92-28.1 167.5-28.3 167.7-.2.2-7.1-1-15.3-2.6-27.6-5.6-81.3-14-116.4-18.3-6.1-.7-10.5-1.7-10.5-2.3 0-1.1 197.8-312.5 198.2-312 .1.1-12.3 75.5-27.7 167.5zM1090 1140c160.3 4.1 307.3 17 453.8 40 10.1 1.6 18.6 3.1 18.9 3.4 1.1 1-7.4 17.2-12.2 23.1-2.6 3.3-15.2 16.3-27.9 29-23 22.8-34.7 36.2-44.7 51.2-2.9 4.3-5.3 7.9-5.4 8.1-.1.1-6.3-.9-13.6-2.2-60.3-11.1-156.1-18.7-300.4-23.8-48.7-1.7-269.2-1.7-317 0-147.3 5.3-244.7 13.1-303.4 24.3-5.7 1.1-10.4 1.9-10.5 1.7-.2-.2-3-4.4-6.4-9.4-10.2-14.9-21.4-27.7-46.7-52.9-24.7-24.5-31.2-32.5-35.5-43.4-1.1-2.9-1.9-5.6-1.7-5.8.3-.2 13.5-2.4 29.3-4.9 137.5-21.3 288.6-34.5 439.4-38.3 44.2-1.2 140.3-1.2 184-.1zm46 195c98.9 2.6 180.5 7.3 243.5 14 19 2.1 47.2 5.6 51.1 6.5 2 .4 1.9.9-2.6 9.9-7.1 14.1-8.5 20.9-8.4 40.1 0 11.8.6 19.2 2.2 28.2 1.2 6.6 2.2 12.8 2.2 13.5 0 1.2-1.4 1.2-9.2.1-81.7-11.3-184.5-19.3-301.3-23.5-43.9-1.5-183.1-1.5-227 0-114 4.1-214.1 11.8-297.2 23.1-11.3 1.5-13.3 1.6-13.3.3 0-.7 1-6.9 2.2-13.5 1.6-9 2.2-16.4 2.2-28.2.1-19.2-1.3-26-8.4-40.1-4.5-9-4.6-9.5-2.6-9.9 6.9-1.5 48.1-6.4 76.6-8.9 74.6-6.8 181.8-11.6 289-13 38.7-.5 161.9.4 201 1.4zm-46.5 155c129.8 3.5 237.8 12 337.6 26.5 13 1.9 24.1 3.5 24.7 3.5 1.9 0 10.9 8 15.5 13.9 5.5 6.9 9.9 16 12.2 24.6 2 7.7 1.9 21.7-.1 30.7-2.2 9.5-1.5 18.7 1.9 25.3 1.4 2.7 5.5 8.3 9.2 12.4 16.2 17.9 20 29.9 13.5 42.7-5 10.1-3.9 9.7-34.5 13.7-137.5 18.4-295.9 27.7-469.5 27.7-179.1 0-357.2-11-486.5-30l-13.9-2-7.1-5.5c-8.1-6.2-12.8-11.6-15.7-18.2-3.6-8.1-.8-15.4 11.1-29.2 9.1-10.6 11-14.7 12.2-26.7 2.5-24.6 13.9-48.1 32.1-66.5 12.5-12.7 11.1-12.2 43.8-16.8 100.2-14.2 208.2-22.8 329-26 43-1.2 142.8-1.2 184.5-.1zM1931.3 312.2l-68.2 68.3 11.7 11.7 11.8 11.7 56.7-56.7 56.7-56.7-.2-23.3-.3-23.2-68.2 68.2z"/><path d="M1174.3 535.3l-32 32.2 3.7 18c2 9.9 3.8 18.6 4.1 19.3.2.6 17.4-15.8 38.3-36.7l37.9-37.9-4.1-5c-2.3-2.7-6.8-8.8-10-13.5l-5.8-8.6-32.1 32.2zM1963.3 547.2l-36.2 36.3-4.1 12.4c-19.5 59.8-67.3 107.4-127.5 127.1-5.5 1.8-10.4 3.6-10.8 4-.8.7-10 54-9.4 54.6.1.2 50.8-50.2 112.5-111.9L2000 557.5l-.2-23.3-.3-23.2-36.2 36.2zM34.7 605.8L0 640.5v47l40.3-40.3 40.4-40.4-2.4-6.6c-1.4-3.7-3.7-11.5-5.2-17.5-1.6-5.9-3-10.9-3.3-11.2-.2-.2-16 15.2-35.1 34.3zM830.1 612.4l-22.3 22.4 6.1 15.8c3.4 8.8 6.6 16.2 7 16.7.4.4 5.2-3.9 10.7-9.5l10.1-10.3 5.6-28.4c3.1-15.7 5.6-28.6 5.4-28.7-.2-.2-10.3 9.7-22.6 22zM498.2 677.3l-12.4 12.4 8.2 12.9c4.5 7.1 8.7 13.5 9.4 14.2.9 1 1.9.5 4.4-2.1l3.2-3.3-.2-23.2-.3-23.2-12.3 12.3zM94.7 812.8L0 907.5l.2 23.8.3 23.7 108.7-108.7 108.7-108.8-1-5c-.5-2.7-1.3-5.2-1.7-5.6-.6-.5-24.6-8.9-25.5-8.9-.1 0-42.8 42.6-95 94.8zM1865.1 912.4l-134.4 134.4-4.7 28.2-4.7 28.2 139.4-139.4L2000 824.5l-.2-23.3-.3-23.2-134.4 134.4zM124.2 1051.3L0 1175.5l.2 23.3.3 23.2 127.7-127.7L256 966.5l-3.2-19c-1.7-10.5-3.4-19.3-3.7-19.7-.4-.4-56.6 55.2-124.9 123.5zM1794.8 1249.7c-112.7 112.7-204.8 205.2-204.8 205.7s2 4.1 4.4 8c2.4 3.9 6 10.4 8.1 14.3 2 4 3.9 7.3 4.3 7.3.4 0 89-88.3 197-196.3l196.2-196.2-.2-23.8-.3-23.7-204.7 204.7zM143.2 1299.3L0 1442.5v47l146.1-146 146-146-.6-4.6c-.5-4.7-3.5-34.8-3.5-36.2 0-.4-.3-.7-.8-.7-.4 0-65.2 64.5-144 143.3zM1825.8 1486.7l-173.7 173.8-1.1 11.5c-1.2 13.1-3.7 25.9-7.4 37.5-1.4 4.3-2.4 8-2.3 8.2.2.1 80.9-80.4 179.5-179l179.2-179.2-.2-23.3-.3-23.2-173.7 173.7zM186.7 1522.8L0 1709.5v47l198-198c108.9-108.9 198-198.4 198-199 0-1.3-16.3-18.9-19.9-21.4l-2.7-2-186.7 186.7zM1789.5 1790l-210 210h47l186.8-186.8 186.7-186.7-.2-23.3-.3-23.2-210 210zM165.3 1811.2L0 1976.5v23.5h23.5l156.1-156.1 156-156-1.8-9c-1-5-2.1-14.4-2.5-21l-.8-11.9-165.2 165.2zM339.4 1904.1l-95.9 95.9h47l89.8-89.8 89.8-89.8-5.8-1.3c-8-1.8-16.7-4.8-23.4-8.2l-5.6-2.8-95.9 96zM1535.5 1819.2c-2.2.5-14.3 2.5-27 4.3l-22.9 3.4-86.6 86.6-86.5 86.5h47l91-91c50-50 90.5-91 90-90.9-.6.1-2.8.5-5 1.1zM589 1921.5l-78.5 78.5h47l76.9-76.9 76.9-76.9-6.4-.6c-14.1-1.2-32.1-2.6-34.7-2.6-2.3 0-15.5 12.8-81.2 78.5zM1923 1923.5l-76.5 76.5h47l53.3-53.3 53.2-53.2-.2-23.3-.3-23.2-76.5 76.5zM1213 1850.2c-9.1.4-17.4 1-18.5 1.3-1.1.2-35.3 33.8-76 74.5l-74 74h48l75.5-75.5 75.5-75.5-7 .1c-3.9.1-14.4.6-23.5 1.1zM850 1927.5l-72.5 72.5h47l72.5-72.5 72.5-72.5h-47l-72.5 72.5z"/></svg>