<svg version="1.0" xmlns="http://www.w3.org/2000/svg" width="2666.667" height="2666.667" viewBox="0 0 2000 2000"><path d="M478.4 368.4c-9.2 2.9-17.6 11.2-20.9 20.6-1.2 3.4-1.5 22.6-1.5 122.5l-.1 118.4 2.6 5.9c2.3 5.2 9.6 12.8 66.5 69.7l64 64v532.3l-26 43.3-26 43.4-6.4.7c-12.1 1.2-21.7 7.7-27.2 18.5l-2.9 5.8-.3 76.7-.3 76.7-54.7.3-54.7.3-4.7 2.4c-6.3 3.1-12.1 8.8-15.5 15.3l-2.8 5.3-.3 74.6c-.2 73.3-.2 74.8 1.8 80.2 2.9 7.7 8.7 14 16.8 17.9l6.7 3.3h1215l6.7-3.3c8.1-3.9 13.9-10.2 16.8-17.9 2-5.4 2-6.9 1.8-80.2l-.3-74.6-2.8-5.3c-3.4-6.5-9.2-12.2-15.5-15.3l-4.7-2.4-54.7-.3-54.7-.3-.3-76.7-.3-76.7-2.9-5.8c-5.5-10.8-15.1-17.3-27.2-18.5l-6.4-.7-26-43.4-26-43.3V769.5l64-64c56.9-56.9 64.2-64.5 66.5-69.7l2.6-5.9-.1-118.4c0-99.9-.3-119.1-1.5-122.5-3.5-9.9-12.9-18.6-22.5-21-3.1-.7-33.6-1-100.5-.8l-96 .3-4.3 2.3c-6.7 3.6-12.9 9.8-15.9 16.1l-2.8 5.6-.3 32.3-.3 32.2-77.7-.2-77.7-.3-.5-32.5c-.5-32-.5-32.6-2.9-37.5-3.2-6.3-9.3-12.4-15.6-15.6l-5-2.4h-241l-5 2.4c-6.3 3.2-12.4 9.3-15.6 15.6-2.4 4.9-2.4 5.5-2.9 37.5l-.5 32.5-77.7.3-77.7.2-.3-32.2c-.3-30.6-.4-32.5-2.5-37-2.9-6.3-9.6-13.4-15.8-16.6l-5-2.7-97-.2c-77-.1-97.8.1-101.1 1.1zm154.8 96.4l.3 31.7 3.3 6.7c3.6 7.3 8.6 12.3 16.1 16l4.6 2.3 118.7.3 118.6.2 5.9-2.1c7.9-3 16.2-11.2 19.2-19.2 2-5.4 2.1-7.6 2.1-36.7v-31h156v31c0 29.1.1 31.3 2.1 36.7 3 7.9 11.3 16.2 19.2 19.2l5.8 2.1h117c114.1 0 117.1 0 122.6-2 8-2.8 14.1-8.3 18.3-16.5l3.5-6.8.3-31.8.3-31.9H1478v156H522V433h110.9l.3 31.8zM1397.5 689l-33 33h-729l-33-33-33-33h861l-33 33zm-53.5 328v261H656V756h688v261zm.4 295.7c.2 1 .8 3.7 1.1 6.1.5 3.1 6 13.2 19.7 36 10.5 17.4 19.2 32.3 19.5 32.9.4 1-76.9 1.3-384.7 1.3-307.8 0-385.1-.3-384.7-1.3.3-.6 9-15.5 19.5-32.9 13.7-22.8 19.2-32.9 19.7-36 .3-2.4.9-5.1 1.1-6.1.5-1.6 17.8-1.7 344.4-1.7 326.6 0 343.9.1 344.4 1.7zm88.6 198.8v55.5H567v-111h866v55.5zm133.8 155.4l.2 33.1H433v-32.8c0-18.1.2-33.1.4-33.3.2-.2 255.3-.3 566.8-.2l566.3.1.3 33.1z"/></svg>