<svg version="1.0" xmlns="http://www.w3.org/2000/svg" width="2666.667" height="2666.667" viewBox="0 0 2000 2000"><path d="M53.2 53.3L0 106.5l.2 23.3.3 23.2L77 76.5 153.5 0h-47L53.2 53.3zM186.7 186.8L0 373.5l.2 23.3.3 23.2 210-210 210-210h-47L186.7 186.8zM320.2 320.3L0 640.5l.2 23.3.3 23.2L344 343.5 687.5 0h-47L320.2 320.3zM453.7 453.8L0 907.5l.2 23.8.3 23.7L478 477.5 955.5 0h-48L453.7 453.8zM587.7 587.8L0 1175.5l.2 23.3.3 23.2 611-611 611-611h-47L587.7 587.8zM721.2 721.3L0 1442.5l.2 23.3.3 23.2L745 744.5 1489.5 0h-47L721.2 721.3zM854.7 854.8L0 1709.5l.2 23.3.3 23.2 878-878 878-878h-47L854.7 854.8zM988.2 988.3L0 1976.5v23.5h23.5l988.3-988.3L2000 23.5V0h-23.5L988.2 988.3zM1121.5 1122l-878 878h47l854.8-854.8L2000 290.5l-.2-23.3-.3-23.2-878 878zM1255 1255.5L510.5 2000h47l721.3-721.3L2000 557.5l-.2-23.3-.3-23.2-744.5 744.5zM1388.5 1389l-611 611h47l587.8-587.8L2000 824.5l-.2-23.3-.3-23.2-611 611zM1522 1522.5L1044.5 2000h48l453.8-453.8 453.7-453.7-.2-23.8-.3-23.7-477.5 477.5zM1656 1656.5L1312.5 2000h47l320.3-320.3 320.2-320.2-.2-23.3-.3-23.2-343.5 343.5zM1789.5 1790l-210 210h47l186.8-186.8 186.7-186.7-.2-23.3-.3-23.2-210 210zM1923 1923.5l-76.5 76.5h47l53.3-53.3 53.2-53.2-.2-23.3-.3-23.2-76.5 76.5z"/></svg>